<?xml version="1.0" encoding="UTF-8" standalone="no"?>
<svg
   xmlns:dc="http://purl.org/dc/elements/1.1/"
   xmlns:cc="http://creativecommons.org/ns#"
   xmlns:rdf="http://www.w3.org/1999/02/22-rdf-syntax-ns#"
   xmlns:svg="http://www.w3.org/2000/svg"
   xmlns="http://www.w3.org/2000/svg"
   xmlns:sodipodi="http://sodipodi.sourceforge.net/DTD/sodipodi-0.dtd"
   xmlns:inkscape="http://www.inkscape.org/namespaces/inkscape"
   sodipodi:docname="pwhizz.svg"
   inkscape:version="1.0 (4035a4f, 2020-05-01)"
   id="svg8"
   version="1.1"
   viewBox="0 0 210 297"
   height="297mm"
   width="210mm"
   inkscape:export-filename="/Users/adamjenkins/InkSpace/Version3.0/Characters/Password/pwhizz.png"
   inkscape:export-xdpi="300"
   inkscape:export-ydpi="300">
  <defs
     id="defs2" />
  <sodipodi:namedview
     inkscape:window-maximized="0"
     inkscape:window-y="23"
     inkscape:window-x="0"
     inkscape:window-height="855"
     inkscape:window-width="1252"
     showgrid="false"
     inkscape:document-rotation="0"
     inkscape:current-layer="layer3"
     inkscape:document-units="mm"
     inkscape:cy="516.65603"
     inkscape:cx="243.82558"
     inkscape:zoom="0.92546701"
     inkscape:pageshadow="2"
     inkscape:pageopacity="0.0"
     borderopacity="1.0"
     bordercolor="#666666"
     pagecolor="#ffffff"
     id="base" />
  <metadata
     id="metadata5">
    <rdf:RDF>
      <cc:Work
         rdf:about="">
        <dc:format>image/svg+xml</dc:format>
        <dc:type
           rdf:resource="http://purl.org/dc/dcmitype/StillImage" />
        <dc:title />
      </cc:Work>
    </rdf:RDF>
  </metadata>
  <g
     inkscape:label="Layer 2"
     id="layer3"
     inkscape:groupmode="layer">
    <rect
       style="fill:#ffffff;fill-rule:evenodd;stroke-width:4.85185"
       id="rect1700"
       width="147.9521"
       height="88.616226"
       x="36.015163"
       y="77.777824" />
  </g>
  <g
     id="layer1"
     inkscape:groupmode="layer"
     inkscape:label="Layer 1">
    <path
       style="color:#000000;font-style:normal;font-variant:normal;font-weight:normal;font-stretch:normal;font-size:medium;line-height:normal;font-family:sans-serif;font-variant-ligatures:normal;font-variant-position:normal;font-variant-caps:normal;font-variant-numeric:normal;font-variant-alternates:normal;font-variant-east-asian:normal;font-feature-settings:normal;font-variation-settings:normal;text-indent:0;text-align:start;text-decoration:none;text-decoration-line:none;text-decoration-style:solid;text-decoration-color:#000000;letter-spacing:normal;word-spacing:normal;text-transform:none;writing-mode:lr-tb;direction:ltr;text-orientation:mixed;dominant-baseline:auto;baseline-shift:baseline;text-anchor:start;white-space:normal;shape-padding:0;shape-margin:0;inline-size:0;clip-rule:nonzero;display:inline;overflow:visible;visibility:visible;isolation:auto;mix-blend-mode:normal;color-interpolation:sRGB;color-interpolation-filters:linearRGB;solid-color:#000000;solid-opacity:1;vector-effect:none;fill:#ff0000;fill-opacity:1;fill-rule:evenodd;stroke:#ff0000;stroke-width:2.4;stroke-linecap:butt;stroke-linejoin:miter;stroke-miterlimit:4;stroke-dasharray:none;stroke-dashoffset:0;stroke-opacity:1;color-rendering:auto;image-rendering:auto;shape-rendering:auto;text-rendering:auto;enable-background:accumulate;stop-color:#000000;stop-opacity:1;opacity:1"
       d="M 42.041016 78.125 C 38.600142 78.125 35.791016 80.934127 35.791016 84.375 L 35.791016 159.79688 C 35.791016 163.23774 38.600141 166.04688 42.041016 166.04688 L 177.94141 166.04688 C 181.38228 166.04688 184.19141 163.23775 184.19141 159.79688 L 184.19141 84.375 C 184.19141 80.934125 181.38228 78.125 177.94141 78.125 L 42.041016 78.125 z M 42.041016 80.625 L 177.94141 80.625 C 180.04052 80.625 181.69141 82.275885 181.69141 84.375 L 181.69141 159.79688 C 181.69141 161.89598 180.04052 163.54688 177.94141 163.54688 L 42.041016 163.54688 C 39.9419 163.54688 38.291016 161.89599 38.291016 159.79688 L 38.291016 84.375 C 38.291016 82.275883 39.941899 80.625 42.041016 80.625 z "
       id="path584" />
    <text
       xml:space="preserve"
       style="font-size:5.64444px;line-height:1;font-family:sans-serif;text-align:start;text-anchor:start;stroke-width:0.264583"
       x="97.621223"
       y="114.27905"
       id="text536"><tspan
         sodipodi:role="line"
         x="97.621223"
         y="114.27905"
         style="font-size:5.64444px;text-align:start;text-anchor:start;stroke-width:0.264583"
         id="tspan1668">On your turn, you may </tspan><tspan
         sodipodi:role="line"
         x="97.621223"
         y="119.92349"
         style="font-size:5.64444px;text-align:start;text-anchor:start;stroke-width:0.264583"
         id="tspan1732">change any Passwords rolled</tspan><tspan
         sodipodi:role="line"
         x="97.621223"
         y="125.56793"
         style="font-size:5.64444px;text-align:start;text-anchor:start;stroke-width:0.264583"
         id="tspan1734">into 2FA or change 2FA </tspan><tspan
         sodipodi:role="line"
         x="97.621223"
         y="131.21237"
         style="font-size:5.64444px;text-align:start;text-anchor:start;stroke-width:0.264583"
         id="tspan1736">into Passwords</tspan></text>
    <g
       id="g1463"
       transform="translate(-7.3166847)">
      <text
         id="text1411"
         y="90.333992"
         x="156.6478"
         style="font-size:9.87778px;line-height:0;font-family:sans-serif;text-align:end;text-anchor:end;stroke-width:0.264583"
         xml:space="preserve"><tspan
           style="font-size:9.87778px;stroke-width:0.264583"
           y="90.333992"
           x="156.6478"
           id="tspan1409"
           sodipodi:role="line">Password Whizz</tspan></text>
    </g>
    <g
       transform="matrix(0.09784736,0,0,0.09784736,42.333295,97.086318)"
       id="g383">
      <path
         d="M 300.829,258.32 C 314.76,249.849 326.148,237.596 333.563,223 H 351.5 c 30.603,0 55.5,-24.898 55.5,-55.5 0,-25.223 -16.919,-46.555 -40,-53.281 V 71.5 C 367,32.075 334.925,0 295.5,0 h -80 C 176.075,0 144,32.075 144,71.5 v 42.719 c -23.081,6.726 -40,28.058 -40,53.281 0,30.602 24.898,55.5 55.5,55.5 h 17.937 c 7.416,14.596 18.803,26.849 32.734,35.32 -12.956,4.659 -22.789,15.905 -25.448,29.68 H 104 v 87.5 h 15 V 303 h 65 v 24.5 c 0,21.78 17.72,39.5 39.5,39.5 H 247 v -24.931 c 2.74,0.604 5.581,0.931 8.5,0.931 2.918,0 5.76,-0.328 8.5,-0.931 V 367 h 23.5 c 21.78,0 39.5,-17.72 39.5,-39.5 V 303 h 65 V 496 H 359 V 343.5 H 344 V 496 H 167 V 343.5 H 152 V 496 H 119 V 391.5 H 104 V 511 H 407 V 288 h -80.723 c -2.66,-13.775 -12.493,-25.022 -25.448,-29.68 z M 367,130.089 c 14.662,6.097 25,20.567 25,37.411 0,22.332 -18.168,40.5 -40.5,40.5 h -11.996 c 1.749,-5.987 2.872,-12.237 3.297,-18.676 2.693,1.077 5.626,1.676 8.698,1.676 12.958,0 23.5,-10.542 23.5,-23.5 0,-7.023 -3.101,-13.331 -8,-17.642 v -19.769 z m -7,37.411 c 0,4.686 -3.814,8.5 -8.5,8.5 -4.686,0 -8.5,-3.814 -8.5,-8.5 0,-4.686 3.814,-8.5 8.5,-8.5 4.686,0 8.5,3.814 8.5,8.5 z M 343,145.598 V 127 h 8.5 c 0.168,0 0.333,0.011 0.5,0.013 v 17 C 351.833,144.01 351.668,144 351.5,144 c -2.997,0 -5.862,0.57 -8.5,1.598 z M 159,127.013 c 0.167,-0.002 0.332,-0.013 0.5,-0.013 h 8.5 v 18.598 C 165.362,144.57 162.497,144 159.5,144 c -0.168,0 -0.333,0.009 -0.5,0.013 z M 159.5,159 c 4.686,0 8.5,3.814 8.5,8.5 0,4.686 -3.814,8.5 -8.5,8.5 -4.686,0 -8.5,-3.814 -8.5,-8.5 0,-4.686 3.814,-8.5 8.5,-8.5 z m 0,49 c -22.332,0 -40.5,-18.168 -40.5,-40.5 0,-16.844 10.338,-31.314 25,-37.411 v 19.769 c -4.899,4.31 -8,10.619 -8,17.642 0,12.958 10.542,23.5 23.5,23.5 3.072,0 6.006,-0.599 8.699,-1.676 0.425,6.438 1.549,12.689 3.297,18.676 z m 0,-96 c -0.168,0 -0.333,0.011 -0.5,0.013 V 71.5 C 159,40.346 184.346,15 215.5,15 h 80 c 31.154,0 56.5,25.346 56.5,56.5 v 40.513 C 351.832,112.011 351.668,112 351.5,112 h -64 C 273.99,112 263,101.01 263,87.5 v -32 h -15 v 32 c 0,13.51 -10.99,24.5 -24.5,24.5 z M 183,183.5 V 127 h 40.5 c 13.153,0 24.817,-6.468 32,-16.384 7.183,9.915 18.847,16.384 32,16.384 H 328 v 56.5 C 328,223.477 295.477,256 255.5,256 215.523,256 183,223.477 183,183.5 Z M 232,352 h -8.5 C 209.99,352 199,341.01 199,327.5 v -32 c 0,-10.894 7.148,-20.146 17,-23.321 V 303.5 c 0,12.984 6.299,24.522 16,31.727 z m 23.5,-24 C 241.99,328 231,317.01 231,303.5 v -35.996 c 7.778,2.272 15.998,3.496 24.5,3.496 8.502,0 16.722,-1.224 24.5,-3.496 V 303.5 c 0,13.51 -10.99,24.5 -24.5,24.5 z m 56.5,-0.5 c 0,13.51 -10.99,24.5 -24.5,24.5 H 279 v -16.773 c 9.701,-7.204 16,-18.743 16,-31.727 v -31.321 c 9.852,3.176 17,12.427 17,23.321 z"
         id="path361" />
      <path
         d="m 215.5,463 h 16 v 15 h -16 z"
         id="path363" />
      <path
         d="m 247.5,463 h 16 v 15 h -16 z"
         id="path365" />
      <path
         d="m 279.5,463 h 16 v 15 h -16 z"
         id="path367" />
      <path
         d="m 295.5,199 c 17.369,0 31.5,-14.131 31.5,-31.5 0,-17.369 -14.131,-31.5 -31.5,-31.5 -14.785,0 -27.216,10.241 -30.591,24 H 246.09 c -3.374,-13.759 -15.806,-24 -30.591,-24 -17.369,0 -31.5,14.131 -31.5,31.5 0,17.369 14.131,31.5 31.5,31.5 14.785,0 27.216,-10.241 30.591,-24 h 18.819 c 3.375,13.759 15.806,24 30.591,24 z m 0,-48 c 9.098,0 16.5,7.402 16.5,16.5 0,9.098 -7.402,16.5 -16.5,16.5 -9.098,0 -16.5,-7.402 -16.5,-16.5 0,-9.098 7.402,-16.5 16.5,-16.5 z m -80,33 c -9.098,0 -16.5,-7.402 -16.5,-16.5 0,-9.098 7.402,-16.5 16.5,-16.5 9.098,0 16.5,7.402 16.5,16.5 0,9.098 -7.402,16.5 -16.5,16.5 z"
         id="path369" />
    </g>
  </g>
</svg>
