<?xml version="1.0" encoding="UTF-8" standalone="no"?>
<svg
   xmlns:dc="http://purl.org/dc/elements/1.1/"
   xmlns:cc="http://creativecommons.org/ns#"
   xmlns:rdf="http://www.w3.org/1999/02/22-rdf-syntax-ns#"
   xmlns:svg="http://www.w3.org/2000/svg"
   xmlns="http://www.w3.org/2000/svg"
   xmlns:sodipodi="http://sodipodi.sourceforge.net/DTD/sodipodi-0.dtd"
   xmlns:inkscape="http://www.inkscape.org/namespaces/inkscape"
   width="210mm"
   height="297mm"
   viewBox="0 0 210 297"
   version="1.1"
   id="svg114330"
   inkscape:version="1.0 (4035a4f, 2020-05-01)"
   sodipodi:docname="back.svg"
   inkscape:export-filename="/Users/adamjenkins/InkSpace/Version3.0/Hacker/back.png"
   inkscape:export-xdpi="300"
   inkscape:export-ydpi="300">
  <defs
     id="defs114324" />
  <sodipodi:namedview
     id="base"
     pagecolor="#ffffff"
     bordercolor="#666666"
     borderopacity="1.0"
     inkscape:pageopacity="0.0"
     inkscape:pageshadow="2"
     inkscape:zoom="0.90654087"
     inkscape:cx="190.95491"
     inkscape:cy="322.948"
     inkscape:document-units="mm"
     inkscape:current-layer="layer1"
     inkscape:document-rotation="0"
     showgrid="false"
     inkscape:window-width="1397"
     inkscape:window-height="829"
     inkscape:window-x="0"
     inkscape:window-y="23"
     inkscape:window-maximized="0" />
  <metadata
     id="metadata114327">
    <rdf:RDF>
      <cc:Work
         rdf:about="">
        <dc:format>image/svg+xml</dc:format>
        <dc:type
           rdf:resource="http://purl.org/dc/dcmitype/StillImage" />
        <dc:title />
      </cc:Work>
    </rdf:RDF>
  </metadata>
  <g
     inkscape:label="Layer 1"
     inkscape:groupmode="layer"
     id="layer1">
    <rect
       style="fill:#ffffff;fill-rule:evenodd;stroke-width:2.5;stroke:#000000;stroke-opacity:1;stroke-miterlimit:4;stroke-dasharray:none;fill-opacity:1"
       id="rect114893"
       width="63.5"
       height="88.900002"
       x="74.314148"
       y="43.714203"
       rx="5"
       ry="5" />
    <g
       transform="matrix(0.09765644,0,0,0.09765644,81.064148,63.164155)"
       id="g3869">
      <path
         d="m 445.112,341.396 -0.317,-33.424 c 0,-16.744 -13.622,-30.367 -30.367,-30.367 h -29.522 v -58.072 c 0,-60.741 -21.705,-119.641 -61.117,-165.85 -2.677,-3.139 -7.39,-3.512 -10.527,-0.836 -3.138,2.676 -3.512,7.389 -0.836,10.527 31.064,36.421 50.435,81.218 55.925,128.393 l -80.502,-27.133 c -20.539,-6.922 -43.161,-6.922 -63.7,0 l -80.471,27.123 c 6.47,-54.961 31.906,-106.862 72.015,-145.512 l 24.221,-23.34 c 9.02,-8.69 23.151,-8.692 32.171,0 l 16.514,15.913 c 2.969,2.862 7.697,2.774 10.559,-0.196 2.861,-2.969 2.774,-7.697 -0.196,-10.559 L 282.448,12.151 c -14.83,-14.292 -38.066,-14.292 -52.896,0 l -24.221,23.34 c -24.88,23.975 -44.349,52.254 -57.866,84.052 -13.518,31.798 -20.371,65.44 -20.371,99.991 v 58.072 H 97.571 c -16.744,0 -30.367,13.622 -30.367,30.367 v 33.151 C 24.481,377.397 0,430.188 0,486.239 v 11.884 c 0,6.862 5.583,12.445 12.445,12.445 h 28.838 c 4.124,0 7.467,-3.343 7.467,-7.467 0,-4.124 -3.343,-7.467 -7.467,-7.467 H 14.934 v -9.395 c 0,-47.27 18.887,-92.032 52.27,-124.911 v 118.873 c 0,16.744 13.622,30.367 30.367,30.367 h 401.983 c 6.862,0 12.445,-5.583 12.445,-12.445 V 486.239 C 512,430.327 487.639,377.66 445.112,341.396 Z m -75.14,-63.791 h -46.085 c 10.39,-14.276 16.154,-31.632 16.154,-49.508 v -30.113 l 29.645,9.992 c 0.185,3.843 0.286,69.629 0.286,69.629 z m -86.892,-98.819 0.171,0.058 c -1.521,2.123 -2.426,4.718 -2.426,7.529 0,7.155 5.801,12.956 12.956,12.956 7.027,0 12.734,-5.598 12.937,-12.576 l 18.39,6.198 v 35.146 c 0,18.618 -7.614,36.54 -20.926,49.508 h -96.363 c -13.306,-12.962 -20.925,-30.909 -20.925,-49.508 v -35.146 l 16.637,-5.607 c 0.498,6.7 6.079,11.985 12.907,11.985 7.155,0 12.956,-5.8 12.956,-12.956 0,-2.599 -0.773,-5.013 -2.09,-7.041 l 1.617,-0.545 c 17.461,-5.887 36.696,-5.886 54.159,-0.001 z m -140.763,29.189 29.641,-9.99 v 30.113 c 0,17.858 5.767,35.229 16.156,49.508 h -46.087 c 0.001,-10e-4 0.102,-65.787 0.29,-69.631 z m 354.749,287.659 h -56.499 c 2.682,-4.526 4.229,-9.801 4.229,-15.432 V 450.98 c 0,-4.124 -3.343,-7.467 -7.467,-7.467 -4.124,0 -7.467,3.343 -7.467,7.467 v 29.221 c 0,8.509 -6.923,15.432 -15.432,15.432 H 97.571 c -8.509,0 -15.432,-6.923 -15.432,-15.432 V 307.972 c 0,-8.509 6.923,-15.432 15.432,-15.432 h 316.858 c 8.509,0 15.432,6.923 15.433,15.503 l 0.996,106.032 c 0.039,4.1 3.374,7.396 7.465,7.396 h 0.072 c 4.123,-0.039 7.435,-3.414 7.396,-7.538 l -0.484,-52.089 c 33.061,32.829 51.76,77.369 51.76,124.395 v 9.395 z"
         id="path3849" />
      <path
         d="m 237.736,252.039 h 36.528 c 4.124,0 7.467,-3.343 7.467,-7.467 0,-4.124 -3.343,-7.467 -7.467,-7.467 h -36.528 c -4.124,0 -7.467,3.343 -7.467,7.467 0,4.123 3.343,7.467 7.467,7.467 z"
         id="path3851" />
      <path
         d="m 453.613,132.922 h 3.855 v 45.502 c 0,4.124 3.343,7.467 7.467,7.467 4.124,0 7.467,-3.343 7.467,-7.467 v -52.969 c 0,-4.124 -3.343,-7.467 -7.467,-7.467 h -11.322 c -4.124,0 -7.467,3.343 -7.467,7.467 0,4.124 3.343,7.467 7.467,7.467 z"
         id="path3853" />
      <path
         d="m 402.398,176.022 c 0,4.124 3.343,7.467 7.467,7.467 h 3.855 v 45.502 c 0,4.124 3.343,7.467 7.467,7.467 4.124,0 7.467,-3.343 7.467,-7.467 v -52.969 c 0,-4.124 -3.343,-7.467 -7.467,-7.467 h -11.322 c -4.124,0 -7.467,3.343 -7.467,7.467 z"
         id="path3855" />
      <path
         d="m 39.64,314.636 c 4.124,0 7.467,-3.343 7.467,-7.467 V 254.2 c 0,-4.124 -3.343,-7.467 -7.467,-7.467 H 28.318 c -4.124,0 -7.467,3.343 -7.467,7.467 0,4.124 3.343,7.467 7.467,7.467 h 3.855 v 45.502 c 0,4.124 3.343,7.467 7.467,7.467 z"
         id="path3857" />
      <path
         d="m 92.174,36.452 h 3.855 v 45.502 c 0,4.124 3.343,7.467 7.467,7.467 4.124,0 7.467,-3.343 7.467,-7.467 V 28.985 c 0,-4.124 -3.343,-7.467 -7.467,-7.467 H 92.174 c -4.124,0 -7.467,3.343 -7.467,7.467 0,4.124 3.343,7.467 7.467,7.467 z"
         id="path3859" />
      <path
         d="m 397.063,87.749 c 12.563,0 22.784,-10.221 22.784,-22.785 V 40.469 c 0,-12.563 -10.221,-22.785 -22.784,-22.785 -12.563,0 -22.785,10.221 -22.785,22.785 v 24.496 c 10e-4,12.563 10.222,22.784 22.785,22.784 z m -7.85,-47.28 c 0,-4.329 3.522,-7.85 7.85,-7.85 4.328,0 7.85,3.522 7.85,7.85 v 24.496 c 0,4.329 -3.522,7.85 -7.85,7.85 -4.329,0 -7.85,-3.522 -7.85,-7.85 z"
         id="path3861" />
      <path
         d="m 466.223,256.466 v 24.496 c 0,12.563 10.221,22.784 22.785,22.784 12.564,0 22.784,-10.221 22.784,-22.784 v -24.496 c 0,-12.563 -10.221,-22.784 -22.784,-22.784 -12.563,0 -22.785,10.22 -22.785,22.784 z m 14.935,0 c 0,-4.329 3.522,-7.85 7.85,-7.85 4.328,0 7.85,3.521 7.85,7.85 v 24.496 c 0,4.328 -3.522,7.85 -7.85,7.85 -4.329,0 -7.85,-3.522 -7.85,-7.85 z"
         id="path3863" />
      <path
         d="m 22.965,141.954 c 12.563,0 22.785,-10.221 22.785,-22.784 V 94.674 C 45.75,82.111 35.529,71.89 22.965,71.89 10.401,71.89 0.181,82.11 0.181,94.674 v 24.496 c 0,12.564 10.221,22.784 22.784,22.784 z m -7.85,-47.28 c 0,-4.329 3.522,-7.85 7.85,-7.85 4.328,0 7.85,3.521 7.85,7.85 v 24.496 c 0,4.328 -3.522,7.85 -7.85,7.85 -4.328,0 -7.85,-3.522 -7.85,-7.85 z"
         id="path3865" />
      <path
         d="m 75.565,204.296 c 12.563,0 22.785,-10.221 22.785,-22.785 v -24.496 c 0,-12.563 -10.221,-22.785 -22.785,-22.785 -12.564,0 -22.784,10.221 -22.784,22.785 v 24.496 c 0,12.564 10.22,22.785 22.784,22.785 z m -7.85,-47.281 c 0,-4.329 3.522,-7.85 7.85,-7.85 4.329,0 7.85,3.522 7.85,7.85 v 24.496 c 0,4.329 -3.522,7.85 -7.85,7.85 -4.328,0 -7.85,-3.522 -7.85,-7.85 z"
         id="path3867" />
    </g>
  </g>
</svg>
