<?xml version="1.0" encoding="UTF-8" standalone="no"?>
<svg
   xmlns:dc="http://purl.org/dc/elements/1.1/"
   xmlns:cc="http://creativecommons.org/ns#"
   xmlns:rdf="http://www.w3.org/1999/02/22-rdf-syntax-ns#"
   xmlns:svg="http://www.w3.org/2000/svg"
   xmlns="http://www.w3.org/2000/svg"
   xmlns:sodipodi="http://sodipodi.sourceforge.net/DTD/sodipodi-0.dtd"
   xmlns:inkscape="http://www.inkscape.org/namespaces/inkscape"
   sodipodi:docname="card.svg"
   inkscape:version="1.0 (4035a4f, 2020-05-01)"
   id="svg114330"
   version="1.1"
   viewBox="0 0 210 297"
   height="297mm"
   width="210mm">
  <defs
     id="defs114324" />
  <sodipodi:namedview
     inkscape:window-maximized="0"
     inkscape:window-y="23"
     inkscape:window-x="0"
     inkscape:window-height="829"
     inkscape:window-width="1440"
     showgrid="false"
     inkscape:document-rotation="0"
     inkscape:current-layer="layer1"
     inkscape:document-units="mm"
     inkscape:cy="314.73803"
     inkscape:cx="485.93335"
     inkscape:zoom="0.97442537"
     inkscape:pageshadow="2"
     inkscape:pageopacity="0.0"
     borderopacity="1.0"
     bordercolor="#666666"
     pagecolor="#ffffff"
     id="base" />
  <metadata
     id="metadata114327">
    <rdf:RDF>
      <cc:Work
         rdf:about="">
        <dc:format>image/svg+xml</dc:format>
        <dc:type
           rdf:resource="http://purl.org/dc/dcmitype/StillImage" />
        <dc:title></dc:title>
      </cc:Work>
    </rdf:RDF>
  </metadata>
  <g
     id="layer1"
     inkscape:groupmode="layer"
     inkscape:label="Layer 1">
    <rect
       ry="5"
       rx="5"
       y="43.714203"
       x="74.314148"
       height="88.900002"
       width="63.5"
       id="rect114893"
       style="fill:none;fill-rule:evenodd;stroke-width:2.5;stroke:#000000;stroke-opacity:1;stroke-miterlimit:4;stroke-dasharray:none" />
    <g
       transform="matrix(0.1953125,0,0,0.1953125,93.564148,49.622567)"
       id="g116794">
      <path
         d="M 121.25,7.374 H 6.75 A 6.758,6.758 0 0 0 0,14.124 v 85.528 a 6.233,6.233 0 0 0 6.226,6.226 h 65.49 a 24.246,24.246 0 0 0 44.617,0 h 5.441 A 6.233,6.233 0 0 0 128,99.652 V 14.124 a 6.758,6.758 0 0 0 -6.75,-6.75 z M 3.5,14.124 a 3.254,3.254 0 0 1 3.25,-3.25 h 114.5 a 3.254,3.254 0 0 1 3.25,3.25 V 26.249 H 3.5 Z m 90.524,103 A 20.748,20.748 0 0 1 79.616,81.447 h 28.816 A 20.748,20.748 0 0 1 94.024,117.126 Z M 104.065,74.05 a 3.254,3.254 0 0 1 3.25,3.25 v 0.645 H 80.732 V 77.3 a 3.254,3.254 0 0 1 3.25,-3.25 z m 20.435,25.6 a 2.729,2.729 0 0 1 -2.726,2.726 h -4.253 A 24.235,24.235 0 0 0 110.815,78.892 V 77.3 a 6.758,6.758 0 0 0 -6.75,-6.75 h -8.291 v -1.9 a 6.742,6.742 0 0 1 3.969,-6.137 1.7502738,1.7502738 0 0 0 -1.437,-3.192 10.249,10.249 0 0 0 -6.032,9.329 v 1.9 h -8.292 a 6.758,6.758 0 0 0 -6.75,6.75 v 1.592 a 24.236,24.236 0 0 0 -6.7,23.484 H 6.226 A 2.729,2.729 0 0 1 3.5,99.652 v -69.9 h 121 z"
         id="path116770" />
      <path
         d="M 118.25,16.812 H 49.687 a 1.75,1.75 0 0 0 0,3.5 h 68.563 a 1.75,1.75 0 0 0 0,-3.5 z"
         id="path116772" />
      <path
         d="M 14.377,16.812 H 9.75 a 1.75,1.75 0 0 0 0,3.5 h 4.627 a 1.75,1.75 0 0 0 0,-3.5 z"
         id="path116774" />
      <path
         d="m 27.689,16.812 h -4.627 a 1.75,1.75 0 0 0 0,3.5 h 4.627 a 1.75,1.75 0 0 0 0,-3.5 z"
         id="path116776" />
      <path
         d="m 41,16.812 h -4.625 a 1.75,1.75 0 0 0 0,3.5 H 41 a 1.75,1.75 0 0 0 0,-3.5 z"
         id="path116778" />
      <path
         d="m 99.024,55.421 a 1.749,1.749 0 0 0 1.75,-1.75 v -3.688 a 1.75,1.75 0 0 0 -3.5,0 v 3.688 a 1.75,1.75 0 0 0 1.75,1.75 z"
         id="path116780" />
      <path
         d="m 104.152,57.545 a 1.744,1.744 0 0 0 1.238,-0.513 L 108,54.425 a 1.7500893,1.7500893 0 0 0 -2.475,-2.475 l -2.607,2.608 a 1.75,1.75 0 0 0 1.237,2.987 z"
         id="path116782" />
      <path
         d="m 104.527,60.924 a 1.75,1.75 0 0 0 1.75,1.75 h 3.688 a 1.75,1.75 0 0 0 0,-3.5 h -3.688 a 1.75,1.75 0 0 0 -1.75,1.75 z"
         id="path116784" />
      <path
         d="m 13.5,61.868 h 7.876 a 5.756,5.756 0 0 0 5.75,-5.75 v -10.3 a 5.756,5.756 0 0 0 -5.75,-5.75 H 13.5 a 1.75,1.75 0 0 0 -1.75,1.75 v 18.3 a 1.749,1.749 0 0 0 1.75,1.75 z m 1.75,-18.3 h 6.126 a 2.253,2.253 0 0 1 2.25,2.25 v 10.3 a 2.253,2.253 0 0 1 -2.25,2.25 H 15.25 Z"
         id="path116786" />
      <path
         d="m 32.751,61.868 h 7.876 a 5.756,5.756 0 0 0 5.75,-5.75 v -10.3 a 5.756,5.756 0 0 0 -5.75,-5.75 H 32.751 A 1.75,1.75 0 0 0 31,41.819 v 18.3 a 1.749,1.749 0 0 0 1.751,1.749 z m 1.75,-18.3 h 6.126 a 2.253,2.253 0 0 1 2.25,2.25 v 10.3 a 2.253,2.253 0 0 1 -2.25,2.25 H 34.5 Z"
         id="path116788" />
      <path
         d="m 55,61.868 h 2.25 A 4.756,4.756 0 0 0 62,57.118 v -5.784 a 4.756,4.756 0 0 0 -4.75,-4.75 H 55 a 4.756,4.756 0 0 0 -4.75,4.75 v 5.784 A 4.756,4.756 0 0 0 55,61.868 Z M 53.75,51.334 A 1.252,1.252 0 0 1 55,50.084 h 2.25 a 1.252,1.252 0 0 1 1.25,1.25 v 5.784 a 1.251,1.251 0 0 1 -1.25,1.25 H 55 a 1.251,1.251 0 0 1 -1.25,-1.25 z"
         id="path116790" />
      <path
         d="m 76.328,58.368 h -7.876 a 1.75,1.75 0 0 0 0,3.5 h 7.876 a 5.756,5.756 0 0 0 5.75,-5.75 v -5.149 a 1.749,1.749 0 0 0 -1.75,-1.75 H 70.2 v -3.4 a 2.253,2.253 0 0 1 2.25,-2.25 h 7.876 a 1.75,1.75 0 0 0 0,-3.5 h -7.874 a 5.756,5.756 0 0 0 -5.75,5.75 v 5.15 a 1.749,1.749 0 0 0 1.75,1.75 h 10.126 v 3.4 a 2.253,2.253 0 0 1 -2.25,2.249 z"
         id="path116792" />
    </g>
  </g>
</svg>
