<?xml version="1.0" encoding="UTF-8" standalone="no"?>
<svg
   xmlns:dc="http://purl.org/dc/elements/1.1/"
   xmlns:cc="http://creativecommons.org/ns#"
   xmlns:rdf="http://www.w3.org/1999/02/22-rdf-syntax-ns#"
   xmlns:svg="http://www.w3.org/2000/svg"
   xmlns="http://www.w3.org/2000/svg"
   xmlns:sodipodi="http://sodipodi.sourceforge.net/DTD/sodipodi-0.dtd"
   xmlns:inkscape="http://www.inkscape.org/namespaces/inkscape"
   width="210mm"
   height="297mm"
   viewBox="0 0 210 297"
   version="1.1"
   id="svg8"
   inkscape:version="1.0 (4035a4f, 2020-05-01)"
   sodipodi:docname="5_6.svg"
   inkscape:export-filename="/Users/adamjenkins/InkSpace/Version3.0/Tokens/5_6.png"
   inkscape:export-xdpi="300"
   inkscape:export-ydpi="300">
  <defs
     id="defs2">
    <clipPath
       clipPathUnits="userSpaceOnUse"
       id="clipPath1774">
      <path
         id="path1776"
         style="fill:#ff0000;fill-opacity:1;fill-rule:nonzero;stroke:none;stroke-width:0.264583"
         d="M 77.368921,97.024052 V 147.02358 H 127.36897 V 97.024052 Z m 25.180889,17.330208 c 0.16897,-0.002 0.19901,0.19084 -0.008,0.25218 -0.0275,0.009 -0.0116,0.003 -0.0481,0.0155 -0.0282,0.007 -0.0563,0.0168 -0.0847,0.0227 -0.0161,0.003 -0.0326,-0.002 -0.0491,-0.003 -0.031,-0.002 -0.0459,-0.002 -0.0455,-0.005 -0.0183,0.003 -0.004,-2.7e-4 -0.0444,0.0145 -0.0419,0.0155 -0.0252,0.007 -0.0806,0.0238 -0.002,7.9e-4 -0.002,7.9e-4 -0.004,0.002 -0.001,0.0697 -0.11419,0.0214 -0.14625,0.0289 -0.0426,0.0102 -0.0796,0.0388 -0.12505,0.0408 -0.0341,0.0104 -0.0684,0.0201 -0.10232,0.031 -0.0228,0.007 -0.0503,0.0364 -0.0687,0.0269 -0.003,10e-4 -0.006,0.002 -0.008,0.004 -0.0266,0.0162 -0.0552,0.0293 -0.0827,0.0439 -0.0326,0.009 -0.0645,0.0203 -0.0977,0.0263 -0.0807,0.0159 -0.16413,0.001 -0.24443,0.0238 -0.002,-0.004 -0.004,-0.009 -0.006,-0.0134 5.3e-4,0.005 0.003,0.009 0.003,0.0134 0.001,0.0248 -0.0441,0.0236 -0.0672,0.0326 -0.0674,0.0263 -0.13651,0.0396 -0.2067,0.0563 -0.17751,0.0411 -0.35347,0.0864 -0.53124,0.12609 -0.0278,0.005 -0.0561,0.01 -0.0837,0.0155 -0.0645,0.014 -0.0489,0.0191 -0.12196,0.0295 -0.0388,0.006 -0.0948,-0.005 -0.13281,0.0129 -0.0275,0.004 -0.0545,0.009 -0.0822,0.0109 -0.0431,0.003 -0.08683,-0.006 -0.129705,0.005 -0.09442,0.009 -0.133072,0.0183 -0.232542,0.0243 -0.02674,0.002 -0.05331,4e-5 -0.0801,0 0.02783,-0.041 0.132249,-0.12999 0.0832,-0.12299 -0.05567,0.008 -0.06788,0.0905 -0.110588,0.12713 -0.02148,0.0184 -0.178615,-0.0136 -0.203605,-0.0176 v 0.001 c -0.243522,-0.0416 -0.197638,-0.23203 0.04909,-0.24443 0.03664,-0.002 0.07025,0.0146 0.105937,0.0186 7.93e-4,0 0.0258,-0.0112 0.02119,-0.005 -0.104415,0.12831 -0.216234,0.20678 0.04444,-0.005 0.126952,0.007 0.251362,-0.0239 0.377753,-0.0289 0.11594,-0.005 0.0351,0.007 0.12092,-0.009 0.0552,-0.0167 0.1133,-0.011 0.1695,-0.016 10e-4,0 -0.004,-0.004 -0.002,-0.005 0.0185,-0.007 0.0381,-0.012 0.0574,-0.016 0.0345,-0.008 0.0692,-0.0126 0.10387,-0.0196 0.17421,-0.0392 0.34688,-0.0837 0.5209,-0.12402 0.0626,-0.0148 0.12655,-0.0265 0.18655,-0.0506 0.0103,-0.004 0.0244,-0.0276 0.0284,-0.0171 0.0255,0.076 0.0272,0.15816 0.0455,0.23616 5.3e-4,0.003 0.0101,0.002 0.0103,-5.3e-4 0.003,-0.0488 0.004,-0.0978 0.005,-0.14676 -0.015,-0.0333 -0.0317,-0.0658 -0.0439,-0.10025 -0.002,-0.006 0.0166,-0.008 0.0186,-0.002 0.008,0.0199 0.0173,0.04 0.0263,0.06 5.3e-4,-0.0228 10e-4,-0.0455 0.002,-0.0682 0.0618,-0.007 0.12478,-0.0252 0.18758,-0.0222 0.0148,0.001 0.0292,0.005 0.0439,0.004 0.0101,-0.001 0.0194,-0.006 0.0294,-0.009 0.0228,-0.007 0.0454,-0.0137 0.0682,-0.0207 0.0248,-0.02 0.0175,-0.013 0.0294,-0.0259 5.3e-4,-5.3e-4 0.001,-5.3e-4 0.002,-0.001 0.001,-10e-4 0.001,-0.003 0.003,-0.004 0.0232,-0.016 0.0435,-0.003 0.0625,0.0181 -0.005,-0.0121 -0.0124,-0.0247 -0.0129,-0.0357 -0.001,-0.0218 0.0412,-0.0147 0.062,-0.0217 0.0367,-0.0118 0.0738,-0.0223 0.11059,-0.0336 0.0248,-0.007 0.0499,-0.0137 0.0744,-0.0217 0.0695,-0.0227 0.002,-0.0172 0.12247,-0.0279 0.002,-2.2e-4 0.006,-5.3e-4 0.009,-0.001 0.006,-0.0143 0.04,-0.0113 0.0584,-0.0176 0.05,-0.016 0.10226,-0.0325 0.15296,-0.0465 -0.0649,0.0244 -0.0135,0.003 0.0687,-0.004 0.0158,-10e-4 0.0317,0.002 0.0475,0.003 0.0118,0.001 0.0233,0.002 0.0351,0.002 0.003,1.7e-4 0.0133,0.001 0.0104,5.3e-4 -0.007,-0.001 -0.0142,-0.002 -0.0222,-0.003 0.0534,-0.0192 0.0295,-0.0113 0.0718,-0.0243 0.0295,-0.009 0.0565,-0.0132 0.0806,-0.0134 z m -0.57619,0.12196 c -0.005,-0.005 0.0355,0.0329 0.13539,0.19326 -0.002,-0.008 -0.005,-0.0206 -0.008,-0.0341 -0.016,-0.0353 -0.0267,-0.0717 -0.0382,-0.10801 -0.005,-0.0134 -0.008,-0.0228 -0.015,-0.0382 -0.0404,0.013 -0.0698,-0.009 -0.0739,-0.0129 z m 0.15038,0.216 c 0.002,0.003 0.002,0.003 0.004,0.006 -5.3e-4,-0.002 -0.002,-0.003 -0.002,-0.005 -7.9e-4,3e-5 -0.001,-7.9e-4 -0.002,-10e-4 z m -0.46044,0.031 c 0.0159,0.0486 0.0357,0.0846 0.0708,0.076 -0.02,-0.0202 -0.046,-0.0487 -0.0708,-0.076 z" />
    </clipPath>
    <clipPath
       clipPathUnits="userSpaceOnUse"
       id="clipPath1784">
      <path
         id="path1786"
         style="fill:#ff0000;fill-opacity:1;fill-rule:nonzero;stroke:none;stroke-width:3.62857"
         d="M 127.07797,16.000487 V 495.99947 H 496.0016 V 16.000487 Z M 258.47903,150.81748 c 2.31731,-0.0218 2.72919,2.61728 -0.11322,3.45846 -0.37711,0.11793 -0.15856,0.041 -0.65909,0.21263 -0.38673,0.1016 -0.77278,0.22969 -1.16227,0.3117 -0.22098,0.041 -0.44696,-0.029 -0.67328,-0.0425 -0.42469,-0.0254 -0.62912,-0.0254 -0.62364,-0.0639 -0.2511,0.0439 -0.0533,-0.004 -0.60949,0.19848 -0.57462,0.21264 -0.3458,0.09 -1.10559,0.32621 -0.029,0.0109 -0.029,0.0109 -0.0566,0.0218 -0.0145,0.95581 -1.56594,0.29392 -2.00565,0.39686 -0.58449,0.1397 -1.09242,0.53246 -1.71505,0.55989 -0.46685,0.1426 -0.93835,0.27577 -1.40324,0.42523 -0.31278,0.10088 -0.68903,0.49969 -0.94259,0.36852 -0.0363,0.0145 -0.0791,0.0327 -0.10632,0.0497 -0.36482,0.22207 -0.75681,0.40219 -1.13393,0.60242 -0.44711,0.12083 -0.88414,0.27903 -1.33949,0.3614 -1.10722,0.21808 -2.25091,0.0145 -3.35214,0.32585 -0.0254,-0.0613 -0.0508,-0.12337 -0.078,-0.18433 0.007,0.0628 0.0396,0.12083 0.0425,0.18433 0.0181,0.33999 -0.60452,0.32294 -0.92133,0.44649 -0.92402,0.36068 -1.87209,0.54345 -2.83479,0.77249 -2.4343,0.56323 -4.84751,1.18476 -7.28552,1.72923 -0.38125,0.07 -0.76958,0.13027 -1.14808,0.21264 -0.88446,0.19195 -0.67005,0.26125 -1.67255,0.40396 -0.53224,0.0824 -1.30023,-0.0628 -1.82136,0.17708 -0.37715,0.0533 -0.74698,0.12156 -1.12685,0.14877 -0.59171,0.041 -1.19094,-0.0882 -1.77887,0.0708 -1.29486,0.12736 -1.82499,0.25073 -3.18916,0.3331 -0.36674,0.0254 -0.73108,5.8e-4 -1.09851,0 0.38169,-0.56228 1.81371,-1.78272 1.14104,-1.6867 -0.76341,0.11176 -0.93091,1.24147 -1.51663,1.74341 -0.29464,0.25219 -2.44958,-0.18614 -2.7923,-0.24093 v 0.0145 c -3.33973,-0.56997 -2.71047,-3.18211 0.67325,-3.35218 0.50248,-0.0254 0.96338,0.2003 1.45284,0.25509 0.0109,0 0.35379,-0.15313 0.29065,-0.0708 -1.43198,1.75968 -2.96549,2.83587 0.60949,-0.0708 1.74106,0.0973 3.44725,-0.32838 5.18066,-0.39685 1.59,-0.0686 0.48165,0.0907 1.65836,-0.12047 0.75743,-0.22896 1.55379,-0.15131 2.32454,-0.21953 0.0145,0 -0.0559,-0.0555 -0.029,-0.0639 0.25364,-0.0933 0.52197,-0.16474 0.78667,-0.21953 0.47313,-0.10414 0.94859,-0.17345 1.42447,-0.26924 2.3892,-0.53732 4.7572,-1.14819 7.14375,-1.70089 0.85798,-0.20284 1.73558,-0.36402 2.55844,-0.69451 0.14115,-0.0563 0.33491,-0.37788 0.38978,-0.23405 0.34979,1.04177 0.37269,2.16909 0.62368,3.23879 0.007,0.0439 0.13824,0.0327 0.14187,-0.007 0.0468,-0.66929 0.0515,-1.34174 0.0639,-2.01274 -0.20538,-0.45712 -0.43551,-0.90264 -0.60242,-1.3749 -0.029,-0.0824 0.22787,-0.11067 0.25509,-0.029 0.11539,0.27251 0.23694,0.5481 0.3614,0.82209 0.007,-0.31205 0.0181,-0.62357 0.029,-0.93548 0.84727,-0.0947 1.71135,-0.3458 2.57259,-0.3048 0.20283,0.0145 0.40081,0.07 0.60241,0.0566 0.13861,-0.0145 0.2667,-0.0795 0.40397,-0.12047 0.31278,-0.0933 0.62281,-0.1876 0.93548,-0.28339 0.34036,-0.2736 0.23985,-0.17817 0.40397,-0.35451 0.007,-0.007 0.0145,-0.007 0.0218,-0.0145 0.0181,-0.0145 0.0145,-0.0363 0.0363,-0.0497 0.31786,-0.21953 0.59679,-0.0446 0.85754,0.24819 -0.065,-0.16582 -0.16982,-0.33854 -0.17707,-0.48902 -0.0145,-0.29936 0.56518,-0.20175 0.85046,-0.29754 0.50343,-0.16184 1.01194,-0.30553 1.51663,-0.46065 0.34,-0.0987 0.68453,-0.18796 1.02054,-0.29754 0.95355,-0.31133 0.029,-0.23586 1.67963,-0.38271 0.029,-0.003 0.0835,-0.007 0.12047,-0.0145 0.0849,-0.19558 0.54806,-0.1553 0.80082,-0.24094 0.68573,-0.21953 1.40248,-0.44584 2.09779,-0.63783 -0.88951,0.33456 -0.1847,0.0392 0.94256,-0.0566 0.21662,-0.0145 0.43532,0.029 0.65201,0.0425 0.16184,0.0145 0.32004,0.0218 0.48192,0.029 0.0468,0.002 0.18288,0.0181 0.14187,0.007 -0.1016,-0.0145 -0.19521,-0.029 -0.3048,-0.0425 0.73236,-0.26343 0.40499,-0.15494 0.98512,-0.3331 0.40484,-0.12446 0.77452,-0.18143 1.10556,-0.18433 z m -7.90205,1.67255 c -0.0711,-0.0711 0.48688,0.45089 1.85681,2.65053 -0.0254,-0.11031 -0.0689,-0.28194 -0.11321,-0.46773 -0.21989,-0.48419 -0.36562,-0.98388 -0.52444,-1.48118 -0.0718,-0.18324 -0.11248,-0.31206 -0.20538,-0.52447 -0.5535,0.1778 -0.95678,-0.12047 -1.01346,-0.17708 z m 2.06233,2.96236 c 0.0254,0.0414 0.0327,0.0363 0.0566,0.078 -0.007,-0.0218 -0.0218,-0.0421 -0.029,-0.0639 -0.0109,4.3e-4 -0.0181,-0.0109 -0.029,-0.0145 z m -6.31458,0.42524 c 0.21771,0.66689 0.48971,1.15965 0.97093,1.0418 -0.27396,-0.27723 -0.63054,-0.66784 -0.97093,-1.0418 z" />
    </clipPath>
    <clipPath
       clipPathUnits="userSpaceOnUse"
       id="clipPath1830">
      <path
         id="path1832"
         style="fill:#ff0000;fill-opacity:1;fill-rule:nonzero;stroke:none;stroke-width:3.62857"
         d="M 16.002582,16.000487 V 495.99947 H 496.0016 V 16.000487 Z M 279.73313,152.83021 c 1.40498,-0.0559 2.32112,0.36804 2.84897,0.95674 2.00294,0.72528 1.29311,3.66747 -2.16154,4.50734 -2.10283,0.51141 -4.24336,0.88784 -6.30747,1.5379 -0.23332,0.0733 -0.47426,0.17236 -0.70873,0.24819 0.93878,1.37019 -0.0327,3.29685 -2.99782,3.22461 -1.79281,-0.0443 -3.58971,-0.007 -5.38614,0.0145 -3.70234,1.69037 -7.26865,3.70368 -10.29749,6.187 -0.13861,0.17127 -0.26743,0.35125 -0.41816,0.51025 -0.35777,0.3744 -0.74763,0.71701 -1.10555,1.09144 -1.6563,1.72753 -3.25534,3.51221 -4.86882,5.27983 -3.03718,3.32711 -6.40312,0.26561 -3.36637,-3.06161 2.26492,-2.48118 4.54733,-4.95608 6.8957,-7.35635 1.40872,-1.12917 2.89974,-2.13871 4.42236,-3.09706 -1.29845,-0.18578 -2.59334,-0.38738 -3.86954,-0.67324 -2.29174,0.59066 -4.61036,1.04405 -6.83903,1.89223 -0.9951,0.37853 -1.95961,0.83798 -2.91276,1.31111 -0.47179,0.2344 -1.23731,1.32221 -1.36071,0.80794 -0.15785,-0.68918 0.75539,-1.19645 1.13393,-1.79306 2.41096,-3.7985 -6.59181,4.10046 -4.54991,0.0849 0.37716,-0.73947 0.57143,-1.60107 1.12686,-2.21826 0.46217,-0.5129 1.17888,-0.72589 1.80009,-1.02761 0.87271,-0.42411 1.76676,-0.8021 2.66475,-1.16934 -0.0363,-0.004 -0.0697,-0.0109 -0.10631,-0.0145 -0.19195,-0.029 -0.75097,0.0254 -0.57404,-0.0566 0.31133,-0.13644 0.669,-0.10051 1.00635,-0.14188 4.46223,-0.61617 -6.13795,-3.53267 -1.68671,-4.22387 0.36068,-0.0577 0.71243,-0.13571 1.07721,-0.16293 0.23441,-0.0145 0.47419,0.0363 0.70874,0.0639 1.48416,0.16038 2.96592,0.33201 4.3656,0.89295 1.35752,0.37973 2.72314,0.74789 4.09633,1.08433 0.18071,-0.053 0.36555,-0.0853 0.5457,-0.14188 1.19932,-0.38249 2.40411,-0.74103 3.59312,-1.15516 1.02682,-0.35814 2.01063,-0.83453 3.04746,-1.1623 2.8915,-0.91473 4.55491,-0.95446 7.77447,-1.31111 7.8159,-0.86799 5.05264,-0.6292 12.41653,-0.9213 z m -15.48522,5.87516 c -0.17199,0.0218 -0.34544,0.0388 -0.51736,0.0639 0.12772,-8e-4 0.25509,0.001 0.3827,0 0.0457,-0.0181 0.0889,-0.0443 0.13462,-0.0639 z" />
    </clipPath>
  </defs>
  <sodipodi:namedview
     id="base"
     pagecolor="#ffffff"
     bordercolor="#666666"
     borderopacity="1.0"
     inkscape:pageopacity="0.0"
     inkscape:pageshadow="2"
     inkscape:zoom="2.0189729"
     inkscape:cx="379.99448"
     inkscape:cy="494.20797"
     inkscape:document-units="mm"
     inkscape:current-layer="layer1"
     inkscape:document-rotation="0"
     showgrid="false"
     inkscape:window-width="1252"
     inkscape:window-height="829"
     inkscape:window-x="0"
     inkscape:window-y="23"
     inkscape:window-maximized="0" />
  <metadata
     id="metadata5">
    <rdf:RDF>
      <cc:Work
         rdf:about="">
        <dc:format>image/svg+xml</dc:format>
        <dc:type
           rdf:resource="http://purl.org/dc/dcmitype/StillImage" />
        <dc:title />
      </cc:Work>
    </rdf:RDF>
  </metadata>
  <g
     inkscape:label="Layer 1"
     inkscape:groupmode="layer"
     id="layer1">
    <circle
       style="display:inline;opacity:1;fill:#ffffff;fill-opacity:1;stroke:#000000;stroke-width:1.49267;stroke-miterlimit:4;stroke-dasharray:none"
       id="path833"
       cx="102.36905"
       cy="122.02381"
       r="24.253668"
       clip-path="url(#clipPath1774)" />
    <text
       xml:space="preserve"
       style="font-size:6.35px;line-height:1;font-family:sans-serif;text-align:center;text-anchor:middle;stroke-width:0.264583"
       x="102.36901"
       y="124.04539"
       id="text1854"><tspan
         sodipodi:role="line"
         x="102.36901"
         y="124.04539"
         style="font-size:6.35px;stroke-width:0.264583"
         id="tspan2024">&lt;-&gt;</tspan></text>
    <rect
       style="fill:#000000;fill-rule:evenodd;stroke-width:0.258665"
       id="rect3664"
       width="10"
       height="10"
       x="85.532837"
       y="-127.0238"
       transform="scale(1,-1)" />
    <rect
       transform="scale(1,-1)"
       y="-127.0238"
       x="109.72562"
       height="10"
       width="10"
       id="rect3664-3"
       style="fill:#000000;fill-rule:evenodd;stroke-width:0.258665" />
    <g
       transform="matrix(0.92223037,0,0,0.9126021,-152.19564,118.73708)"
       id="g58049">
      <path
         d="m 289.09255,-0.48220153 a 3.7007297,3.7007297 0 0 0 -3.70054,3.70054943 3.7007297,3.7007297 0 0 0 3.70054,3.7005492 3.7007297,3.7007297 0 0 0 1.2609,-0.221692 1.6644229,1.6644229 0 0 1 -0.31004,-0.966866 1.6644229,1.6644229 0 0 1 1.66449,-1.664498 1.6644229,1.6644229 0 0 1 0.91207,0.2723348 3.7007297,3.7007297 0 0 0 0.17365,-1.119828 3.7007297,3.7007297 0 0 0 -3.70107,-3.70054943 z"
         style="fill:none;fill-opacity:1;stroke:#ff00cc;stroke-width:0.59854;stroke-miterlimit:4;stroke-dasharray:none;stroke-opacity:1"
         id="path57393-9" />
      <path
         id="path5311-4-4"
         d="m 290.36872,4.5652951 c 0.3273,-0.321028 0.78059,-0.5200671 1.28078,-0.5200671 0.33701,0 0.65966,0.08883 0.94267,0.2582211 0.0934,-0.316221 0.14055,-0.6441389 0.14055,-0.9769361 0,-1.9470579 -1.62698,-3.53109396 -3.62678,-3.53109396 -1.99979,0 -3.62676,1.58403606 -3.62676,3.53109396 0,1.9470492 1.62697,3.5310842 3.62676,3.5310842 0.208,0 0.41652,-0.017219 0.6198,-0.05138 0.0656,-0.011121 0.12774,0.03184 0.13903,0.09555 0.0111,0.06389 -0.0326,0.124382 -0.0981,0.1353802 -0.2167,0.03626 -0.43898,0.05469 -0.66063,0.05469 -1.03306,0 -2.00428,-0.391667 -2.73474,-1.1028911 -0.73048,-0.7111913 -1.13276,-1.6567883 -1.13276,-2.6625682 0,-1.0057771 0.40228,-1.951364 1.13276,-2.66256706 0.73046,-0.71121301 1.70168,-1.10288 2.73474,-1.10288 1.03304,0 2.00425,0.39166699 2.73474,1.10288 0.73049,0.71120306 1.13277,1.65678996 1.13277,2.66256706 0,0.4100459 -0.0672,0.813232 -0.20001,1.1984101 -8.2e-4,0.0049 -0.003,0.009 -0.004,0.012819 -0.005,0.013719 -0.0153,0.025641 -0.0257,0.03546 -0.0417,0.03936 -0.1079,0.04457 -0.15582,0.01007 -0.27207,-0.1984269 -0.59613,-0.3033091 -0.93716,-0.3033091 -0.86271,0 -1.56463,0.683369 -1.56463,1.523361 0,0.8400021 0.70192,1.523382 1.56463,1.523382 0.86276,0 1.5647,-0.6833799 1.5647,-1.523382 0,-0.262096 -0.0678,-0.5157988 -0.19757,-0.7416498 l -1.41288,1.3755629 c -0.0472,0.04577 -0.12322,0.04577 -0.17021,0 l -0.80668,-0.7853769 c -0.0471,-0.04577 -0.0471,-0.119966 0,-0.1657371 0.0471,-0.04577 0.12323,-0.04577 0.1702,0 l 0.72156,0.7025291 1.73081,-1.685112 c 0.0471,-0.04567 0.12316,-0.04567 0.17019,0 0.0471,0.04577 0.0471,0.1199658 0,0.1657358 l -0.22709,0.2210631 c 0.17197,0.274706 0.26233,0.588323 0.26233,0.912985 0,0.969223 -0.80984,1.7577462 -1.80536,1.7577462 -0.99547,0 -1.80532,-0.7885232 -1.80532,-1.7577462 0,-0.101868 0.008,-0.2016918 0.026,-0.2988529 -0.12739,0.019021 -0.26161,0.02845 -0.40092,0.02845 -0.75949,0 -1.06127,-0.3666191 -1.20628,-0.5428112 -0.0111,-0.01302 -0.0232,-0.02794 -0.0334,-0.03996 -0.006,0.0031 -0.0158,0.007 -0.0233,0.009 -0.0948,0.03896 -0.25368,0.103951 -0.53627,0.103951 -0.0664,0 -0.12034,-0.05239 -0.12034,-0.1171821 0,-0.06469 0.0538,-0.1171919 0.12034,-0.1171919 0.23398,0 0.35972,-0.05148 0.44292,-0.08563 0.0623,-0.025339 0.12046,-0.04937 0.18712,-0.02935 0.059,0.01773 0.0976,0.0645 0.15071,0.1291608 0.13094,0.1590262 0.37455,0.455005 1.01846,0.455005 0.16462,0 0.32071,-0.01442 0.46458,-0.04306 0.0257,-0.07642 0.057,-0.1504741 0.0928,-0.221895 -0.11631,0.03616 -0.25116,0.0603 -0.40378,0.0603 -0.0664,0 -0.12035,-0.05248 -0.12035,-0.1171908 0,-0.0647 0.0542,-0.1171832 0.12035,-0.1171832 0.41754,2.12e-5 0.67905,-0.227121 0.74588,-0.293765 z m -1.26278,1.354849 c -0.50983,0 -0.96549,-0.190966 -1.28314,-0.5376821 -0.044,-0.04828 -0.0399,-0.12237 0.0106,-0.1654468 0.0495,-0.04306 0.1257,-0.03887 0.16995,0.009 0.27136,0.296209 0.66324,0.4593222 1.10352,0.4593222 0.0664,0 0.12035,0.05248 0.12035,0.1171919 0,0.0647 -0.0542,0.1171821 -0.12035,0.1171821 z m 0.10612,-0.8856631 c -0.0121,0 -0.0247,-0.00209 -0.0368,-0.006 -0.28227,-0.088441 -0.51175,-0.2697197 -0.6636,-0.5242949 -0.0594,-0.09996 -0.10745,-0.2115277 -0.14279,-0.3322849 -0.1922,0.3211491 -0.52217,0.472063 -0.83656,0.472063 -0.0664,0 -0.1204,-0.05239 -0.1204,-0.1171729 0,-0.06469 0.054,-0.11719 0.1204,-0.11719 0.28319,0 0.76248,-0.1905961 0.76248,-0.905015 V 2.9248872 c 0,-0.95516 0.41906,-1.295469 0.81128,-1.295469 0.32425,0 0.58457,0.222245 0.71408,0.6097161 0.0206,0.06149 -0.0142,0.1276778 -0.077,0.1476988 -0.0633,0.020029 -0.13114,-0.013621 -0.15169,-0.07512 -0.056,-0.167269 -0.19332,-0.447904 -0.48526,-0.447904 -0.35195,0 -0.57053,0.4065901 -0.57053,1.0611049 v 0.7008072 c 0,0.6077019 0.26006,1.037649 0.71347,1.1796379 0.0635,0.01982 0.098,0.08583 0.0774,0.1474491 -0.0163,0.04968 -0.0639,0.08143 -0.1145,0.08143 z m 0.43529,-0.3901541 c -0.28727,0 -0.52444,-0.1160198 -0.68593,-0.3355509 C 288.8285,4.128096 288.7553,3.88564 288.7553,3.626069 V 2.925261 c 0,-0.3864081 0.0605,-0.847022 0.35064,-0.847022 0.0446,0 0.11158,0.01393 0.17442,0.08012 0.16364,0.172687 0.20623,0.620712 0.17584,0.9881011 -0.004,0.0645 -0.0636,0.1126059 -0.12962,0.1073981 -0.0663,-0.006 -0.11558,-0.06169 -0.11032,-0.1261962 0.017,-0.2059099 0.009,-0.408794 -0.0228,-0.5712759 -0.0297,-0.151425 -0.0706,-0.2188102 -0.0903,-0.2395522 -0.0392,0.03665 -0.10729,0.2155852 -0.10729,0.608353 0,0.4097552 0.12555,0.674506 0.31978,0.674506 0.0892,0 0.36076,0 0.36076,-0.674506 0,-0.07251 -0.002,-0.143202 -0.009,-0.2100048 -0.004,-0.06451 0.044,-0.1209471 0.11044,-0.1260351 0.0661,-0.006 0.12423,0.04306 0.12947,0.1076071 0.005,0.07291 0.008,0.149791 0.008,0.2284429 0,0.7511851 -0.32708,0.9088699 -0.60145,0.9088699 -0.1094,0 -0.22184,-0.03887 -0.31703,-0.1294609 0.0255,0.3627321 0.22888,0.7053041 0.64861,0.7053041 0.24123,0 0.46958,-0.1307431 0.64296,-0.3681521 0.14023,-0.1920068 0.30735,-0.5415889 0.30735,-1.116561 0,-0.5647539 -0.13685,-1.046793 -0.39579,-1.39403 -0.0887,-0.1187949 -0.19049,-0.221253 -0.30273,-0.304563 -0.0529,-0.03926 -0.0632,-0.1127649 -0.0229,-0.1642339 0.0404,-0.05138 0.11586,-0.06129 0.16872,-0.02223 0.13086,0.09715 0.24916,0.2159929 0.35156,0.353257 0.28902,0.3875309 0.44178,0.917172 0.44178,1.5317239 2e-5,1.1285691 -0.59918,1.7190562 -1.19107,1.7190562 z m -0.10783,-0.4135908 c -0.0664,0 -0.12033,-0.05249 -0.12033,-0.1171821 0,-0.06469 0.054,-0.1171919 0.12033,-0.1171919 0.41057,0 0.5976,-0.55523 0.5976,-1.0711201 0,-0.461586 -0.10841,-0.882088 -0.28987,-1.124824 -0.18548,-0.248104 -0.44871,-0.3847359 -0.74129,-0.3847359 -0.29257,0 -0.55583,0.1366319 -0.74127,0.3847359 -0.0922,0.12307 -0.16759,0.29693 -0.21852,0.502769 -0.0156,0.0629 -0.0807,0.1015089 -0.14514,0.08653 -0.0647,-0.015121 -0.10445,-0.07852 -0.0888,-0.1413678 0.0582,-0.2354962 0.1474,-0.4380802 0.25786,-0.5858192 0.23198,-0.3103019 0.56439,-0.4811759 0.93593,-0.4811759 0.37158,0 0.70397,0.170874 0.93593,0.4811549 0.21349,0.285544 0.33593,0.7458181 0.33593,1.2627581 0,0.343504 -0.071,0.6594229 -0.19948,0.88959 -0.14994,0.268206 -0.3768,0.4159039 -0.63882,0.4159039 z m -2.04569,-0.006 c -0.0664,0 -0.12035,-0.05239 -0.12035,-0.117171 0,-0.06469 0.054,-0.1171921 0.12035,-0.1171921 0.21303,0 0.34025,-0.181601 0.34025,-0.4857729 V 2.924971 c 0,-0.07692 0.002,-0.153648 0.009,-0.2283439 0.004,-0.0645 0.0627,-0.1130141 0.12859,-0.1085381 0.0662,0.0049 0.11622,0.06079 0.11149,0.1252439 -0.004,0.0692 -0.006,0.1403872 -0.006,0.2116582 v 0.5797191 c 0,0.5315039 -0.31295,0.7201159 -0.58096,0.7201159 z m 0,-0.4937561 c -0.0664,0 -0.12035,-0.05239 -0.12035,-0.11718 V 2.9249599 c 0,-0.614553 0.15274,-1.1442129 0.44176,-1.5317238 0.31774,-0.42603102 0.77612,-0.66065506 1.29072,-0.66065506 0.18322,0 0.36095,0.02985 0.52826,0.08864 0.0628,0.02204 0.0948,0.08914 0.0725,0.15003204 -0.0227,0.06089 -0.0914,0.09245 -0.15407,0.07041 -0.14102,-0.04957 -0.29125,-0.07462 -0.44653,-0.07462 -0.43546,0 -0.82469,0.20027002 -1.09592,0.56397392 -0.25898,0.347238 -0.39586,0.829285 -0.39586,1.394031 v 0.688938 c 0,0.06469 -0.0538,0.1171511 -0.12034,0.1171511 z"
         style="fill:#ff00cc;stroke-width:0.0158347" />
      <path
         d="m 291.36178,7.5839433 c 0.20505,-0.011163 0.41243,-0.00695 0.61497,-0.046241 0.13976,-0.027113 0.19775,-0.051594 0.32885,-0.09636 0.29102,-0.1284873 0.56669,-0.2949131 0.80881,-0.5014167 0.10073,-0.08591 0.1973,-0.1741447 0.27982,-0.2784522 0.0449,-0.056775 0.082,-0.119302 0.12303,-0.1789531 0.13473,-0.2288788 0.23255,-0.4861729 0.24842,-0.7538458 0.007,-0.1179107 -0.007,-0.171882 -0.0243,-0.2849575 -0.0372,-0.1899841 -0.1319,-0.3544187 -0.24326,-0.5094783 -0.0682,-0.078089 -0.13732,-0.1554482 -0.2064,-0.2328415 0,0 -0.3974,0.2429965 -0.3974,0.2429965 v 0 c 0.0751,0.069471 0.14025,0.149061 0.2092,0.2244344 0.11562,0.142779 0.20235,0.3028614 0.24614,0.4825741 0.019,0.1096356 0.0327,0.1540766 0.0275,0.2691251 -0.0119,0.2617095 -0.1088,0.509142 -0.24569,0.7295243 -0.0428,0.058321 -0.0819,0.119516 -0.12827,0.1749634 -0.0779,0.092976 -0.19106,0.1962679 -0.28496,0.273699 -0.05,0.041277 -0.21868,0.1147532 -0.15394,0.1190866 0.0832,0.00557 0.14838,-0.07589 0.22223,-0.1145157 0.0457,-0.023905 -0.0919,0.046905 -0.1378,0.070357 -0.12943,0.04877 -0.1892,0.076508 -0.32731,0.106117 -0.19161,0.041077 -0.38902,0.038791 -0.58367,0.031165 0,0 -0.37579,0.2730196 -0.37579,0.2730196 z"
         id="path58024"
         style="opacity:0;fill:#ff00ff;fill-opacity:1;stroke:#ff00ff;stroke-width:0.264583;stroke-miterlimit:4;stroke-dasharray:0.264583, 6.35;stroke-dashoffset:0;stroke-opacity:1" />
      <path
         d="m 292.86239,4.9353917 c 0.10401,0.3445462 0.14068,0.7044893 0.16973,1.0617665 0.0225,0.3739941 -0.003,0.7483258 -0.0408,1.1203464 -0.018,0.1266343 -0.033,0.2613834 -0.12594,0.3587572 -0.0883,0.09253 -0.16518,0.1379443 -0.27086,0.212234 0.0455,-0.036575 0.1932,-0.096582 0.13637,-0.1097238 -0.0874,-0.020204 -0.16952,0.059255 -0.2563,0.081996 -0.0862,0.022593 -0.17375,0.040296 -0.26183,0.053811 -0.24908,0.038221 -0.48268,0.029349 -0.73219,0.012256 -0.31866,-0.029735 -0.62965,-0.1213046 -0.90024,-0.296191 -0.1601,-0.1034793 -0.23035,-0.1786892 -0.3674,-0.3053241 -0.13568,-0.127857 -0.24876,-0.2716226 -0.33692,-0.4351496 0,0 -0.39166,0.2266513 -0.39166,0.2266513 v 0 c 0.10363,0.1612551 0.22717,0.3036028 0.37372,0.4284353 0.11192,0.098893 0.25204,0.2290458 0.37597,0.3112823 0.27102,0.1798153 0.58568,0.2793608 0.90699,0.3136022 0.25096,0.015893 0.49644,0.025495 0.74682,-0.00967 0.12006,-0.016859 0.406,-0.074381 0.51866,-0.1251762 0.2005,-0.090405 0.39045,-0.2026365 0.58568,-0.303955 0.10827,-0.079116 0.19815,-0.1351203 0.28707,-0.2362893 0.0902,-0.1026509 0.0955,-0.2460728 0.1056,-0.3741645 0.0206,-0.3726452 0.0467,-0.7462416 0.0238,-1.1194621 -0.0127,-0.1566921 -0.0183,-0.2474129 -0.0373,-0.4032419 -0.0225,-0.1836873 -0.0557,-0.3656955 -0.0828,-0.5486554 -0.006,-0.043314 -0.0109,-0.086887 -0.0164,-0.1303308 0,0 -0.40981,0.2161953 -0.40981,0.2161953 z"
         id="path58026"
         style="opacity:0;fill:#ff00ff;fill-opacity:1;stroke:#ff00ff;stroke-width:0.264583;stroke-miterlimit:4;stroke-dasharray:0.264583, 6.35;stroke-dashoffset:0;stroke-opacity:1" />
    </g>
    <g
       transform="matrix(0.89536183,0,0,0.96127779,-138.78921,124.06733)"
       id="g57796">
      <g
         transform="matrix(0.13333333,0,0,0.13333303,251.85555,-6.2313622)"
         id="computer-global-globe-internet-wifi-5"
         style="fill:#ffcc00">
        <path
           d="M 57,10 H 7 a 5,5 0 0 0 -5,5 v 30 a 5,5 0 0 0 5,5 h 16 v 6 h -3 a 3.009,3.009 0 0 0 -3,3 v 2 a 1,1 0 0 0 1,1 h 28 a 1,1 0 0 0 1,-1 v -2 a 3.009,3.009 0 0 0 -3,-3 h -3 v -6 h 16 a 5,5 0 0 0 5,-5 V 15 A 5,5 0 0 0 57,10 Z M 44,58 a 1,1 0 0 1 1,1 v 1 H 19 v -1 a 1,1 0 0 1 1,-1 z M 25,56 v -6 h 14 v 6 z M 60,45 a 3.009,3.009 0 0 1 -3,3 H 7 A 3.009,3.009 0 0 1 4,45 v -1 h 56 z m 0,-3 H 4 V 15 a 3.009,3.009 0 0 1 3,-3 h 50 a 3.009,3.009 0 0 1 3,3 z"
           id="path5286-6"
           style="fill:#ffcc00" />
        <path
           d="m 55,26 a 3.01,3.01 0 0 0 -2.82,2 h -9.23 a 11,11 0 0 0 -21.9,0 h -9.23 a 3,3 0 1 0 0,2 h 9.23 a 11,11 0 0 0 21.9,0 h 9.23 A 3,3 0 1 0 55,26 Z M 9,30 a 1,1 0 1 1 1,-1 1,1 0 0 1 -1,1 z M 37.65,22 A 8.734,8.734 0 0 1 36.21,22.95 12.77,12.77 0 0 0 35.32,20.64 9.184,9.184 0 0 1 37.65,22 Z M 32,20 c 0.76,0 1.73,1.35 2.36,3.68 a 8.862,8.862 0 0 1 -4.72,0 C 30.27,21.35 31.24,20 32,20 Z m -7.06,3.43 a 11.038,11.038 0 0 0 2.4,1.52 23.513,23.513 0 0 0 -0.32,3.05 h -3.96 a 8.95,8.95 0 0 1 1.88,-4.57 z M 23.06,30 h 3.96 a 23.513,23.513 0 0 0 0.32,3.05 11.038,11.038 0 0 0 -2.4,1.52 A 8.95,8.95 0 0 1 23.06,30 Z m 3.29,6 a 8.734,8.734 0 0 1 1.44,-0.95 12.77,12.77 0 0 0 0.89,2.31 A 9.184,9.184 0 0 1 26.35,36 Z M 27.79,22.95 A 8.734,8.734 0 0 1 26.35,22 9.184,9.184 0 0 1 28.68,20.64 12.77,12.77 0 0 0 27.79,22.95 Z M 32,38 c -0.76,0 -1.73,-1.35 -2.36,-3.68 a 8.862,8.862 0 0 1 4.72,0 C 33.73,36.65 32.76,38 32,38 Z m 2.76,-5.64 a 10.76,10.76 0 0 0 -5.52,0 A 20.617,20.617 0 0 1 29.02,30 h 5.96 a 20.617,20.617 0 0 1 -0.22,2.36 z M 29.02,28 a 20.617,20.617 0 0 1 0.22,-2.36 10.76,10.76 0 0 0 5.52,0 20.617,20.617 0 0 1 0.22,2.36 z m 6.3,9.36 a 12.77,12.77 0 0 0 0.89,-2.31 8.734,8.734 0 0 1 1.44,0.95 9.184,9.184 0 0 1 -2.33,1.36 z m 3.74,-2.79 A 11.038,11.038 0 0 0 36.66,33.05 23.513,23.513 0 0 0 36.98,30 h 3.96 a 8.95,8.95 0 0 1 -1.88,4.57 z M 36.98,28 a 23.513,23.513 0 0 0 -0.32,-3.05 11.038,11.038 0 0 0 2.4,-1.52 8.95,8.95 0 0 1 1.88,4.57 z M 55,30 a 1,1 0 1 1 1,-1 1,1 0 0 1 -1,1 z"
           id="path5288-6"
           style="fill:#ffcc00" />
        <path
           d="m 32,1.5830741 a 8.945,8.945 0 0 1 6.363,2.637 l 1.414,-1.414 a 10.994,10.994 0 0 0 -15.554,0 l 1.414,1.414 a 8.945,8.945 0 0 1 6.363,-2.637 z"
           id="path5290-9"
           style="fill:#ffcc00" />
        <path
           d="m 27.155772,4.7241792 1.42,1.408 a 4.988,4.988 0 0 1 7.06,0 l 1.42,-1.408 a 6.987,6.987 0 0 0 -9.9,0 z"
           id="path5292-3"
           style="fill:#ffcc00" />
        <rect
           x="31"
           y="14"
           width="2"
           height="2"
           id="rect5294-9"
           style="fill:#ffcc00" />
      </g>
      <rect
         ry="0.90371281"
         rx="0.61146277"
         y="-4.9193411"
         x="252.02979"
         height="5.3086739"
         width="8.1848488"
         id="rect57787"
         style="fill:none;fill-opacity:1;fill-rule:evenodd;stroke:#ffcc00;stroke-width:0.75;stroke-miterlimit:4;stroke-dasharray:none;stroke-opacity:1" />
    </g>
  </g>
</svg>
