<?xml version="1.0" encoding="UTF-8" standalone="no"?>
<svg
   xmlns:dc="http://purl.org/dc/elements/1.1/"
   xmlns:cc="http://creativecommons.org/ns#"
   xmlns:rdf="http://www.w3.org/1999/02/22-rdf-syntax-ns#"
   xmlns:svg="http://www.w3.org/2000/svg"
   xmlns="http://www.w3.org/2000/svg"
   xmlns:sodipodi="http://sodipodi.sourceforge.net/DTD/sodipodi-0.dtd"
   xmlns:inkscape="http://www.inkscape.org/namespaces/inkscape"
   width="210mm"
   height="297mm"
   viewBox="0 0 210 297"
   version="1.1"
   id="svg8"
   inkscape:version="1.0 (4035a4f, 2020-05-01)"
   sodipodi:docname="halfHack.svg"
   inkscape:export-filename="/Users/adamjenkins/InkSpace/Version3.0/Tokens/halfHack.png"
   inkscape:export-xdpi="300"
   inkscape:export-ydpi="300">
  <defs
     id="defs2">
    <clipPath
       clipPathUnits="userSpaceOnUse"
       id="clipPath1774">
      <path
         id="path1776"
         style="fill:#ff0000;fill-opacity:1;fill-rule:nonzero;stroke:none;stroke-width:0.264583"
         d="M 77.368921,97.024052 V 147.02358 H 127.36897 V 97.024052 Z m 25.180889,17.330208 c 0.16897,-0.002 0.19901,0.19084 -0.008,0.25218 -0.0275,0.009 -0.0116,0.003 -0.0481,0.0155 -0.0282,0.007 -0.0563,0.0168 -0.0847,0.0227 -0.0161,0.003 -0.0326,-0.002 -0.0491,-0.003 -0.031,-0.002 -0.0459,-0.002 -0.0455,-0.005 -0.0183,0.003 -0.004,-2.7e-4 -0.0444,0.0145 -0.0419,0.0155 -0.0252,0.007 -0.0806,0.0238 -0.002,7.9e-4 -0.002,7.9e-4 -0.004,0.002 -0.001,0.0697 -0.11419,0.0214 -0.14625,0.0289 -0.0426,0.0102 -0.0796,0.0388 -0.12505,0.0408 -0.0341,0.0104 -0.0684,0.0201 -0.10232,0.031 -0.0228,0.007 -0.0503,0.0364 -0.0687,0.0269 -0.003,10e-4 -0.006,0.002 -0.008,0.004 -0.0266,0.0162 -0.0552,0.0293 -0.0827,0.0439 -0.0326,0.009 -0.0645,0.0203 -0.0977,0.0263 -0.0807,0.0159 -0.16413,0.001 -0.24443,0.0238 -0.002,-0.004 -0.004,-0.009 -0.006,-0.0134 5.3e-4,0.005 0.003,0.009 0.003,0.0134 0.001,0.0248 -0.0441,0.0236 -0.0672,0.0326 -0.0674,0.0263 -0.13651,0.0396 -0.2067,0.0563 -0.17751,0.0411 -0.35347,0.0864 -0.53124,0.12609 -0.0278,0.005 -0.0561,0.01 -0.0837,0.0155 -0.0645,0.014 -0.0489,0.0191 -0.12196,0.0295 -0.0388,0.006 -0.0948,-0.005 -0.13281,0.0129 -0.0275,0.004 -0.0545,0.009 -0.0822,0.0109 -0.0431,0.003 -0.08683,-0.006 -0.129705,0.005 -0.09442,0.009 -0.133072,0.0183 -0.232542,0.0243 -0.02674,0.002 -0.05331,4e-5 -0.0801,0 0.02783,-0.041 0.132249,-0.12999 0.0832,-0.12299 -0.05567,0.008 -0.06788,0.0905 -0.110588,0.12713 -0.02148,0.0184 -0.178615,-0.0136 -0.203605,-0.0176 v 0.001 c -0.243522,-0.0416 -0.197638,-0.23203 0.04909,-0.24443 0.03664,-0.002 0.07025,0.0146 0.105937,0.0186 7.93e-4,0 0.0258,-0.0112 0.02119,-0.005 -0.104415,0.12831 -0.216234,0.20678 0.04444,-0.005 0.126952,0.007 0.251362,-0.0239 0.377753,-0.0289 0.11594,-0.005 0.0351,0.007 0.12092,-0.009 0.0552,-0.0167 0.1133,-0.011 0.1695,-0.016 10e-4,0 -0.004,-0.004 -0.002,-0.005 0.0185,-0.007 0.0381,-0.012 0.0574,-0.016 0.0345,-0.008 0.0692,-0.0126 0.10387,-0.0196 0.17421,-0.0392 0.34688,-0.0837 0.5209,-0.12402 0.0626,-0.0148 0.12655,-0.0265 0.18655,-0.0506 0.0103,-0.004 0.0244,-0.0276 0.0284,-0.0171 0.0255,0.076 0.0272,0.15816 0.0455,0.23616 5.3e-4,0.003 0.0101,0.002 0.0103,-5.3e-4 0.003,-0.0488 0.004,-0.0978 0.005,-0.14676 -0.015,-0.0333 -0.0317,-0.0658 -0.0439,-0.10025 -0.002,-0.006 0.0166,-0.008 0.0186,-0.002 0.008,0.0199 0.0173,0.04 0.0263,0.06 5.3e-4,-0.0228 10e-4,-0.0455 0.002,-0.0682 0.0618,-0.007 0.12478,-0.0252 0.18758,-0.0222 0.0148,0.001 0.0292,0.005 0.0439,0.004 0.0101,-0.001 0.0194,-0.006 0.0294,-0.009 0.0228,-0.007 0.0454,-0.0137 0.0682,-0.0207 0.0248,-0.02 0.0175,-0.013 0.0294,-0.0259 5.3e-4,-5.3e-4 0.001,-5.3e-4 0.002,-0.001 0.001,-10e-4 0.001,-0.003 0.003,-0.004 0.0232,-0.016 0.0435,-0.003 0.0625,0.0181 -0.005,-0.0121 -0.0124,-0.0247 -0.0129,-0.0357 -0.001,-0.0218 0.0412,-0.0147 0.062,-0.0217 0.0367,-0.0118 0.0738,-0.0223 0.11059,-0.0336 0.0248,-0.007 0.0499,-0.0137 0.0744,-0.0217 0.0695,-0.0227 0.002,-0.0172 0.12247,-0.0279 0.002,-2.2e-4 0.006,-5.3e-4 0.009,-0.001 0.006,-0.0143 0.04,-0.0113 0.0584,-0.0176 0.05,-0.016 0.10226,-0.0325 0.15296,-0.0465 -0.0649,0.0244 -0.0135,0.003 0.0687,-0.004 0.0158,-10e-4 0.0317,0.002 0.0475,0.003 0.0118,0.001 0.0233,0.002 0.0351,0.002 0.003,1.7e-4 0.0133,0.001 0.0104,5.3e-4 -0.007,-0.001 -0.0142,-0.002 -0.0222,-0.003 0.0534,-0.0192 0.0295,-0.0113 0.0718,-0.0243 0.0295,-0.009 0.0565,-0.0132 0.0806,-0.0134 z m -0.57619,0.12196 c -0.005,-0.005 0.0355,0.0329 0.13539,0.19326 -0.002,-0.008 -0.005,-0.0206 -0.008,-0.0341 -0.016,-0.0353 -0.0267,-0.0717 -0.0382,-0.10801 -0.005,-0.0134 -0.008,-0.0228 -0.015,-0.0382 -0.0404,0.013 -0.0698,-0.009 -0.0739,-0.0129 z m 0.15038,0.216 c 0.002,0.003 0.002,0.003 0.004,0.006 -5.3e-4,-0.002 -0.002,-0.003 -0.002,-0.005 -7.9e-4,3e-5 -0.001,-7.9e-4 -0.002,-10e-4 z m -0.46044,0.031 c 0.0159,0.0486 0.0357,0.0846 0.0708,0.076 -0.02,-0.0202 -0.046,-0.0487 -0.0708,-0.076 z" />
    </clipPath>
    <clipPath
       clipPathUnits="userSpaceOnUse"
       id="clipPath1784">
      <path
         id="path1786"
         style="fill:#ff0000;fill-opacity:1;fill-rule:nonzero;stroke:none;stroke-width:3.62857"
         d="M 127.07797,16.000487 V 495.99947 H 496.0016 V 16.000487 Z M 258.47903,150.81748 c 2.31731,-0.0218 2.72919,2.61728 -0.11322,3.45846 -0.37711,0.11793 -0.15856,0.041 -0.65909,0.21263 -0.38673,0.1016 -0.77278,0.22969 -1.16227,0.3117 -0.22098,0.041 -0.44696,-0.029 -0.67328,-0.0425 -0.42469,-0.0254 -0.62912,-0.0254 -0.62364,-0.0639 -0.2511,0.0439 -0.0533,-0.004 -0.60949,0.19848 -0.57462,0.21264 -0.3458,0.09 -1.10559,0.32621 -0.029,0.0109 -0.029,0.0109 -0.0566,0.0218 -0.0145,0.95581 -1.56594,0.29392 -2.00565,0.39686 -0.58449,0.1397 -1.09242,0.53246 -1.71505,0.55989 -0.46685,0.1426 -0.93835,0.27577 -1.40324,0.42523 -0.31278,0.10088 -0.68903,0.49969 -0.94259,0.36852 -0.0363,0.0145 -0.0791,0.0327 -0.10632,0.0497 -0.36482,0.22207 -0.75681,0.40219 -1.13393,0.60242 -0.44711,0.12083 -0.88414,0.27903 -1.33949,0.3614 -1.10722,0.21808 -2.25091,0.0145 -3.35214,0.32585 -0.0254,-0.0613 -0.0508,-0.12337 -0.078,-0.18433 0.007,0.0628 0.0396,0.12083 0.0425,0.18433 0.0181,0.33999 -0.60452,0.32294 -0.92133,0.44649 -0.92402,0.36068 -1.87209,0.54345 -2.83479,0.77249 -2.4343,0.56323 -4.84751,1.18476 -7.28552,1.72923 -0.38125,0.07 -0.76958,0.13027 -1.14808,0.21264 -0.88446,0.19195 -0.67005,0.26125 -1.67255,0.40396 -0.53224,0.0824 -1.30023,-0.0628 -1.82136,0.17708 -0.37715,0.0533 -0.74698,0.12156 -1.12685,0.14877 -0.59171,0.041 -1.19094,-0.0882 -1.77887,0.0708 -1.29486,0.12736 -1.82499,0.25073 -3.18916,0.3331 -0.36674,0.0254 -0.73108,5.8e-4 -1.09851,0 0.38169,-0.56228 1.81371,-1.78272 1.14104,-1.6867 -0.76341,0.11176 -0.93091,1.24147 -1.51663,1.74341 -0.29464,0.25219 -2.44958,-0.18614 -2.7923,-0.24093 v 0.0145 c -3.33973,-0.56997 -2.71047,-3.18211 0.67325,-3.35218 0.50248,-0.0254 0.96338,0.2003 1.45284,0.25509 0.0109,0 0.35379,-0.15313 0.29065,-0.0708 -1.43198,1.75968 -2.96549,2.83587 0.60949,-0.0708 1.74106,0.0973 3.44725,-0.32838 5.18066,-0.39685 1.59,-0.0686 0.48165,0.0907 1.65836,-0.12047 0.75743,-0.22896 1.55379,-0.15131 2.32454,-0.21953 0.0145,0 -0.0559,-0.0555 -0.029,-0.0639 0.25364,-0.0933 0.52197,-0.16474 0.78667,-0.21953 0.47313,-0.10414 0.94859,-0.17345 1.42447,-0.26924 2.3892,-0.53732 4.7572,-1.14819 7.14375,-1.70089 0.85798,-0.20284 1.73558,-0.36402 2.55844,-0.69451 0.14115,-0.0563 0.33491,-0.37788 0.38978,-0.23405 0.34979,1.04177 0.37269,2.16909 0.62368,3.23879 0.007,0.0439 0.13824,0.0327 0.14187,-0.007 0.0468,-0.66929 0.0515,-1.34174 0.0639,-2.01274 -0.20538,-0.45712 -0.43551,-0.90264 -0.60242,-1.3749 -0.029,-0.0824 0.22787,-0.11067 0.25509,-0.029 0.11539,0.27251 0.23694,0.5481 0.3614,0.82209 0.007,-0.31205 0.0181,-0.62357 0.029,-0.93548 0.84727,-0.0947 1.71135,-0.3458 2.57259,-0.3048 0.20283,0.0145 0.40081,0.07 0.60241,0.0566 0.13861,-0.0145 0.2667,-0.0795 0.40397,-0.12047 0.31278,-0.0933 0.62281,-0.1876 0.93548,-0.28339 0.34036,-0.2736 0.23985,-0.17817 0.40397,-0.35451 0.007,-0.007 0.0145,-0.007 0.0218,-0.0145 0.0181,-0.0145 0.0145,-0.0363 0.0363,-0.0497 0.31786,-0.21953 0.59679,-0.0446 0.85754,0.24819 -0.065,-0.16582 -0.16982,-0.33854 -0.17707,-0.48902 -0.0145,-0.29936 0.56518,-0.20175 0.85046,-0.29754 0.50343,-0.16184 1.01194,-0.30553 1.51663,-0.46065 0.34,-0.0987 0.68453,-0.18796 1.02054,-0.29754 0.95355,-0.31133 0.029,-0.23586 1.67963,-0.38271 0.029,-0.003 0.0835,-0.007 0.12047,-0.0145 0.0849,-0.19558 0.54806,-0.1553 0.80082,-0.24094 0.68573,-0.21953 1.40248,-0.44584 2.09779,-0.63783 -0.88951,0.33456 -0.1847,0.0392 0.94256,-0.0566 0.21662,-0.0145 0.43532,0.029 0.65201,0.0425 0.16184,0.0145 0.32004,0.0218 0.48192,0.029 0.0468,0.002 0.18288,0.0181 0.14187,0.007 -0.1016,-0.0145 -0.19521,-0.029 -0.3048,-0.0425 0.73236,-0.26343 0.40499,-0.15494 0.98512,-0.3331 0.40484,-0.12446 0.77452,-0.18143 1.10556,-0.18433 z m -7.90205,1.67255 c -0.0711,-0.0711 0.48688,0.45089 1.85681,2.65053 -0.0254,-0.11031 -0.0689,-0.28194 -0.11321,-0.46773 -0.21989,-0.48419 -0.36562,-0.98388 -0.52444,-1.48118 -0.0718,-0.18324 -0.11248,-0.31206 -0.20538,-0.52447 -0.5535,0.1778 -0.95678,-0.12047 -1.01346,-0.17708 z m 2.06233,2.96236 c 0.0254,0.0414 0.0327,0.0363 0.0566,0.078 -0.007,-0.0218 -0.0218,-0.0421 -0.029,-0.0639 -0.0109,4.3e-4 -0.0181,-0.0109 -0.029,-0.0145 z m -6.31458,0.42524 c 0.21771,0.66689 0.48971,1.15965 0.97093,1.0418 -0.27396,-0.27723 -0.63054,-0.66784 -0.97093,-1.0418 z" />
    </clipPath>
    <clipPath
       clipPathUnits="userSpaceOnUse"
       id="clipPath1830">
      <path
         id="path1832"
         style="fill:#ff0000;fill-opacity:1;fill-rule:nonzero;stroke:none;stroke-width:3.62857"
         d="M 16.002582,16.000487 V 495.99947 H 496.0016 V 16.000487 Z M 279.73313,152.83021 c 1.40498,-0.0559 2.32112,0.36804 2.84897,0.95674 2.00294,0.72528 1.29311,3.66747 -2.16154,4.50734 -2.10283,0.51141 -4.24336,0.88784 -6.30747,1.5379 -0.23332,0.0733 -0.47426,0.17236 -0.70873,0.24819 0.93878,1.37019 -0.0327,3.29685 -2.99782,3.22461 -1.79281,-0.0443 -3.58971,-0.007 -5.38614,0.0145 -3.70234,1.69037 -7.26865,3.70368 -10.29749,6.187 -0.13861,0.17127 -0.26743,0.35125 -0.41816,0.51025 -0.35777,0.3744 -0.74763,0.71701 -1.10555,1.09144 -1.6563,1.72753 -3.25534,3.51221 -4.86882,5.27983 -3.03718,3.32711 -6.40312,0.26561 -3.36637,-3.06161 2.26492,-2.48118 4.54733,-4.95608 6.8957,-7.35635 1.40872,-1.12917 2.89974,-2.13871 4.42236,-3.09706 -1.29845,-0.18578 -2.59334,-0.38738 -3.86954,-0.67324 -2.29174,0.59066 -4.61036,1.04405 -6.83903,1.89223 -0.9951,0.37853 -1.95961,0.83798 -2.91276,1.31111 -0.47179,0.2344 -1.23731,1.32221 -1.36071,0.80794 -0.15785,-0.68918 0.75539,-1.19645 1.13393,-1.79306 2.41096,-3.7985 -6.59181,4.10046 -4.54991,0.0849 0.37716,-0.73947 0.57143,-1.60107 1.12686,-2.21826 0.46217,-0.5129 1.17888,-0.72589 1.80009,-1.02761 0.87271,-0.42411 1.76676,-0.8021 2.66475,-1.16934 -0.0363,-0.004 -0.0697,-0.0109 -0.10631,-0.0145 -0.19195,-0.029 -0.75097,0.0254 -0.57404,-0.0566 0.31133,-0.13644 0.669,-0.10051 1.00635,-0.14188 4.46223,-0.61617 -6.13795,-3.53267 -1.68671,-4.22387 0.36068,-0.0577 0.71243,-0.13571 1.07721,-0.16293 0.23441,-0.0145 0.47419,0.0363 0.70874,0.0639 1.48416,0.16038 2.96592,0.33201 4.3656,0.89295 1.35752,0.37973 2.72314,0.74789 4.09633,1.08433 0.18071,-0.053 0.36555,-0.0853 0.5457,-0.14188 1.19932,-0.38249 2.40411,-0.74103 3.59312,-1.15516 1.02682,-0.35814 2.01063,-0.83453 3.04746,-1.1623 2.8915,-0.91473 4.55491,-0.95446 7.77447,-1.31111 7.8159,-0.86799 5.05264,-0.6292 12.41653,-0.9213 z m -15.48522,5.87516 c -0.17199,0.0218 -0.34544,0.0388 -0.51736,0.0639 0.12772,-8e-4 0.25509,0.001 0.3827,0 0.0457,-0.0181 0.0889,-0.0443 0.13462,-0.0639 z" />
    </clipPath>
  </defs>
  <sodipodi:namedview
     id="base"
     pagecolor="#ffffff"
     bordercolor="#666666"
     borderopacity="1.0"
     inkscape:pageopacity="0.0"
     inkscape:pageshadow="2"
     inkscape:zoom="0.85944506"
     inkscape:cx="349.73906"
     inkscape:cy="485.33965"
     inkscape:document-units="mm"
     inkscape:current-layer="layer1"
     inkscape:document-rotation="0"
     showgrid="false"
     inkscape:window-width="875"
     inkscape:window-height="855"
     inkscape:window-x="0"
     inkscape:window-y="23"
     inkscape:window-maximized="0" />
  <metadata
     id="metadata5">
    <rdf:RDF>
      <cc:Work
         rdf:about="">
        <dc:format>image/svg+xml</dc:format>
        <dc:type
           rdf:resource="http://purl.org/dc/dcmitype/StillImage" />
        <dc:title />
      </cc:Work>
    </rdf:RDF>
  </metadata>
  <g
     inkscape:label="Layer 1"
     inkscape:groupmode="layer"
     id="layer1">
    <circle
       style="display:inline;opacity:1;fill:#ffffff;fill-opacity:1;stroke:#000000;stroke-width:1.49267;stroke-miterlimit:4;stroke-dasharray:none"
       id="path833"
       cx="102.36905"
       cy="122.02381"
       r="24.253668"
       clip-path="url(#clipPath1774)" />
    <text
       xml:space="preserve"
       style="font-size:8.46667px;line-height:1;font-family:sans-serif;text-align:center;text-anchor:middle;stroke-width:0.264583"
       x="102.32146"
       y="120.94274"
       id="text1854"><tspan
         sodipodi:role="line"
         id="tspan1852"
         x="102.32146"
         y="120.94274"
         style="font-size:8.46667px;stroke-width:0.264583">Hacker </tspan><tspan
         sodipodi:role="line"
         x="102.32146"
         y="129.40941"
         style="font-size:8.46667px;stroke-width:0.264583"
         id="tspan1856">Half</tspan></text>
  </g>
</svg>
