<?xml version="1.0" encoding="UTF-8" standalone="no"?>
<svg
   xmlns:dc="http://purl.org/dc/elements/1.1/"
   xmlns:cc="http://creativecommons.org/ns#"
   xmlns:rdf="http://www.w3.org/1999/02/22-rdf-syntax-ns#"
   xmlns:svg="http://www.w3.org/2000/svg"
   xmlns="http://www.w3.org/2000/svg"
   xmlns:sodipodi="http://sodipodi.sourceforge.net/DTD/sodipodi-0.dtd"
   xmlns:inkscape="http://www.inkscape.org/namespaces/inkscape"
   inkscape:export-ydpi="300"
   inkscape:export-xdpi="300"
   inkscape:export-filename="/Users/adamjenkins/InkSpace/Version3.0/Characters/CharBack.png"
   width="210mm"
   height="297mm"
   viewBox="0 0 210 297"
   version="1.1"
   id="svg8"
   inkscape:version="1.0 (4035a4f, 2020-05-01)"
   sodipodi:docname="CharBack.svg">
  <defs
     id="defs2" />
  <sodipodi:namedview
     id="base"
     pagecolor="#ffffff"
     bordercolor="#666666"
     borderopacity="1.0"
     inkscape:pageopacity="0.0"
     inkscape:pageshadow="2"
     inkscape:zoom="0.64366093"
     inkscape:cx="269.49226"
     inkscape:cy="564.63759"
     inkscape:document-units="mm"
     inkscape:current-layer="layer1"
     inkscape:document-rotation="0"
     showgrid="false"
     inkscape:window-width="1252"
     inkscape:window-height="855"
     inkscape:window-x="0"
     inkscape:window-y="23"
     inkscape:window-maximized="0" />
  <metadata
     id="metadata5">
    <rdf:RDF>
      <cc:Work
         rdf:about="">
        <dc:format>image/svg+xml</dc:format>
        <dc:type
           rdf:resource="http://purl.org/dc/dcmitype/StillImage" />
        <dc:title />
      </cc:Work>
    </rdf:RDF>
  </metadata>
  <g
     inkscape:label="Layer 1"
     inkscape:groupmode="layer"
     id="layer1">
    <rect
       style="fill:#cccccc;fill-rule:evenodd;stroke-width:2.5;stroke:#000000;stroke-opacity:1;stroke-miterlimit:4;stroke-dasharray:none;fill-opacity:1"
       id="rect10"
       width="145.89882"
       height="85.422623"
       x="37.041668"
       y="79.375008"
       rx="4.99999"
       ry="4.99999" />
    <g
       transform="matrix(0.83248297,0,0,0.83248297,82.96331,98.999991)"
       id="Security_Guard-Surveillance-Guard-Home-Security"
       data-name="Security Guard-Surveillance-Guard-Home-Security">
      <path
         d="m 29,33 v 5.939 A 13.006,13.006 0 0 0 35.687,50.3 l 2.827,1.571 a 1,1 0 0 0 0.972,0 L 42.313,50.3 A 13.006,13.006 0 0 0 49,38.939 V 33 a 1,1 0 0 0 -0.594,-0.914 l -9,-4 a 1,1 0 0 0 -0.812,0 l -9,4 A 1,1 0 0 0 29,33 Z m 2,0.65 8,-3.556 8,3.556 v 5.289 a 11.007,11.007 0 0 1 -5.658,9.616 L 39,49.856 36.658,48.556 A 11.007,11.007 0 0 1 31,38.939 Z"
         id="path5329" />
      <path
         d="m 38,43 a 1,1 0 0 0 0.707,-0.293 l 5,-5 -1.414,-1.414 -4.293,4.293 -2.293,-2.293 -1.414,1.414 3,3 A 1,1 0 0 0 38,43 Z"
         id="path5331" />
      <circle
         cx="15"
         cy="19"
         r="2"
         id="circle5333" />
      <path
         d="m 61.415807,20.820035 -27.06,-22.5900004 a 2.979,2.979 0 0 0 -3.84,0.01 l -12.74,10.69 h -5.34 A 5,5 0 0 0 7.4358065,13.930035 v 6 a 3,3 0 0 0 0,6 h 0.07 a 8.028,8.028 0 0 0 3.9300005,5.92 v 2.43 l -4.8500005,2.16 a 7,7 0 0 0 -4.15,6.39 v 14.1 a 1,1 0 0 0 1,1 H 50.435807 a 3.009,3.009 0 0 0 3,-3 v -32.99 l 4.13,3.48 a 3,3 0 0 0 1.93,0.7 3,3 0 0 0 2.99,-3.26 2.982,2.982 0 0 0 -1.07,-2.04 z m -53.9800005,3.11 a 1,1 0 0 1 0,-2 z m 2,-10 a 3.009,3.009 0 0 1 3.0000005,-3 h 6 a 3.009,3.009 0 0 1 3,3 v 5 H 9.4358065 Z m 11.8300005,7 a 3.014,3.014 0 0 1 -2.83,2 h -6 a 3.014,3.014 0 0 1 -2.8300005,-2 z m -11.8300005,4 v -1.03 a 4.924,4.924 0 0 0 3.0000005,1.03 h 6 a 4.924,4.924 0 0 0 3,-1.03 v 1.03 a 6.0000002,6.0000002 0 0 1 -12.0000005,0 z m 6.0000005,9.95 -2,-0.67 v -1.54 a 7.822,7.822 0 0 0 4,0 v 1.54 z m 1.31,3.78 -0.85,1.27 h -0.92 l -0.85,-1.27 1.31,-1.32 z m 1.64,-2.66 1.43,0.64 -0.7,1.56 -1.83,-1.83 z m -5.9,0 1.1,0.37 -1.83,1.83 -0.7,-1.56 z m -4.0500005,19.93 v -14 h -2 v 14 h -2 v -13.1 a 5.009,5.009 0 0 1 2.97,-4.57 l 1.83,-0.81 1.2900005,2.89 a 0.992,0.992 0 0 0 0.73,0.57 1.1,1.1 0 0 0 0.18,0.02 1.007,1.007 0 0 0 0.71,-0.29 l 0.53,-0.54 0.73,1.09 -0.97,11.66 a 0.943,0.943 0 0 0 0.17,0.63 l 1.63,2.45 z m 7.0000005,-1.8 -0.97,-1.46 0.89,-10.74 h 0.16 l 0.89,10.74 z m 11,1.8 h -2 v -14 h -2 v 14 h -5.8 l 1.63,-2.45 a 0.943,0.943 0 0 0 0.17,-0.63 l -0.97,-11.66 0.73,-1.09 0.53,0.54 a 1.007,1.007 0 0 0 0.71,0.29 1.1,1.1 0 0 0 0.18,-0.02 0.992,0.992 0 0 0 0.73,-0.57 l 1.29,-2.89 1.83,0.81 a 5.009,5.009 0 0 1 2.97,4.57 z m 25,-1 a 1,1 0 0 1 -1,1 h -22 v -13.1 a 7,7 0 0 0 -4.15,-6.39 l -4.85,-2.16 v -2.43 a 8.028,8.028 0 0 0 3.93,-5.92 h 0.07 a 3,3 0 0 0 0,-6 v -6 a 4.933,4.933 0 0 0 -0.34,-1.77 l 9.34,-7.9200004 19,16.0100004 z m -28,-31 v -2 a 1,1 0 0 1 0,2 z m 36.83,-0.17 a 1.012,1.012 0 0 1 -1.42,0.13 l -25.77,-21.7200004 a 0.987,0.987 0 0 0 -1.29,0 l -9.77,8.2800004 a 4.989,4.989 0 0 0 -1.61,-1.1100004 l 11.4,-9.57000003 a 0.983,0.983 0 0 1 1.27,0 l 27.06,22.59000043 a 0.986,0.986 0 0 1 0.35,0.68 0.944,0.944 0 0 1 -0.22,0.72 z"
         id="path5335" />
    </g>
  </g>
</svg>
