<?xml version="1.0" encoding="UTF-8" standalone="no"?>
<svg
   xmlns:dc="http://purl.org/dc/elements/1.1/"
   xmlns:cc="http://creativecommons.org/ns#"
   xmlns:rdf="http://www.w3.org/1999/02/22-rdf-syntax-ns#"
   xmlns:svg="http://www.w3.org/2000/svg"
   xmlns="http://www.w3.org/2000/svg"
   xmlns:sodipodi="http://sodipodi.sourceforge.net/DTD/sodipodi-0.dtd"
   xmlns:inkscape="http://www.inkscape.org/namespaces/inkscape"
   sodipodi:docname="charcs.svg"
   inkscape:version="1.0 (4035a4f, 2020-05-01)"
   id="svg271"
   version="1.1"
   viewBox="0 0 210 297"
   height="297mm"
   width="210mm">
  <defs
     id="defs265" />
  <sodipodi:namedview
     inkscape:window-maximized="0"
     inkscape:window-y="23"
     inkscape:window-x="0"
     inkscape:window-height="855"
     inkscape:window-width="1252"
     showgrid="false"
     inkscape:document-rotation="0"
     inkscape:current-layer="layer1"
     inkscape:document-units="mm"
     inkscape:cy="422.14022"
     inkscape:cx="287.91338"
     inkscape:zoom="0.3927434"
     inkscape:pageshadow="2"
     inkscape:pageopacity="0.0"
     borderopacity="1.0"
     bordercolor="#666666"
     pagecolor="#ffffff"
     id="base" />
  <metadata
     id="metadata268">
    <rdf:RDF>
      <cc:Work
         rdf:about="">
        <dc:format>image/svg+xml</dc:format>
        <dc:type
           rdf:resource="http://purl.org/dc/dcmitype/StillImage" />
        <dc:title></dc:title>
      </cc:Work>
    </rdf:RDF>
  </metadata>
  <g
     id="layer1"
     inkscape:groupmode="layer"
     inkscape:label="Layer 1">
    <g
       transform="matrix(2.1166667,0,0,2.1166667,-63.197587,179.46309)"
       id="Administrator-Worker-Setting-Computer-Laptop">
      <path
         d="m 34,16 v -3 a 11,11 0 0 0 -22,0 v 3 a 3,3 0 0 0 0,6 v 1 a 11.014,11.014 0 0 0 6,9.79 v 3.47 L 9.72,38.85 A 10.964,10.964 0 0 0 2,49.35 V 61 a 1,1 0 0 0 1,1 H 30 V 60 H 11 V 49 H 9 V 60 H 4 V 49.35 a 8.959,8.959 0 0 1 6.32,-8.59 l 5.28,-1.65 -0.59,4.77 A 0.983,0.983 0 0 0 15.4,44.8 1.029,1.029 0 0 0 16,45 1.046,1.046 0 0 0 16.39,44.92 L 23,42.09 29.61,44.92 A 1.046,1.046 0 0 0 30,45 1.029,1.029 0 0 0 30.6,44.8 0.983,0.983 0 0 0 30.99,43.88 L 30.4,39.11 32.7,39.83 33.3,37.92 28,36.26 V 32.79 A 11.014,11.014 0 0 0 34,23 v -1 a 3,3 0 0 0 0,-6 z m -22,4 a 1,1 0 0 1 0,-2 z m 5.21,22.39 0.49,-3.94 1.02,-0.32 2.53,2.53 z M 20,36.59 v -3.02 a 10.68,10.68 0 0 0 6,0 v 3.02 l -3,3 z m 8.3,1.86 0.49,3.94 -4.04,-1.73 2.53,-2.53 z M 32,23 a 9,9 0 0 1 -18,0 v -4.58 c 0.99,-0.94 4.42,-4.06 7.42,-5.19 a 7.706,7.706 0 0 0 3.13,3.66 1,1 0 0 0 1.34,-0.44 3.144,3.144 0 0 1 1.52,-1.36 8.058,8.058 0 0 0 4.59,3.64 z m 0,-6.39 A 5.591,5.591 0 0 1 28.95,13.68 1.014,1.014 0 0 0 28,13 a 4.268,4.268 0 0 0 -3.25,1.61 8.027,8.027 0 0 1 -1.8,-2.93 1.014,1.014 0 0 0 -1.19,-0.65 c -2.77,0.69 -5.88,3.08 -7.76,4.7 V 13 a 9,9 0 0 1 18,0 z M 34,20 v -2 a 1,1 0 0 1 0,2 z"
         id="path385" />
      <path
         d="M 61.937,56.649 59,48.818 V 36 a 3,3 0 0 0 -3,-3 v 2 a 1,1 0 0 1 1,1 V 48 H 37 V 36 a 1,1 0 0 1 1,-1 v -2 a 3,3 0 0 0 -3,3 v 12.818 l -2.937,7.831 A 1,1 0 0 0 32,57 v 3 a 2,2 0 0 0 2,2 h 26 a 2,2 0 0 0 2,-2 V 57 A 1,1 0 0 0 61.937,56.649 Z M 57.307,50 l 2.25,6 H 52.72 L 51.948,53.684 A 1,1 0 0 0 51,53 h -8 a 1,1 0 0 0 -0.948,0.684 L 41.28,56 h -6.837 l 2.25,-6 z m -6.694,6 h -7.226 l 0.334,-1 h 6.558 z M 34,60 v -2 h 26 v 2 z"
         id="path393" />
      <path
         d="m 46,40 h 2 v 2 h -2 z"
         id="path395" />
      <path
         d="m 50,40 h 2 v 2 h -2 z"
         id="path397" />
      <path
         d="m 42,40 h 2 v 2 h -2 z"
         id="path399" />
      <path
         d="m 38.758,30.97 1.667,0.417 c 0.071,0.2 0.15,0.387 0.237,0.575 l -0.884,1.473 a 1,1 0 0 0 0.151,1.222 l 1.414,1.414 a 1,1 0 0 0 1.221,0.15 l 1.474,-0.884 q 0.282,0.132 0.574,0.238 l 0.418,1.668 A 1,1 0 0 0 46,38 h 2 a 1,1 0 0 0 0.97,-0.757 l 0.418,-1.668 q 0.292,-0.107 0.574,-0.238 l 1.474,0.884 a 1,1 0 0 0 1.221,-0.15 l 1.414,-1.414 a 1,1 0 0 0 0.151,-1.222 l -0.884,-1.473 c 0.087,-0.188 0.166,-0.379 0.237,-0.575 L 55.242,30.97 A 1,1 0 0 0 56,30 v -2 a 1,1 0 0 0 -0.758,-0.97 l -1.667,-0.417 c -0.071,-0.2 -0.15,-0.387 -0.237,-0.575 l 0.884,-1.473 a 1,1 0 0 0 -0.151,-1.222 l -1.414,-1.414 a 1,1 0 0 0 -1.221,-0.15 l -1.474,0.884 Q 49.68,22.531 49.388,22.425 L 48.97,20.757 A 1,1 0 0 0 48,20 h -2 a 1,1 0 0 0 -0.97,0.757 l -0.418,1.668 q -0.292,0.106 -0.574,0.238 l -1.474,-0.884 a 1,1 0 0 0 -1.221,0.15 l -1.414,1.414 a 1,1 0 0 0 -0.151,1.222 l 0.884,1.473 c -0.087,0.188 -0.166,0.379 -0.237,0.575 L 38.758,27.03 A 1,1 0 0 0 38,28 v 2 a 1,1 0 0 0 0.758,0.97 z M 40,28.781 41.452,28.417 a 1,1 0 0 0 0.724,-0.71 4.983,4.983 0 0 1 0.5,-1.2 1,1 0 0 0 -0.008,-1.016 l -0.77,-1.283 0.31,-0.309 1.283,0.769 a 1,1 0 0 0 1.016,0.008 5,5 0 0 1 1.2,-0.5 1,1 0 0 0 0.711,-0.723 L 46.78,22 h 0.44 l 0.363,1.453 a 1,1 0 0 0 0.711,0.723 5,5 0 0 1 1.2,0.5 1,1 0 0 0 1.016,-0.008 l 1.29,-0.768 0.31,0.309 -0.77,1.283 a 1,1 0 0 0 -0.008,1.016 4.983,4.983 0 0 1 0.5,1.2 1,1 0 0 0 0.724,0.71 L 54,28.781 v 0.438 l -1.452,0.364 a 1,1 0 0 0 -0.724,0.71 4.983,4.983 0 0 1 -0.5,1.2 1,1 0 0 0 0.008,1.016 l 0.77,1.283 -0.31,0.309 -1.283,-0.769 a 1,1 0 0 0 -1.016,-0.008 5,5 0 0 1 -1.2,0.5 1,1 0 0 0 -0.711,0.723 L 47.22,36 h -0.44 l -0.363,-1.453 a 1,1 0 0 0 -0.711,-0.723 5,5 0 0 1 -1.2,-0.5 1,1 0 0 0 -1.016,0.008 L 42.207,34.101 41.9,33.8 42.67,32.517 a 1,1 0 0 0 0.008,-1.016 4.983,4.983 0 0 1 -0.5,-1.2 1,1 0 0 0 -0.724,-0.71 L 40,29.219 Z"
         id="path401" />
      <path
         d="m 47,33 a 4,4 0 1 0 -4,-4 4,4 0 0 0 4,4 z m 0,-6 a 2,2 0 1 1 -2,2 2,2 0 0 1 2,-2 z"
         id="path403" />
    </g>
    <g
       transform="matrix(0.45155556,0,0,0.45155556,-13.785993,-15.92185)"
       id="g441">
      <path
         d="m 78.475,29.525 c -26.715,0 -48.449,21.734 -48.449,48.449 0,26.715 21.734,48.449 48.449,48.449 26.715,0 48.449,-21.734 48.449,-48.449 0,-26.715 -21.735,-48.449 -48.449,-48.449 z m 2.373,88.779 c -0.291,0.017 -0.581,0.033 -0.873,0.044 v -12.545 c 2.547,-0.101 5.102,-0.32 7.666,-0.711 -1.725,3.981 -3.798,7.963 -6.313,11.949 -0.251,0.397 -0.383,0.829 -0.48,1.263 z m -10.227,-1.263 c -2.633,-4.174 -4.789,-8.342 -6.556,-12.51 2.627,0.531 5.261,0.947 7.91,1.16 v 12.161 c -0.369,-0.06 -0.744,-0.1 -1.11,-0.17 -0.087,-0.213 -0.117,-0.439 -0.244,-0.641 z M 38.025,77.975 c 0,-1.35 0.073,-2.684 0.203,-4 4.133,2.581 8.302,4.734 12.502,6.476 0.087,3.97 0.524,7.929 1.29,11.876 -4.485,-2.016 -8.948,-4.563 -13.394,-7.663 -0.365,-2.182 -0.601,-4.406 -0.601,-6.689 z m 5.802,-20.766 c 3.011,1.597 6.041,2.975 9.088,4.132 -0.878,3.516 -1.49,7.026 -1.843,10.53 -3.708,-1.731 -7.4,-3.834 -11.081,-6.306 0.956,-2.954 2.263,-5.742 3.836,-8.356 z M 71.184,38.218 c 0.261,-0.048 0.528,-0.078 0.79,-0.121 v 19.627 c -3.063,-0.284 -6.112,-0.82 -9.149,-1.594 1.945,-5.343 4.529,-10.723 7.83,-16.158 0.337,-0.552 0.481,-1.151 0.529,-1.754 z m 10.109,1.755 c 3.431,5.648 6.084,11.238 8.05,16.788 -3.143,0.635 -6.264,1.006 -9.368,1.147 V 37.601 c 0.273,0.01 0.545,0.026 0.817,0.042 -0.052,0.792 0.057,1.6 0.501,2.33 z m 35.557,25.298 c -5.339,3.317 -10.607,5.979 -15.813,7.993 -0.294,-3.63 -0.874,-7.267 -1.732,-10.909 4.49,-1.436 9.001,-3.313 13.529,-5.621 1.65,2.66 3.012,5.514 4.016,8.537 z M 93.224,75.827 c -4.457,1.175 -8.87,1.834 -13.25,2.032 V 65.846 c 3.869,-0.154 7.757,-0.609 11.665,-1.431 0.894,3.82 1.394,7.622 1.585,11.412 z M 71.975,65.706 V 77.71 c -4.436,-0.409 -8.837,-1.349 -13.214,-2.78 0.241,-3.713 0.815,-7.439 1.731,-11.182 3.803,0.983 7.631,1.648 11.483,1.958 z M 58.772,83.245 c 4.37,1.246 8.77,2.09 13.202,2.446 V 97.71 C 68.274,97.369 64.599,96.643 60.941,95.591 59.81,91.483 59.066,87.37 58.772,83.245 Z M 79.975,97.86 V 85.803 c 4.355,-0.173 8.736,-0.747 13.143,-1.767 -0.347,4.131 -1.144,8.25 -2.333,12.365 -3.63,0.815 -7.232,1.297 -10.81,1.459 z M 101.17,81.704 c 5.794,-2.004 11.628,-4.737 17.494,-8.187 0.162,1.466 0.259,2.95 0.259,4.458 0,2.174 -0.221,4.292 -0.552,6.373 -6.338,4.075 -12.572,7.188 -18.724,9.435 0.865,-4.014 1.362,-8.042 1.523,-12.079 z m 6.712,-31.418 c -3.642,1.789 -7.249,3.257 -10.825,4.422 -1.766,-5.148 -4.091,-10.305 -6.98,-15.467 6.891,2.067 12.993,5.937 17.805,11.045 z M 60.449,41.817 c -2.073,3.959 -3.793,7.915 -5.205,11.865 -2.2,-0.862 -4.397,-1.82 -6.589,-2.942 3.339,-3.653 7.326,-6.687 11.794,-8.923 z M 42.552,96.489 c 3.972,2.187 7.972,4.02 12.004,5.442 1.323,3.939 2.995,7.864 5.001,11.772 -7.274,-3.868 -13.216,-9.893 -17.005,-17.214 z m 48.426,19.934 c 2.472,-4.452 4.459,-8.928 6.04,-13.421 5.882,-1.689 11.806,-4.125 17.765,-7.313 -4.782,9.759 -13.348,17.325 -23.805,20.734 z"
         id="path425" />
      <path
         d="m 110.459,173.99 c -1.562,-1.562 -4.094,-1.562 -5.656,0 l -2.828,2.828 -2.828,-2.828 c -1.562,-1.562 -4.094,-1.562 -5.656,0 -1.562,1.562 -1.562,4.094 0,5.656 l 2.828,2.828 -2.828,2.828 c -1.562,1.562 -1.562,4.094 0,5.656 0.781,0.781 1.805,1.172 2.828,1.172 1.023,0 2.047,-0.391 2.828,-1.172 l 2.828,-2.828 2.828,2.828 c 0.781,0.781 1.805,1.172 2.828,1.172 1.023,0 2.047,-0.391 2.828,-1.172 1.562,-1.562 1.562,-4.094 0,-5.656 l -2.828,-2.828 2.828,-2.828 c 1.562,-1.562 1.562,-4.093 0,-5.656 z"
         id="path427" />
      <circle
         cx="71.974998"
         cy="156.47501"
         r="4.5300002"
         id="circle429" />
      <circle
         cx="143.97501"
         cy="36.474998"
         r="4.5300002"
         id="circle431" />
      <path
         d="m 245.855,195.664 -31.881,-14.492 v -3.321 c 6.047,-2.874 11.456,-6.761 16.14,-11.376 h 21.86 c 2.209,0 4,-1.791 4,-4 v -12 h 2.027 c 4.396,0 7.973,-3.576 7.973,-7.973 v -36.055 c 0,-4.396 -3.576,-7.973 -7.973,-7.973 h -8.027 v -16 c 0,-13.77 -6.613,-25.158 -18.621,-32.07 -18.191,-10.467 -46.01,-9.559 -66.158,2.152 -14.898,8.66 -23.066,21.896 -23,37.275 l 0.073,8.643 h -8.321 c -4.396,0 -7.973,3.576 -7.973,7.973 v 36.055 c 0,4.396 3.576,7.973 7.973,7.973 h 12.055 c 1.278,0 2.469,-0.33 3.541,-0.867 5.177,11.311 13.695,20.625 24.434,26.779 0,0.004 -0.002,0.008 -0.002,0.012 v 4.773 l -31.879,14.49 c -14.652,6.66 -24.121,21.539 -24.121,37.91 v 32.902 c 0,2.209 1.791,4 4,4 h 144 c 2.209,0 4,-1.791 4,-4 v -32.902 c 0,-16.371 -9.469,-31.25 -24.12,-37.908 z m 12.147,-53.189 h 0.002 l -0.002,4 z m -10.027,16 h -11.046 c 1.996,-2.824 3.712,-5.85 5.203,-9.016 1.138,0.627 2.426,1.016 3.815,1.016 h 2.027 v 8 z m 10,-16 -5.933,0.013 c -0.024,0 -0.043,-0.013 -0.067,-0.013 -0.024,0 -0.044,0.013 -0.068,0.014 l -5.932,0.013 -0.027,-36.027 12.027,-0.027 z m -88.76,-83 c 17.543,-10.193 42.545,-11.115 58.148,-2.135 6.666,3.836 14.611,11.311 14.611,25.135 v 17.101 c -2.379,1.381 -4,3.928 -4,6.871 v 0.58 c -11.653,7.177 -24.562,9.374 -36.438,6.141 -10.42,-2.836 -19.098,-9.711 -23.809,-18.861 -0.586,-1.139 -1.68,-1.926 -2.943,-2.123 -1.275,-0.189 -2.547,0.225 -3.447,1.131 -4.675,4.694 -11.294,7.679 -18.815,8.571 -0.6,-0.855 -1.363,-1.58 -2.244,-2.144 l -0.084,-9.945 C 150.127,73.91 160.5,64.539 169.215,59.475 Z m -23.24,83 -12,0.027 -0.027,-36.027 12.027,-0.027 z m 0.027,4 v -4 h 0.002 z m 7.973,-7.736 v -29.056 c 7.234,-0.945 13.862,-3.43 19.191,-7.402 6.031,8.973 15.373,15.641 26.27,18.605 4.295,1.17 8.691,1.748 13.117,1.748 8.563,-0.002 17.221,-2.196 25.422,-6.429 v 21.824 c -2.181,7.735 -6.091,14.666 -11.268,20.445 h -28.732 c -2.209,0 -4,1.791 -4,4 0,2.209 1.791,4 4,4 h 19.622 c -4.062,2.799 -8.506,5.102 -13.337,6.668 l -1.779,0.576 c -4.965,1.605 -10.045,1.668 -14.68,0.182 -16.521,-5.318 -29.12,-18.452 -33.826,-35.161 z m 25.777,48.593 c 1.529,-0.693 2.463,-2.271 2.334,-3.945 -0.02,-0.244 -0.111,-3.195 -0.111,-3.195 1.127,0.439 2.214,0.95 3.375,1.324 3.029,0.973 6.184,1.461 9.379,1.461 3.393,0 6.832,-0.551 10.217,-1.646 l 1.009,-0.327 c 0,0 -0.072,2.139 -0.091,2.383 -0.129,1.674 0.805,3.252 2.334,3.945 l 9.648,4.386 c -6.041,6.777 -14.729,10.756 -23.871,10.756 -9.14,0 -17.828,-3.979 -23.87,-10.757 z m -53.777,46.24 c 0,-13.24 7.627,-25.262 19.432,-30.627 l 17.184,-7.812 c 6.733,8.553 16.64,14.007 27.385,15.099 v 52.242 h -64 v -28.902 z m 136,28.903 h -64 v -52.242 c 10.745,-1.092 20.654,-6.546 27.385,-15.098 l 17.185,7.813 c 11.803,5.363 19.43,17.385 19.43,30.625 z"
         id="path437" />
      <path
         d="m 229.975,226.475 h -16 c -2.209,0 -4,1.791 -4,4 0,2.209 1.791,4 4,4 h 16 c 2.209,0 4,-1.791 4,-4 0,-2.209 -1.791,-4 -4,-4 z"
         id="path439" />
    </g>
    <g
       transform="matrix(2.2577778,0,0,2.2577778,120.06019,5.9795815)"
       id="g481">
      <path
         d="m 2,60 h 48 a 2,2 0 0 0 2,-2 V 56 A 2,2 0 0 0 50,54 H 42 V 33 a 2,2 0 0 0 2,-2 V 29 A 2,2 0 0 0 42,27 H 34.92 A 7,7 0 0 0 29,21.08 V 20.326 A 6.967,6.967 0 0 0 32.949,14.847 3,3 0 0 0 35,12 V 7 A 4.006,4.006 0 0 0 32.922,3.492 l 0.6,-0.6 A 1.7,1.7 0 0 0 32.32,0 H 24 a 7.009,7.009 0 0 0 -7,7 v 5 A 3.028,3.028 0 0 0 19.052,14.854 6.969,6.969 0 0 0 23,20.326 V 21.08 A 7,7 0 0 0 17.08,27 H 12 v -2.438 a 1,1 0 0 1 0.757,-0.971 l 2.485,-0.621 a 1,1 0 0 0 -0.484,-1.94 l -2.487,0.621 A 3,3 0 0 0 10,24.562 V 27 a 2,2 0 0 0 -2,2 v 2 a 2,2 0 0 0 2,2 V 54 H 2 a 2,2 0 0 0 -2,2 v 2 a 2,2 0 0 0 2,2 z M 19,7 a 5.006,5.006 0 0 1 5,-5 h 7.586 L 30.293,3.293 A 1,1 0 0 0 31,5 2,2 0 0 1 33,7 V 8.051 A 2.491,2.491 0 0 0 31.055,8.461 2.738,2.738 0 0 0 29.816,7.854 7.859,7.859 0 0 1 27.2,6.4 1.985,1.985 0 0 0 24.805,6.4 7.847,7.847 0 0 1 22.187,7.851 2.738,2.738 0 0 0 20.948,8.458 2.491,2.491 0 0 0 19,8.051 Z m 2.026,7.522 A 1.892,1.892 0 0 0 19.684,12.949 1,1 0 0 1 19,12 v -1.5 a 0.5,0.5 0 0 1 1,0 1,1 0 0 0 2,0 A 0.708,0.708 0 0 1 22.586,9.813 9.352,9.352 0 0 0 25.987,8 9.681,9.681 0 0 0 29.414,9.818 0.708,0.708 0 0 1 30,10.5 a 1,1 0 0 0 2,0 0.5,0.5 0 0 1 1,0 V 12 a 1,1 0 0 1 -0.685,0.95 1.889,1.889 0 0 0 -1.341,1.572 v 0 a 5,5 0 0 1 -9.947,0 z M 27,20.922 V 22 a 1,1 0 0 1 -2,0 v -1.078 a 6.449,6.449 0 0 0 2,0 z m -3.791,2.158 a 2.989,2.989 0 0 0 5.582,0 A 5,5 0 0 1 32.9,27 H 19.1 a 5,5 0 0 1 4.109,-3.92 z M 10,29 h 32 v 2 H 10 Z m 30,4 V 54 H 12 V 33 Z M 2,56 h 48 v 2 H 2 Z"
         id="path459" />
      <path
         d="m 26,51 c 5.425,0 9.882,-4.712 11.547,-6.739 a 1.972,1.972 0 0 0 0,-2.522 v 0 c -1.6,-1.947 -5.78,-6.362 -10.918,-6.7 a 5.992,5.992 0 0 0 -1.256,0 c -5.138,0.343 -9.319,4.758 -10.919,6.706 a 1.972,1.972 0 0 0 0,2.523 C 16.118,46.288 20.575,51 26,51 Z m 0,-14 a 4,4 0 1 1 -4,4 4,4 0 0 1 4,-4 z m -5.646,1.989 a 6,6 0 1 0 11.292,0 21.665,21.665 0 0 1 4.348,4.011 c -1.166,1.418 -5.3,6 -9.994,6 -4.694,0 -8.843,-4.6 -10,-5.992 a 21.683,21.683 0 0 1 4.354,-4.019 z"
         id="path461" />
      <path
         d="m 53,6 h -8 a 1,1 0 0 0 0,2 h 8 a 1,1 0 0 0 0,-2 z"
         id="path463" />
      <path
         d="m 50,10 h -5 a 1,1 0 0 0 0,2 h 5 a 1,1 0 0 0 0,-2 z"
         id="path465" />
      <path
         d="M 49,0 C 42.935,0 38,4.037 38,9 a 8.385,8.385 0 0 0 4,6.948 v 2.983 a 2.066,2.066 0 0 0 3.266,1.684 L 48.944,18 H 49 C 55.065,18 60,13.963 60,9 60,4.037 55.065,0 49,0 Z m 0,16 a 2.685,2.685 0 0 1 -0.271,-0.007 0.979,0.979 0 0 0 -0.668,0.182 L 44.036,18.99 A 0.056,0.056 0 0 1 44,18.931 V 15.4 A 1,1 0 0 0 43.515,14.543 6.569,6.569 0 0 1 40,9 c 0,-3.859 4.037,-7 9,-7 4.963,0 9,3.141 9,7 0,3.859 -4.037,7 -9,7 z"
         id="path467" />
    </g>
  </g>
</svg>
