<?xml version="1.0" encoding="UTF-8" standalone="no"?>
<svg
   xmlns:dc="http://purl.org/dc/elements/1.1/"
   xmlns:cc="http://creativecommons.org/ns#"
   xmlns:rdf="http://www.w3.org/1999/02/22-rdf-syntax-ns#"
   xmlns:svg="http://www.w3.org/2000/svg"
   xmlns="http://www.w3.org/2000/svg"
   xmlns:sodipodi="http://sodipodi.sourceforge.net/DTD/sodipodi-0.dtd"
   xmlns:inkscape="http://www.inkscape.org/namespaces/inkscape"
   inkscape:export-ydpi="300"
   inkscape:export-xdpi="300"
   inkscape:export-filename="/Users/adamjenkins/InkSpace/Version4.0/Hacker/SecretTargets/bathroom.png"
   sodipodi:docname="bathroom.svg"
   inkscape:version="1.0 (4035a4f, 2020-05-01)"
   id="svg114330"
   version="1.1"
   viewBox="0 0 210 297"
   height="297mm"
   width="210mm">
  <defs
     id="defs114324" />
  <sodipodi:namedview
     inkscape:window-maximized="0"
     inkscape:window-y="23"
     inkscape:window-x="0"
     inkscape:window-height="829"
     inkscape:window-width="1395"
     showgrid="false"
     inkscape:document-rotation="0"
     inkscape:current-layer="layer1"
     inkscape:document-units="mm"
     inkscape:cy="327.9954"
     inkscape:cx="282.14"
     inkscape:zoom="1.3512447"
     inkscape:pageshadow="2"
     inkscape:pageopacity="0.0"
     borderopacity="1.0"
     bordercolor="#666666"
     pagecolor="#ffffff"
     id="base" />
  <metadata
     id="metadata114327">
    <rdf:RDF>
      <cc:Work
         rdf:about="">
        <dc:format>image/svg+xml</dc:format>
        <dc:type
           rdf:resource="http://purl.org/dc/dcmitype/StillImage" />
        <dc:title />
      </cc:Work>
    </rdf:RDF>
  </metadata>
  <g
     id="layer1"
     inkscape:groupmode="layer"
     inkscape:label="Layer 1">
    <rect
       ry="5"
       rx="5"
       y="43.714203"
       x="74.314148"
       height="88.900002"
       width="63.5"
       id="rect114893"
       style="fill:#00ffff;fill-rule:evenodd;stroke-width:2.5;stroke:#000000;stroke-opacity:1;stroke-miterlimit:4;stroke-dasharray:none;fill-opacity:1" />
    <g
       transform="matrix(0.08789062,0,0,0.08789062,83.564149,65.664205)"
       id="g1742">
      <path
         d="M 489.45703,286.55859 H 385.75391 v -26.09765 c 11.55078,-3.28125 20.03906,-13.91797 20.03906,-26.50391 0,-15.19531 -12.36328,-27.55469 -27.55469,-27.55469 -15.19141,0 -27.55469,12.35938 -27.55469,27.55469 0,12.58594 8.48828,23.22266 20.03907,26.50391 v 26.09765 h -50.74219 v 15.03125 h 169.47656 c 4.14453,0 7.51172,3.3711 7.51172,7.51563 0,4.14062 -3.36719,7.51172 -7.51172,7.51172 H 98.691406 v 15.03125 H 471.66016 l -8.53907,32.01562 14.52344,3.8711 9.57031,-35.88672 h 2.24219 c 12.42969,0 22.54297,-10.11328 22.54297,-22.54297 0,-12.43359 -10.11328,-22.54688 -22.54297,-22.54688 z M 365.71484,233.95703 c 0,-6.90625 5.61719,-12.52344 12.52344,-12.52344 6.90625,0 12.52344,5.61719 12.52344,12.52344 0,6.90625 -5.61719,12.52344 -12.52344,12.52344 -6.90625,0 -12.52344,-5.61719 -12.52344,-12.52344 z m 0,0"
         id="path1689" />
      <path
         d="m 446,427.86328 c -6.12891,22.99219 -27.03125,39.04688 -50.82422,39.04688 h -160.375 v 15.03125 h 111.875 V 512 h 55.10938 v -30.39453 c 27.78906,-2.72656 51.42968,-22.46094 58.73828,-49.8711 L 473.76953,382.05859 459.25,378.1875 Z m -59.24609,69.10547 h -25.04688 v -15.02734 h 25.04688 z m 0,0"
         id="path1691" />
      <path
         d="M 66.789062,428.17969 40.402344,331.64844 H 83.664062 V 316.61719 H 22.542969 c -4.144531,0 -7.511719,-3.3711 -7.511719,-7.51172 0,-4.14453 3.367188,-7.51563 7.511719,-7.51563 H 304.95312 V 286.55859 H 45.089844 V 37.574219 c 0,-12.433594 10.109375,-22.542969 22.542968,-22.542969 h 50.097658 c 12.42969,0 22.54297,10.109375 22.54297,22.542969 v 17.960937 c -33.76563,3.75 -60.11719,32.453125 -60.11719,67.203124 v 7.51563 h 135.26563 v -7.51563 c 0,-34.749999 -26.35157,-63.453124 -60.11719,-67.203124 V 37.574219 C 155.30469,16.855469 138.44922,0 117.73047,0 H 67.632812 C 46.914062,0 30.058594,16.855469 30.058594,37.574219 V 286.55859 H 22.542969 C 10.113281,286.55859 0,296.67187 0,309.10547 c 0,12.42969 10.113281,22.54297 22.542969,22.54297 h 2.28125 l 27.46875,100.49218 c 7.363281,26.94141 30.613281,46.40625 57.921871,49.39063 V 512 h 55.10938 v -30.05859 h 54.44922 V 466.91016 H 117.53125 c -23.644531,0 -44.507812,-15.92579 -50.742188,-38.73047 z M 147.78906,70.136719 c 26.45313,0 48.41016,19.628906 52.06641,45.089841 H 95.722656 C 99.378906,89.765625 121.33594,70.136719 147.78906,70.136719 Z M 125.24609,481.94141 h 25.04688 v 15.02734 h -25.04688 z m 0,0"
         id="path1693" />
      <path
         d="m 378.23828,102.19922 c 35.40234,0 68.72266,13.82812 93.82813,38.92969 l 10.6289,-10.625 C 454.75,102.55859 417.65625,87.171875 378.23828,87.171875 c -39.41406,0 -76.51172,15.386715 -104.45703,43.332035 l 10.62891,10.625 c 25.10546,-25.10157 58.42578,-38.92969 93.82812,-38.92969 z m 0,0"
         id="path1695" />
      <path
         d="M 454.36719,158.82812 C 434.00391,138.46484 406.96875,127.25 378.23828,127.25 c -28.72656,0 -55.76172,11.21484 -76.12891,31.57812 l 10.62891,10.62891 c 17.52344,-17.52734 40.78906,-27.17969 65.5,-27.17969 24.71484,0 47.97656,9.65235 65.50391,27.17969 z m 0,0"
         id="path1697" />
      <path
         d="m 330.43359,187.15625 10.62891,10.625 c 9.94922,-9.94531 23.15234,-15.42578 37.17578,-15.42578 14.02734,0 27.23047,5.48047 37.17578,15.42578 l 10.62891,-10.625 c -12.78906,-12.78906 -29.76563,-19.82813 -47.80469,-19.82813 -18.03906,0 -35.01562,7.03907 -47.80469,19.82813 z m 0,0"
         id="path1699" />
      <path
         d="m 140.27344,174.83984 h 15.03125 v 15.03125 h -15.03125 z m 0,0"
         id="path1701" />
      <path
         d="m 140.27344,204.89844 h 15.03125 v 15.03125 h -15.03125 z m 0,0"
         id="path1703" />
      <path
         d="m 100.19531,154.80078 h 15.03125 v 15.03125 h -15.03125 z m 0,0"
         id="path1705" />
      <path
         d="m 100.19531,184.85937 h 15.03125 v 15.03125 h -15.03125 z m 0,0"
         id="path1707" />
      <path
         d="m 180.35156,184.85937 h 15.03125 v 15.03125 h -15.03125 z m 0,0"
         id="path1709" />
      <path
         d="m 180.35156,154.80078 h 15.03125 v 15.03125 h -15.03125 z m 0,0"
         id="path1711" />
      <path
         d="m 361.20703,347.67969 h 50.09766 v 15.02734 h -50.09766 z m 0,0"
         id="path1713" />
      <path
         d="m 331.14844,347.67969 h 15.02734 v 15.02734 h -15.02734 z m 0,0"
         id="path1715" />
      <path
         d="m 117.53125,451.88281 v -15.03125 c -10.13281,0 -19.074219,-6.82422 -21.746094,-16.59765 l -14.5,3.96093 c 4.453125,16.29297 19.359374,27.66797 36.246094,27.66797 z m 0,0"
         id="path1717" />
    </g>
  </g>
</svg>
