<?xml version="1.0" encoding="UTF-8" standalone="no"?>
<svg
   xmlns:dc="http://purl.org/dc/elements/1.1/"
   xmlns:cc="http://creativecommons.org/ns#"
   xmlns:rdf="http://www.w3.org/1999/02/22-rdf-syntax-ns#"
   xmlns:svg="http://www.w3.org/2000/svg"
   xmlns="http://www.w3.org/2000/svg"
   xmlns:sodipodi="http://sodipodi.sourceforge.net/DTD/sodipodi-0.dtd"
   xmlns:inkscape="http://www.inkscape.org/namespaces/inkscape"
   inkscape:export-ydpi="300"
   inkscape:export-xdpi="300"
   inkscape:export-filename="/Users/adamjenkins/InkSpace/Version4.0/Hacker/SecretTargets/bedroom.png"
   sodipodi:docname="bedroom.svg"
   inkscape:version="1.0 (4035a4f, 2020-05-01)"
   id="svg114330"
   version="1.1"
   viewBox="0 0 210 297"
   height="297mm"
   width="210mm">
  <defs
     id="defs114324" />
  <sodipodi:namedview
     inkscape:window-maximized="0"
     inkscape:window-y="23"
     inkscape:window-x="0"
     inkscape:window-height="829"
     inkscape:window-width="1395"
     showgrid="false"
     inkscape:document-rotation="0"
     inkscape:current-layer="layer1"
     inkscape:document-units="mm"
     inkscape:cy="327.9954"
     inkscape:cx="282.14"
     inkscape:zoom="1.3512447"
     inkscape:pageshadow="2"
     inkscape:pageopacity="0.0"
     borderopacity="1.0"
     bordercolor="#666666"
     pagecolor="#ffffff"
     id="base" />
  <metadata
     id="metadata114327">
    <rdf:RDF>
      <cc:Work
         rdf:about="">
        <dc:format>image/svg+xml</dc:format>
        <dc:type
           rdf:resource="http://purl.org/dc/dcmitype/StillImage" />
        <dc:title />
      </cc:Work>
    </rdf:RDF>
  </metadata>
  <g
     id="layer1"
     inkscape:groupmode="layer"
     inkscape:label="Layer 1">
    <rect
       ry="5"
       rx="5"
       y="43.714203"
       x="74.314148"
       height="88.900002"
       width="63.5"
       id="rect114893"
       style="fill:#0000ff;fill-rule:evenodd;stroke-width:2.5;stroke:#000000;stroke-opacity:1;stroke-miterlimit:4;stroke-dasharray:none;fill-opacity:1" />
    <g
       transform="matrix(0.09375,0,0,0.09375,82.064148,64.164204)"
       id="g2587">
      <path
         d="M 392,16 H 120 A 104.12,104.12 0 0 0 16,120 V 392 A 104.12,104.12 0 0 0 120,496 H 392 A 104.12,104.12 0 0 0 496,392 V 120 A 104.12,104.12 0 0 0 392,16 Z m 88,376 a 88.1,88.1 0 0 1 -88,88 H 120 A 88.1,88.1 0 0 1 32,392 V 120 a 88.1,88.1 0 0 1 88,-88 h 272 a 88.1,88.1 0 0 1 88,88 z"
         id="path2541" />
      <path
         d="m 256,424 h -32 v -16 h -16 v 24 a 8,8 0 0 0 8,8 h 48 a 8,8 0 0 0 8,-8 v -24 h -16 z"
         id="path2543" />
      <path
         d="m 285,393.75 -40,-32 a 8.032,8.032 0 0 0 -10,0 l -40,32 a 8.0039053,8.0039053 0 0 0 10,12.5 l 35,-28.008 35,28.008 a 8.0039053,8.0039053 0 1 0 10,-12.5 z"
         id="path2545" />
      <path
         d="M 404,392.43 V 392 c 0,-17.648 -12.562,-32 -28,-32 -15.438,0 -28,14.352 -28,32 v 0.43 A 24.22,24.22 0 0 0 328,416 c 0,13.234 11.062,24 24.664,24 h 46.672 C 412.936,440 424,429.234 424,416 A 24.22,24.22 0 0 0 404,392.43 Z M 399.336,424 h -46.672 c -4.773,0 -8.664,-3.586 -8.664,-8 0,-4.414 3.891,-8 8.664,-8 a 9.034,9.034 0 0 1 2.531,0.43 8,8 0 0 0 9.828,-10.157 A 20.325,20.325 0 0 1 364,392 c 0,-8.672 5.492,-16 12,-16 6.508,0 12,7.328 12,16 a 20.325,20.325 0 0 1 -1.023,6.273 8,8 0 0 0 9.828,10.157 9.034,9.034 0 0 1 2.531,-0.43 c 4.773,0 8.664,3.586 8.664,8 0,4.414 -3.891,8 -8.664,8 z"
         id="path2547" />
      <path
         d="m 160,360 a 72.079,72.079 0 0 0 -72,72 8,8 0 0 0 8,8 72.079,72.079 0 0 0 72,-72 8,8 0 0 0 -8,-8 z m -55.328,63.328 a 56.113,56.113 0 0 1 46.656,-46.656 56.113,56.113 0 0 1 -46.656,46.656 z"
         id="path2549" />
      <path
         d="m 200,112 h -64 a 8,8 0 0 0 0,16 h 56 v 56 h -56 a 8,8 0 0 0 -8,8 v 72 a 8,8 0 0 0 8,8 h 64 a 8,8 0 0 0 0,-16 h -56 v -56 h 56 a 8,8 0 0 0 8,-8 v -72 a 8,8 0 0 0 -8,-8 z"
         id="path2551" />
      <path
         d="m 304,112 h -64 a 8,8 0 0 0 0,16 h 56 v 56 h -56 a 8,8 0 0 0 -8,8 v 72 a 8,8 0 0 0 8,8 h 64 a 8,8 0 0 0 0,-16 h -56 v -56 h 56 a 8,8 0 0 0 8,-8 v -72 a 8,8 0 0 0 -8,-8 z"
         id="path2553" />
      <path
         d="m 360,168 a 24,24 0 1 0 24,24 24.027,24.027 0 0 0 -24,-24 z m 0,32 a 8,8 0 1 1 8,-8 8.005,8.005 0 0 1 -8,8 z"
         id="path2555" />
      <circle
         cx="360"
         cy="144"
         r="8"
         id="circle2557" />
      <circle
         cx="360"
         cy="240"
         r="8"
         id="circle2559" />
      <circle
         cx="360"
         cy="112"
         r="8"
         id="circle2561" />
      <circle
         cx="360"
         cy="272"
         r="8"
         id="circle2563" />
      <path
         d="M 400,56 H 112 a 56.068,56.068 0 0 0 -56,56 v 208 a 8,8 0 0 0 8,8 h 384 a 8,8 0 0 0 8,-8 V 112 A 56.068,56.068 0 0 0 400,56 Z m 40,256 H 72 V 112 a 40.047,40.047 0 0 1 40,-40 h 288 a 40.047,40.047 0 0 1 40,40 z"
         id="path2565" />
    </g>
  </g>
</svg>
