<?xml version="1.0" encoding="UTF-8" standalone="no"?>
<svg
   xmlns:dc="http://purl.org/dc/elements/1.1/"
   xmlns:cc="http://creativecommons.org/ns#"
   xmlns:rdf="http://www.w3.org/1999/02/22-rdf-syntax-ns#"
   xmlns:svg="http://www.w3.org/2000/svg"
   xmlns="http://www.w3.org/2000/svg"
   xmlns:sodipodi="http://sodipodi.sourceforge.net/DTD/sodipodi-0.dtd"
   xmlns:inkscape="http://www.inkscape.org/namespaces/inkscape"
   sodipodi:docname="cardTarget.svg"
   inkscape:version="1.0 (4035a4f, 2020-05-01)"
   id="svg114330"
   version="1.1"
   viewBox="0 0 210 297"
   height="297mm"
   width="210mm">
  <defs
     id="defs114324" />
  <sodipodi:namedview
     inkscape:window-maximized="0"
     inkscape:window-y="23"
     inkscape:window-x="0"
     inkscape:window-height="829"
     inkscape:window-width="1440"
     showgrid="false"
     inkscape:document-rotation="0"
     inkscape:current-layer="layer1"
     inkscape:document-units="mm"
     inkscape:cy="422.50423"
     inkscape:cx="372.06717"
     inkscape:zoom="0.98361079"
     inkscape:pageshadow="2"
     inkscape:pageopacity="0.0"
     borderopacity="1.0"
     bordercolor="#666666"
     pagecolor="#ffffff"
     id="base" />
  <metadata
     id="metadata114327">
    <rdf:RDF>
      <cc:Work
         rdf:about="">
        <dc:format>image/svg+xml</dc:format>
        <dc:type
           rdf:resource="http://purl.org/dc/dcmitype/StillImage" />
        <dc:title />
      </cc:Work>
    </rdf:RDF>
  </metadata>
  <g
     id="layer1"
     inkscape:groupmode="layer"
     inkscape:label="Layer 1">
    <rect
       ry="5"
       rx="5"
       y="43.714203"
       x="74.314148"
       height="88.900002"
       width="63.5"
       id="rect114893"
       style="fill:none;fill-rule:evenodd;stroke-width:2.5;stroke:#000000;stroke-opacity:1;stroke-miterlimit:4;stroke-dasharray:none" />
    <g
       transform="matrix(0.08216809,0,0,0.08216809,85.028911,67.128962)"
       id="g847">
      <path
         d="m 250.846,276.998 c -14.388,0 -26.094,11.706 -26.094,26.094 0,14.388 11.706,26.093 26.094,26.093 14.388,0 26.093,-11.705 26.093,-26.093 0,-14.388 -11.705,-26.094 -26.093,-26.094 z m 0,37.186 c -6.117,0 -11.094,-4.977 -11.094,-11.093 0,-6.117 4.977,-11.094 11.094,-11.094 6.116,0 11.093,4.977 11.093,11.094 0,6.117 -4.977,11.093 -11.093,11.093 z"
         id="path839" />
      <path
         d="m 302.66,283.573 h -3.89 c -0.077,-0.189 -0.156,-0.378 -0.235,-0.566 l 2.753,-2.753 c 4.587,-4.59 4.587,-12.058 -0.002,-16.649 l -10.953,-10.953 c -2.225,-2.224 -5.181,-3.448 -8.325,-3.448 -3.146,0 -6.102,1.225 -8.326,3.448 l -2.75,2.751 c -0.188,-0.079 -0.377,-0.157 -0.566,-0.234 v -3.891 c 0,-6.492 -5.281,-11.773 -11.773,-11.773 H 243.1 c -6.492,0 -11.773,5.281 -11.773,11.773 v 3.891 c -0.189,0.077 -0.378,0.155 -0.566,0.234 l -2.75,-2.751 c -2.225,-2.224 -5.181,-3.448 -8.325,-3.448 -3.146,0 -6.102,1.225 -8.326,3.448 l -10.953,10.953 c -2.224,2.225 -3.448,5.181 -3.448,8.326 0,3.145 1.225,6.101 3.448,8.325 l 2.751,2.75 c -0.079,0.189 -0.157,0.378 -0.235,0.567 h -3.89 c -6.492,0 -11.773,5.281 -11.773,11.772 v 15.491 c 0,6.492 5.281,11.773 11.773,11.773 h 3.891 c 0.077,0.189 0.155,0.378 0.234,0.566 l -2.751,2.751 c -4.59,4.591 -4.59,12.06 0,16.649 l 10.953,10.955 c 4.593,4.592 12.061,4.591 16.651,-10e-4 l 2.75,-2.751 c 0.188,0.08 0.377,0.158 0.566,0.235 v 3.891 c 0,6.491 5.281,11.772 11.773,11.772 h 15.491 c 6.492,0 11.773,-5.281 11.773,-11.772 v -3.892 c 0.189,-0.077 0.378,-0.155 0.565,-0.234 l 2.751,2.752 c 4.591,4.59 12.059,4.592 16.651,0 l 10.955,-10.956 c 4.587,-4.59 4.587,-12.057 -10e-4,-16.648 l -2.752,-2.751 c 0.079,-0.188 0.158,-0.377 0.234,-0.566 h 3.891 c 6.492,0 11.773,-5.281 11.773,-11.773 v -15.491 c 0.002,-6.491 -5.279,-11.772 -11.771,-11.772 z m -3.227,24.037 h -6.004 c -3.359,0 -6.309,2.233 -7.22,5.467 -0.776,2.76 -1.887,5.437 -3.299,7.954 -1.644,2.931 -1.138,6.597 1.237,8.973 l 4.25,4.249 -6.391,6.391 -4.249,-4.249 c -2.375,-2.377 -6.043,-2.882 -8.972,-1.239 -2.52,1.413 -5.196,2.523 -7.957,3.302 -3.232,0.911 -5.465,3.86 -5.465,7.219 v 6.003 h -9.038 v -6.003 c 0,-3.357 -2.231,-6.306 -5.463,-7.218 -2.684,-0.759 -5.353,-1.841 -7.957,-3.302 -2.932,-1.643 -6.598,-1.14 -8.974,1.238 l -4.249,4.249 -6.39,-6.391 4.249,-4.25 c 2.376,-2.376 2.881,-6.042 1.237,-8.972 -1.412,-2.518 -2.522,-5.194 -3.299,-7.954 -0.911,-3.233 -3.86,-5.467 -7.22,-5.467 h -6.004 v -9.037 h 6.004 c 3.359,0 6.31,-2.234 7.22,-5.468 0.776,-2.758 1.887,-5.435 3.3,-7.955 1.643,-2.93 1.137,-6.596 -1.238,-8.972 l -4.249,-4.248 6.391,-6.391 4.248,4.249 c 2.378,2.375 6.043,2.881 8.972,1.238 2.521,-1.413 5.196,-2.523 7.955,-3.3 3.233,-0.911 5.467,-3.86 5.467,-7.22 v -6.004 h 9.038 v 6.004 c 0,3.359 2.233,6.309 5.467,7.22 2.759,0.776 5.435,1.887 7.955,3.3 2.929,1.643 6.595,1.137 8.972,-1.238 l 4.249,-4.249 6.391,6.39 -4.249,4.249 c -2.376,2.376 -2.882,6.041 -1.239,8.972 1.413,2.521 2.523,5.197 3.3,7.955 0.91,3.233 3.86,5.468 7.22,5.468 h 6.004 z"
         id="path841" />
      <path
         d="m 424.678,320.356 c -24.591,0 -44.597,20.006 -44.597,44.596 0,24.591 20.006,44.597 44.597,44.597 24.59,0 44.596,-20.006 44.596,-44.597 0,-24.59 -20.006,-44.596 -44.596,-44.596 z m 0,74.192 c -16.319,0 -29.597,-13.277 -29.597,-29.597 0,-16.32 13.277,-29.596 29.597,-29.596 16.32,0 29.596,13.276 29.596,29.596 0,16.32 -13.277,29.597 -29.596,29.597 z"
         id="path843" />
      <path
         d="m 432.178,290.599 v -42.502 h 42.574 c 8.033,0 14.568,-6.553 14.568,-14.606 0,-3.846 -1.519,-7.481 -4.276,-10.24 L 267.832,6.038 c -8.001,-7.999 -20.916,-8.051 -28.981,-0.151 l -36.456,35.699 c -2.96,2.897 -3.01,7.646 -0.111,10.605 2.898,2.961 7.647,3.01 10.605,0.111 l 36.456,-35.699 c 2.197,-2.15 5.71,-2.13 7.88,0.042 l 216.452,216.452 h -48.999 c -4.143,0 -7.5,3.357 -7.5,7.5 v 50.018 c -16.044,1.61 -30.964,8.422 -42.627,18.988 v -82.009 h 2.853 c 10.248,0 18.586,-8.338 18.586,-18.586 v -13.102 c 0,-10.248 -8.338,-18.585 -18.586,-18.585 H 124.26 c -10.248,0 -18.586,8.337 -18.586,18.585 v 13.102 c 0,10.248 8.338,18.586 18.586,18.586 h 2.854 v 148.384 h -2.854 c -10.248,0 -18.586,8.338 -18.586,18.586 v 13.102 c 0,10.248 8.338,18.586 18.586,18.586 h 247.094 c 3.591,7.511 7.469,15.623 11.302,23.641 H 84.487 V 240.597 c 0,-4.143 -3.357,-7.5 -7.5,-7.5 H 28.259 L 187.881,76.79 c 2.96,-2.897 3.01,-7.646 0.111,-10.605 -2.898,-2.96 -7.647,-3.01 -10.605,-0.111 L 16.985,223.143 c -2.828,2.771 -4.386,6.445 -4.386,10.347 0,8.055 6.536,14.607 14.569,14.607 h 42.318 v 202.239 c 0,8.025 6.529,14.555 14.555,14.555 h 305.786 c 14.511,30.351 1.129,2.362 17.209,35.994 3.28,6.859 10.04,11.12 17.642,11.12 7.521,0 14.217,-4.17 17.534,-10.901 0.025,-0.051 0.051,-0.102 0.075,-0.153 l 19.802,-41.419 c 1.786,-3.737 0.205,-8.215 -3.531,-10.002 -3.736,-1.785 -8.214,-0.206 -10.002,3.531 l -19.735,41.282 c -0.002,0.004 -0.005,0.009 -0.007,0.013 -0.009,0.02 -0.019,0.039 -0.028,0.059 -1.653,3.461 -6.56,3.462 -8.215,0.002 -5.984,-12.517 -9.661,-20.206 -19.243,-40.248 -0.002,-0.004 -0.003,-0.008 -0.005,-0.013 -0.394,-0.823 -31.974,-66.879 -32.367,-67.703 -15.255,-39.567 14.737,-81.206 55.723,-81.209 0.022,0 0.043,-0.003 0.064,-0.003 32.904,-0.006 59.664,26.799 59.664,59.711 0,7.384 -1.347,14.615 -4.002,21.494 l -16.715,34.961 c -1.786,3.737 -0.205,8.215 3.531,10.002 3.736,1.787 8.214,0.206 10.002,-3.531 18.097,-37.854 17.061,-35.574 17.319,-36.407 3.229,-8.496 4.864,-17.415 4.864,-26.519 10e-4,-38.675 -29.531,-70.579 -67.228,-74.353 z M 120.674,209.007 v -13.102 c 0,-1.977 1.608,-3.585 3.586,-3.585 h 253.144 c 1.978,0 3.586,1.608 3.586,3.585 v 13.102 c 0,1.978 -1.608,3.586 -3.586,3.586 -6.716,0 -246.393,0 -253.144,0 -1.977,0 -3.586,-1.608 -3.586,-3.586 z m 21.44,18.586 h 217.438 v 100.714 c -8.314,14.753 -11.165,31.683 -8.787,47.67 H 142.115 V 227.593 Z M 124.26,411.251 c -1.978,0 -3.586,-1.608 -3.586,-3.586 v -13.102 c 0,-1.978 1.608,-3.586 3.586,-3.586 h 230.367 c 2.192,5.889 2.575,5.671 9.556,20.273 H 124.26 Z"
         id="path845" />
    </g>
  </g>
</svg>
