<?xml version="1.0" encoding="UTF-8" standalone="no"?>
<svg
   xmlns:dc="http://purl.org/dc/elements/1.1/"
   xmlns:cc="http://creativecommons.org/ns#"
   xmlns:rdf="http://www.w3.org/1999/02/22-rdf-syntax-ns#"
   xmlns:svg="http://www.w3.org/2000/svg"
   xmlns="http://www.w3.org/2000/svg"
   xmlns:sodipodi="http://sodipodi.sourceforge.net/DTD/sodipodi-0.dtd"
   xmlns:inkscape="http://www.inkscape.org/namespaces/inkscape"
   inkscape:export-ydpi="300"
   inkscape:export-xdpi="300"
   inkscape:export-filename="/Users/adamjenkins/InkSpace/Version4.0/Hacker/SecretTargets/kitchen.png"
   sodipodi:docname="kitchen.svg"
   inkscape:version="1.0 (4035a4f, 2020-05-01)"
   id="svg114330"
   version="1.1"
   viewBox="0 0 210 297"
   height="297mm"
   width="210mm">
  <defs
     id="defs114324" />
  <sodipodi:namedview
     inkscape:window-maximized="0"
     inkscape:window-y="23"
     inkscape:window-x="0"
     inkscape:window-height="829"
     inkscape:window-width="1395"
     showgrid="false"
     inkscape:document-rotation="0"
     inkscape:current-layer="layer1"
     inkscape:document-units="mm"
     inkscape:cy="327.9954"
     inkscape:cx="282.14"
     inkscape:zoom="1.3512447"
     inkscape:pageshadow="2"
     inkscape:pageopacity="0.0"
     borderopacity="1.0"
     bordercolor="#666666"
     pagecolor="#ffffff"
     id="base" />
  <metadata
     id="metadata114327">
    <rdf:RDF>
      <cc:Work
         rdf:about="">
        <dc:format>image/svg+xml</dc:format>
        <dc:type
           rdf:resource="http://purl.org/dc/dcmitype/StillImage" />
        <dc:title />
      </cc:Work>
    </rdf:RDF>
  </metadata>
  <g
     id="layer1"
     inkscape:groupmode="layer"
     inkscape:label="Layer 1">
    <rect
       ry="5"
       rx="5"
       y="43.714203"
       x="74.314148"
       height="88.900002"
       width="63.5"
       id="rect114893"
       style="fill:#ff6600;fill-rule:evenodd;stroke-width:2.5;stroke:#000000;stroke-opacity:1;stroke-miterlimit:4;stroke-dasharray:none;fill-opacity:1" />
    <g
       transform="matrix(0.10334644,0,0,0.10334644,78.935707,61.035763)"
       id="g3003">
      <path
         id="path2961"
         d="m 460.5,215 h -66.19 l -18,-15 h 66.19 c 2.762,0 5,-2.239 5,-5 0,-2.761 -2.238,-5 -5,-5 h -100 c -2.762,0 -5,2.239 -5,5 0,2.761 2.238,5 5,5 h 18.189 l 18,15 H 264.31 l -18,-15 h 66.19 c 2.762,0 5,-2.239 5,-5 0,-2.761 -2.238,-5 -5,-5 h -100 c -2.761,0 -5,2.239 -5,5 0,2.761 2.239,5 5,5 h 18.189 l 18,15 H 134.31 l -18,-15 h 66.19 c 2.761,0 5,-2.239 5,-5 0,-2.761 -2.239,-5 -5,-5 h -100 c -2.761,0 -5,2.239 -5,5 0,2.761 2.239,5 5,5 h 18.19 l 18,15 H 64.5 c -14.888,0 -27,12.112 -27,27 v 226 c 0,14.888 12.112,27 27,27 h 396 c 14.888,0 27,-12.112 27,-27 V 242 c 0,-14.888 -12.112,-27 -27,-27 z m -23,175 h -150 v -20 h 150 z m -150,10 h 150 v 15 h -150 z m 150,-40 h -150 v -45 h 150 z m -150,65 h 150 v 20 h -150 z m 160,-115 c 0,-2.762 -2.238,-5 -5,-5 h -160 c -2.762,0 -5,2.238 -5,5 v 135 h -30 V 310 c 0,-2.762 -2.239,-5 -5,-5 h -160 c -2.761,0 -5,2.238 -5,5 v 135 h -30 V 285 h 430 v 160 h -30 z m -285,135 52.5,-70 h 17.5 L 180,445 Z m -40,0 52.5,-70 h 27.5 L 150,445 Z m -30,0 52.5,-70 h 17.5 L 110,445 Z m 145,-80 h -150 v -50 h 150 z m -150,10 h 45 l -45,60 z m 150,10 v 60 h -45 z M 64.5,225 h 396 c 9.374,0 17,7.626 17,17 v 33 h -430 v -33 c 0,-9.374 7.626,-17 17,-17 z m 396,260 h -396 c -9.374,0 -17,-7.626 -17,-17 v -13 h 430 v 13 c 0,9.374 -7.626,17 -17,17 z" />
      <path
         id="path2963"
         d="m 152.5,345 h 20 c 2.761,0 5,-2.238 5,-5 0,-2.762 -2.239,-5 -5,-5 h -20 c -2.761,0 -5,2.238 -5,5 0,2.762 2.239,5 5,5 z" />
      <circle
         id="circle2965"
         r="10"
         cy="340"
         cx="392.5" />
      <circle
         id="circle2967"
         r="10"
         cy="250"
         cx="362.5" />
      <circle
         id="circle2969"
         r="10"
         cy="250"
         cx="312.5" />
      <circle
         id="circle2971"
         r="10"
         cy="250"
         cx="262.5" />
      <circle
         id="circle2973"
         r="10"
         cy="250"
         cx="212.5" />
      <circle
         id="circle2975"
         r="10"
         cy="250"
         cx="162.5" />
      <circle
         id="circle2977"
         r="10"
         cy="340"
         cx="362.5" />
      <circle
         id="circle2979"
         r="10"
         cy="340"
         cx="332.5" />
      <path
         id="path2981"
         d="m 289.843,135.506 c -16.895,-9.592 -37.768,-9.605 -54.686,0 -8.934,5.072 -10.626,17.32 -3.286,24.66 0.122,0.082 4.221,4.835 11.324,4.835 2.647,0 5.257,-0.688 7.547,-1.99 7.255,-4.126 16.248,-4.131 23.514,-0.001 6.196,3.525 13.857,2.169 18.651,-2.624 0.083,-0.132 5.815,-4.996 4.676,-13.414 -0.657,-4.868 -3.48,-9.047 -7.74,-11.466 z m -4.005,17.808 c -1.732,1.731 -4.575,2.177 -6.638,1.003 -10.318,-5.866 -23.067,-5.874 -33.4,0 -2.063,1.173 -4.902,0.732 -6.645,-1.011 l -0.22,-0.219 c -2.642,-2.642 -2.047,-7.064 1.16,-8.885 13.833,-7.855 30.957,-7.866 44.811,0 1.523,0.865 2.532,2.363 2.77,4.11 0.425,3.153 -1.774,4.902 -1.838,5.002 z" />
      <path
         id="path2983"
         d="m 324.01,129.283 0.223,-0.223 c 6.662,-6.661 5.971,-17.677 -1.483,-23.443 -35.242,-27.251 -85.011,-27.44 -120.497,0 -7.451,5.761 -8.149,16.778 -1.485,23.443 l 0.223,0.222 c 5.616,5.618 14.436,6.101 20.599,1.341 23.927,-18.486 57.731,-18.615 81.825,0 6.116,4.729 14.961,4.294 20.595,-1.34 z M 215.475,122.71 c -0.984,0.76 -2.163,1.162 -3.409,1.162 -2.688,0 -4.109,-1.8 -4.227,-1.882 -2.384,-2.385 -2.189,-6.357 0.531,-8.461 31.65,-24.475 76.383,-24.652 108.263,-10e-4 1.298,1.004 2.07,2.461 2.175,4.102 0.188,2.921 -1.792,4.469 -1.868,4.583 -1.069,1.07 -2.491,1.659 -4.003,1.659 -0.001,0 -0.001,0 -0.001,0 -1.246,0 -2.425,-0.401 -3.408,-1.161 -13.363,-10.325 -30.065,-16.012 -47.025,-16.012 -16.964,0 -33.665,5.686 -47.028,16.011 z" />
      <path
         id="path2985"
         d="m 170.263,98.557 c 5.814,5.815 15.031,6.066 21.227,0.835 40.864,-34.491 101.061,-34.571 142.02,0 6.164,5.202 15.381,5.01 21.224,-0.832 l 0.223,-0.223 c 6.454,-6.454 6.047,-17.086 -0.926,-22.988 -52.649,-44.563 -130.291,-44.666 -183.061,0 -6.994,5.92 -7.365,16.55 -0.922,22.992 z m 7.168,-15.575 c 48.928,-41.414 121.102,-41.505 170.139,0 2.509,2.124 2.648,5.953 0.319,8.281 l -0.223,0.223 c -2.131,2.129 -5.469,2.152 -7.706,0.265 -44.583,-37.631 -110.233,-37.718 -154.92,0 -2.261,1.908 -5.597,1.844 -7.709,-0.268 l -0.216,-0.216 c -1.134,-1.134 -1.722,-2.641 -1.655,-4.244 0.065,-1.585 0.766,-3.021 1.971,-4.041 z" />
      <path
         id="path2987"
         d="m 87.5,155 c 13.785,0 25,-11.215 25,-25 0,-13.785 -11.215,-25 -25,-25 -13.785,0 -25,11.215 -25,25 0,13.785 11.215,25 25,25 z m 0,-40 c 8.271,0 15,6.729 15,15 0,8.271 -6.729,15 -15,15 -8.271,0 -15,-6.729 -15,-15 0,-8.271 6.729,-15 15,-15 z" />
      <path
         id="path2989"
         d="m 432.5,120 c 16.542,0 30,-13.458 30,-30 0,-16.542 -13.458,-30 -30,-30 -16.542,0 -30,13.458 -30,30 0,16.542 13.458,30 30,30 z m 0,-50 c 11.028,0 20,8.972 20,20 0,11.028 -8.972,20 -20,20 -11.028,0 -20,-8.972 -20,-20 0,-11.028 8.972,-20 20,-20 z" />
      <circle
         id="circle2991"
         r="7.5"
         cy="152.5"
         cx="470" />
      <circle
         id="circle2993"
         r="7.5"
         cy="132.5"
         cx="370" />
      <circle
         id="circle2995"
         r="7.5"
         cy="37.5"
         cx="355" />
      <circle
         id="circle2997"
         r="7.5"
         cy="37.5"
         cx="85" />
      <circle
         id="circle2999"
         r="7.5"
         cy="127.5"
         cx="165" />
      <circle
         id="circle3001"
         r="7.5"
         cy="182.5"
         cx="45" />
    </g>
  </g>
</svg>
