<?xml version="1.0" encoding="UTF-8" standalone="no"?>
<svg
   xmlns:dc="http://purl.org/dc/elements/1.1/"
   xmlns:cc="http://creativecommons.org/ns#"
   xmlns:rdf="http://www.w3.org/1999/02/22-rdf-syntax-ns#"
   xmlns:svg="http://www.w3.org/2000/svg"
   xmlns="http://www.w3.org/2000/svg"
   xmlns:sodipodi="http://sodipodi.sourceforge.net/DTD/sodipodi-0.dtd"
   xmlns:inkscape="http://www.inkscape.org/namespaces/inkscape"
   inkscape:export-ydpi="300"
   inkscape:export-xdpi="300"
   inkscape:export-filename="/Users/adamjenkins/InkSpace/Version4.0/Hacker/SecretTargets/livingRoom.png"
   sodipodi:docname="livingRoom.svg"
   inkscape:version="1.0 (4035a4f, 2020-05-01)"
   id="svg114330"
   version="1.1"
   viewBox="0 0 210 297"
   height="297mm"
   width="210mm">
  <defs
     id="defs114324" />
  <sodipodi:namedview
     inkscape:window-maximized="0"
     inkscape:window-y="23"
     inkscape:window-x="0"
     inkscape:window-height="829"
     inkscape:window-width="1395"
     showgrid="false"
     inkscape:document-rotation="0"
     inkscape:current-layer="layer1"
     inkscape:document-units="mm"
     inkscape:cy="326.51528"
     inkscape:cx="319.88298"
     inkscape:zoom="1.3512447"
     inkscape:pageshadow="2"
     inkscape:pageopacity="0.0"
     borderopacity="1.0"
     bordercolor="#666666"
     pagecolor="#ffffff"
     id="base" />
  <metadata
     id="metadata114327">
    <rdf:RDF>
      <cc:Work
         rdf:about="">
        <dc:format>image/svg+xml</dc:format>
        <dc:type
           rdf:resource="http://purl.org/dc/dcmitype/StillImage" />
        <dc:title />
      </cc:Work>
    </rdf:RDF>
  </metadata>
  <g
     id="layer1"
     inkscape:groupmode="layer"
     inkscape:label="Layer 1">
    <rect
       ry="5"
       rx="5"
       y="43.714203"
       x="74.314148"
       height="88.900002"
       width="63.5"
       id="rect114893"
       style="fill:#800000;fill-rule:evenodd;stroke-width:2.5;stroke:#000000;stroke-opacity:1;stroke-miterlimit:4;stroke-dasharray:none;fill-opacity:1" />
    <g
       id="g2463"
       transform="matrix(0.10145845,0,0,0.10145845,80.090755,62.19079)">
      <path
         id="path2438"
         d="m 285.214,373.4 c 1.919,0 3.839,-0.732 5.304,-2.197 2.929,-2.929 2.929,-7.678 0,-10.606 -25.259,-25.259 -11.202,-11.202 -26.062,-26.062 -4.684,-4.685 -12.257,-4.667 -16.922,0 -14.589,14.589 -11.462,11.462 -26.062,26.062 -2.929,2.929 -2.929,7.678 0,10.606 1.629,1.629 3.821,2.349 5.949,2.166 v 17.467 c -2.733,1.12 -4.659,3.803 -4.659,6.939 0,4.142 3.357,7.5 7.5,7.5 h 51.465 c 4.143,0 7.5,-3.358 7.5,-7.5 0,-3.136 -1.926,-5.819 -4.659,-6.939 v -17.467 c 0.216,0.018 0.431,0.031 0.646,0.031 z m -15.645,16.875 h -27.146 v -29.414 l 13.573,-13.573 13.573,13.573 z" />
      <path
         id="path2440"
         d="m 250.604,420.349 c -4.143,0 -7.5,3.358 -7.5,7.5 0,4.142 3.357,7.5 7.5,7.5 h 10.783 c 4.143,0 7.5,-3.358 7.5,-7.5 0,-4.142 -3.357,-7.5 -7.5,-7.5 z" />
      <path
         id="path2442"
         d="m 288.448,121.211 c 0,-17.894 -14.558,-32.452 -32.452,-32.452 -17.894,0 -32.452,14.558 -32.452,32.452 0,17.894 14.558,32.452 32.452,32.452 17.894,0 32.452,-14.558 32.452,-32.452 z m -24.952,15.734 v -13.398 c 0,-4.142 -3.357,-7.5 -7.5,-7.5 -4.143,0 -7.5,3.358 -7.5,7.5 v 13.398 c -5.875,-2.812 -9.952,-8.798 -9.952,-15.734 0,-9.623 7.829,-17.452 17.452,-17.452 9.623,0 17.452,7.829 17.452,17.452 0,6.936 -4.078,12.922 -9.952,15.734 z" />
      <path
         id="path2444"
         d="m 255.996,165.44 c -11.991,0 -21.747,9.756 -21.747,21.748 0,11.992 9.756,21.748 21.747,21.748 11.991,0 21.747,-9.756 21.747,-21.748 0,-11.992 -9.756,-21.748 -21.747,-21.748 z m 0,28.496 c -3.721,0 -6.747,-3.027 -6.747,-6.748 0,-3.721 3.026,-6.748 6.747,-6.748 3.721,0 6.747,3.027 6.747,6.748 0,3.721 -3.027,6.748 -6.747,6.748 z" />
      <path
         id="path2446"
         d="m 277.743,241.653 c 0,-11.992 -9.756,-21.748 -21.747,-21.748 -11.991,0 -21.747,9.756 -21.747,21.748 0,11.992 9.756,21.748 21.747,21.748 11.991,0 21.747,-9.756 21.747,-21.748 z m -21.747,6.748 c -3.721,0 -6.747,-3.027 -6.747,-6.748 0,-3.721 3.026,-6.748 6.747,-6.748 3.721,0 6.747,3.027 6.747,6.748 0,3.721 -3.027,6.748 -6.747,6.748 z" />
      <path
         id="path2448"
         d="m 426.668,293.31 c 0,-10e-4 0,-0.002 0,-0.002 L 404.742,191.082 c -0.869,-4.049 -4.852,-6.629 -8.906,-5.76 -4.05,0.869 -6.629,4.856 -5.76,8.906 l 19.981,93.155 h -136.56 c -4.143,0 -7.5,3.358 -7.5,7.5 0,4.142 3.357,7.5 7.5,7.5 h 139.777 c 0.312,4.777 20.657,65.621 -11.538,135.675 -3.896,8.476 -12.439,13.917 -21.662,13.917 H 131.917 c -9.069,0 -17.704,-5.308 -21.661,-13.917 C 78.337,368.604 98.144,308.332 98.718,302.383 h 139.777 c 4.143,0 7.5,-3.358 7.5,-7.5 0,-4.142 -3.357,-7.5 -7.5,-7.5 H 101.935 L 152.572,51.3 c 38.93,24.081 168.359,23.807 206.847,0 l 23.316,108.706 c 0.868,4.051 4.856,6.627 8.906,5.76 4.05,-0.869 6.629,-4.856 5.76,-8.906 L 370.984,33.7 C 369.168,4.681 285.16,0.009 256.121,0.001 h -0.004 c -0.011,0 -0.111,0 -0.121,0 -29.04,0 -113.172,4.654 -114.99,33.7 L 85.324,293.309 v 10e-4 c -0.567,7.827 -24.339,73.458 11.304,151.012 4.283,9.319 12.023,16.392 21.264,19.996 7.583,14.28 16.384,27.605 26.218,39.622 4.191,5.122 10.15,8.06 16.349,8.06 h 191.076 c 6.198,0 12.157,-2.938 16.348,-8.06 9.835,-12.017 18.636,-25.342 26.219,-39.623 9.24,-3.604 16.98,-10.677 21.264,-19.996 1.801,-3.919 3.479,-7.89 5.035,-11.907 28.121,-72.636 6.991,-130.819 6.267,-139.104 z M 340.693,25.819 c 12.573,4.371 14.988,8.221 15.294,8.828 -0.254,0.504 -1.96,3.242 -9.719,6.657 -7.453,3.257 -16.722,5.596 -24.727,7.213 z M 302.45,17.716 c 7.412,0.921 15.007,2.142 22.303,3.734 l -25.769,30.54 c -8.362,0.945 -17.499,1.634 -27.142,2.001 z m -42.806,-2.695 c 8.426,0.072 16.689,0.394 24.652,0.95 L 251.981,54.27 c -8.421,-0.08 -16.68,-0.408 -24.634,-0.971 z m -19.877,0.297 -30.559,36.219 c -7.219,-0.905 -15.178,-2.184 -22.279,-3.762 l 25.67,-30.424 c 8.08,-0.924 17.326,-1.653 27.168,-2.033 z m -49.763,5.552 -18.985,22.501 c -3.858,-1.354 -13.171,-5.064 -15.015,-8.724 3.432,-6.809 26.561,-12.258 34,-13.777 z m 166.269,473.57 c -1.351,1.65 -3.033,2.559 -4.739,2.559 H 160.458 c -1.706,0 -3.389,-0.909 -4.74,-2.56 -6.954,-8.497 -13.37,-17.697 -19.161,-27.465 h 238.879 c -5.792,9.769 -12.208,18.969 -19.163,27.466 z" />
    </g>
  </g>
</svg>
