<?xml version="1.0" encoding="UTF-8" standalone="no"?>
<svg
   xmlns:dc="http://purl.org/dc/elements/1.1/"
   xmlns:cc="http://creativecommons.org/ns#"
   xmlns:rdf="http://www.w3.org/1999/02/22-rdf-syntax-ns#"
   xmlns:svg="http://www.w3.org/2000/svg"
   xmlns="http://www.w3.org/2000/svg"
   xmlns:sodipodi="http://sodipodi.sourceforge.net/DTD/sodipodi-0.dtd"
   xmlns:inkscape="http://www.inkscape.org/namespaces/inkscape"
   inkscape:export-ydpi="300"
   inkscape:export-xdpi="300"
   inkscape:export-filename="/Users/adamjenkins/InkSpace/Version4.0/Hacker/SecretTargets/personal.png"
   sodipodi:docname="personal.svg"
   inkscape:version="1.0 (4035a4f, 2020-05-01)"
   id="svg114330"
   version="1.1"
   viewBox="0 0 210 297"
   height="297mm"
   width="210mm">
  <defs
     id="defs114324" />
  <sodipodi:namedview
     inkscape:window-maximized="0"
     inkscape:window-y="23"
     inkscape:window-x="0"
     inkscape:window-height="829"
     inkscape:window-width="1395"
     showgrid="false"
     inkscape:document-rotation="0"
     inkscape:current-layer="layer1"
     inkscape:document-units="mm"
     inkscape:cy="327.9954"
     inkscape:cx="282.14"
     inkscape:zoom="1.3512447"
     inkscape:pageshadow="2"
     inkscape:pageopacity="0.0"
     borderopacity="1.0"
     bordercolor="#666666"
     pagecolor="#ffffff"
     id="base" />
  <metadata
     id="metadata114327">
    <rdf:RDF>
      <cc:Work
         rdf:about="">
        <dc:format>image/svg+xml</dc:format>
        <dc:type
           rdf:resource="http://purl.org/dc/dcmitype/StillImage" />
        <dc:title />
      </cc:Work>
    </rdf:RDF>
  </metadata>
  <g
     id="layer1"
     inkscape:groupmode="layer"
     inkscape:label="Layer 1">
    <rect
       ry="5"
       rx="5"
       y="43.714203"
       x="74.314148"
       height="88.900002"
       width="63.5"
       id="rect114893"
       style="fill:#999999;fill-rule:evenodd;stroke-width:2.5;stroke:#000000;stroke-opacity:1;stroke-miterlimit:4;stroke-dasharray:none;fill-opacity:1" />
    <g
       transform="matrix(0.10098993,0,0,0.10098993,80.210726,65.990997)"
       id="g1930">
      <path
         d="m 108.78516,315.69141 c -34.027348,0 -61.710941,27.68359 -61.710941,61.71093 0,34.03125 27.683593,61.71485 61.710941,61.71485 34.03125,0 61.71484,-27.6836 61.71484,-61.71485 0,-34.02734 -27.68359,-61.71093 -61.71484,-61.71093 z m 0,108.42578 c -25.75391,0 -46.710941,-20.95703 -46.710941,-46.71485 0,-25.75781 20.957031,-46.71093 46.710941,-46.71093 25.75781,0 46.71484,20.95312 46.71484,46.71093 0,25.75782 -20.95703,46.71485 -46.71484,46.71485 z m 0,0"
         id="path1883" />
      <path
         d="m 397.80859,315.69141 c -34.02734,0 -61.71484,27.68359 -61.71484,61.71093 0,34.03125 27.6875,61.71485 61.71484,61.71485 34.02735,0 61.71094,-27.6836 61.71094,-61.71485 0,-34.02734 -27.68359,-61.71093 -61.71094,-61.71093 z m 0,108.42578 c -25.75781,0 -46.71484,-20.95703 -46.71484,-46.71485 0,-25.75781 20.95703,-46.71093 46.71484,-46.71093 25.75782,0 46.71094,20.95312 46.71094,46.71093 0,25.75782 -20.95312,46.71485 -46.71094,46.71485 z m 0,0"
         id="path1885" />
      <path
         d="m 108.78516,344.91406 c -17.914066,0 -32.484379,14.57422 -32.484379,32.48828 0,17.91407 14.570313,32.48828 32.484379,32.48828 17.91406,0 32.48828,-14.57421 32.48828,-32.48828 0,-17.91406 -14.57422,-32.48828 -32.48828,-32.48828 z m 0,49.97656 c -9.640629,0 -17.484379,-7.84375 -17.484379,-17.48828 0,-9.64453 7.84375,-17.48828 17.484379,-17.48828 9.64453,0 17.48828,7.84375 17.48828,17.48828 0,9.64453 -7.84375,17.48828 -17.48828,17.48828 z m 0,0"
         id="path1887" />
      <path
         d="m 397.80859,344.91406 c -17.91406,0 -32.48828,14.57422 -32.48828,32.48828 0,17.91407 14.57422,32.48828 32.48828,32.48828 17.91407,0 32.48829,-14.57421 32.48829,-32.48828 0,-17.91406 -14.57422,-32.48828 -32.48829,-32.48828 z m 0,49.97656 c -9.64453,0 -17.48828,-7.84375 -17.48828,-17.48828 0,-9.64453 7.84375,-17.48828 17.48828,-17.48828 9.64063,0 17.48828,7.84375 17.48828,17.48828 0,9.64453 -7.84765,17.48828 -17.48828,17.48828 z m 0,0"
         id="path1889" />
      <path
         d="M 266.02734,202.08984 H 185.5 v 75.5586 h 160.32422 z m -65.52734,15 h 59.55469 l 48.11328,45.5586 H 200.5 Z m 0,0"
         id="path1891" />
      <path
         d="m 175.5,202.08984 h -58.21484 l -91.589848,75.5586 H 175.5 Z m -15,60.5586 H 67.449219 l 55.226561,-45.5586 H 160.5 Z m 0,0"
         id="path1893" />
      <path
         d="m 296.39844,351.42969 v -18.11328 c 7.65234,-3.00391 13.08593,-10.46485 13.08593,-19.17188 0,-11.35156 -9.23437,-20.58594 -20.58593,-20.58594 -11.35157,0 -20.58985,9.23438 -20.58985,20.58594 0,8.70703 5.4336,16.16797 13.08985,19.17188 v 11.89843 l -24.6875,24.6875 h -9.67188 V 348.5625 c 7.65625,-3.00391 13.08985,-10.46484 13.08985,-19.17188 0,-11.35156 -9.23829,-20.58593 -20.58985,-20.58593 -11.34765,0 -20.58594,9.23437 -20.58594,20.58593 0,8.70704 5.4336,16.16797 13.08594,19.17188 v 21.33984 h -9.66797 l -24.6875,-24.6875 v -11.89843 c 7.65625,-3.00391 13.08594,-10.46485 13.08594,-19.17188 0,-11.35156 -9.23437,-20.58594 -20.58594,-20.58594 -11.34765,0 -20.58593,9.23438 -20.58593,20.58594 0,8.70703 5.43359,16.16797 13.08593,19.17188 v 18.11328 l 18.47657,18.47265 H 183 v 15 h 140.59375 v -15 h -45.66797 z m -7.5,-42.8711 c 3.07812,0 5.58593,2.50391 5.58593,5.58594 0,3.07813 -2.50781,5.58594 -5.58593,5.58594 -3.08203,0 -5.58985,-2.50391 -5.58985,-5.58594 0,-3.08203 2.50782,-5.58594 5.58985,-5.58594 z m -49.35938,15.2461 c 3.08203,0 5.58985,2.50781 5.58985,5.58593 0,3.08204 -2.50782,5.58594 -5.58985,5.58594 -3.07812,0 -5.58594,-2.5039 -5.58594,-5.58594 0,-3.07812 2.50782,-5.58593 5.58594,-5.58593 z m -49.35547,-15.2461 c 3.08203,0 5.58594,2.50391 5.58594,5.58594 0,3.07813 -2.50391,5.58594 -5.58594,5.58594 -3.07812,0 -5.58593,-2.50391 -5.58593,-5.58594 0,-3.08203 2.50781,-5.58594 5.58593,-5.58594 z m 0,0"
         id="path1895" />
      <path
         d="m 409.90234,154.58984 v 7.5 h 47.6875 v -7.5 C 457.58984,69.347656 388.24219,0 303,0 h -7.5 v 47.6875 h 7.5 c 58.94531,0 106.90234,47.957031 106.90234,106.90234 z M 310.5,15.199219 c 71.00781,3.78125 128.10937,60.882812 131.89062,131.890621 H 424.67578 C 420.9375,85.835938 371.75781,36.652344 310.5,32.914062 Z m 0,0"
         id="path1897" />
      <path
         d="m 344.52734,154.58984 v 7.5 h 47.69141 v -7.5 C 392.21875,105.39453 352.19531,65.375 303,65.375 h -7.5 v 47.6875 h 7.5 c 22.89844,-0.004 41.52734,18.62891 41.52734,41.52734 z M 310.5,80.75 c 34.94922,3.523438 62.81641,31.39063 66.33984,66.33984 H 359.03516 C 355.67969,121.90625 335.68359,101.90625 310.5,98.554688 Z m 0,0"
         id="path1899" />
      <path
         d="m 303,178.43359 c 13.14844,0 23.84375,-10.69531 23.84375,-23.84375 0,-13.14843 -10.69531,-23.84375 -23.84375,-23.84375 -13.14844,0 -23.84375,10.69532 -23.84375,23.84375 0,13.14844 10.69531,23.84375 23.84375,23.84375 z m 0,-32.6875 c 4.875,0 8.84375,3.96875 8.84375,8.84375 0,4.875 -3.96875,8.84375 -8.84375,8.84375 -4.875,0 -8.84375,-3.96875 -8.84375,-8.84375 0,-4.875 3.96875,-8.84375 8.84375,-8.84375 z m 0,0"
         id="path1901" />
      <path
         d="M 465.93359,262.47266 H 366.15625 L 275.98828,177.08984 H 108.30469 L 0,266.4375 v 92.82031 l 25.644531,25.64453 h 8.929688 v -15 h -2.71875 L 15,353.04687 v -3.37109 H 43 V 297.59375 H 15 v -24.08594 l 98.69531,-81.41797 h 156.31641 l 90.17187,85.38282 h 99.53907 l 6.45312,6.45312 H 441.5 v 25.44141 l 16.89453,16.89453 H 497 v 26.78516 l -16.85547,16.85546 h -8.125 v 15 h 14.33594 L 512,359.25781 V 308.53516 Z M 28,312.59375 v 22.08203 H 15 v -22.08203 z m 428.5,-9.4375 v -4.22656 h 24.67578 l 10.60938,10.60547 1.72656,1.72656 h -28.90625 z m 0,0"
         id="path1903" />
      <path
         d="m 423,302.64844 h -55 v -15 h 55 z m -65,0 h -15 v -15 h 15 z m -25,0 h -15 v -15 h 15 z m 0,0"
         id="path1905" />
      <path
         d="m 230,237.64844 h 34.23437 v 15 H 230 Z m 0,0"
         id="path1907" />
    </g>
  </g>
</svg>
