<?xml version="1.0" encoding="UTF-8" standalone="no"?>
<svg
   xmlns:dc="http://purl.org/dc/elements/1.1/"
   xmlns:cc="http://creativecommons.org/ns#"
   xmlns:rdf="http://www.w3.org/1999/02/22-rdf-syntax-ns#"
   xmlns:svg="http://www.w3.org/2000/svg"
   xmlns="http://www.w3.org/2000/svg"
   xmlns:sodipodi="http://sodipodi.sourceforge.net/DTD/sodipodi-0.dtd"
   xmlns:inkscape="http://www.inkscape.org/namespaces/inkscape"
   inkscape:export-ydpi="300"
   inkscape:export-xdpi="300"
   inkscape:export-filename="/Users/adamjenkins/InkSpace/Version4.0/Hacker/SecretTargets/utility.png"
   sodipodi:docname="utility.svg"
   inkscape:version="1.0 (4035a4f, 2020-05-01)"
   id="svg114330"
   version="1.1"
   viewBox="0 0 210 297"
   height="297mm"
   width="210mm">
  <defs
     id="defs114324" />
  <sodipodi:namedview
     inkscape:window-maximized="0"
     inkscape:window-y="23"
     inkscape:window-x="0"
     inkscape:window-height="829"
     inkscape:window-width="1395"
     showgrid="false"
     inkscape:document-rotation="0"
     inkscape:current-layer="layer1"
     inkscape:document-units="mm"
     inkscape:cy="431.60357"
     inkscape:cx="395.36893"
     inkscape:zoom="1.3512447"
     inkscape:pageshadow="2"
     inkscape:pageopacity="0.0"
     borderopacity="1.0"
     bordercolor="#666666"
     pagecolor="#ffffff"
     id="base" />
  <metadata
     id="metadata114327">
    <rdf:RDF>
      <cc:Work
         rdf:about="">
        <dc:format>image/svg+xml</dc:format>
        <dc:type
           rdf:resource="http://purl.org/dc/dcmitype/StillImage" />
        <dc:title />
      </cc:Work>
    </rdf:RDF>
  </metadata>
  <g
     id="layer1"
     inkscape:groupmode="layer"
     inkscape:label="Layer 1">
    <rect
       ry="5"
       rx="5"
       y="43.714203"
       x="74.314148"
       height="88.900002"
       width="63.5"
       id="rect114893"
       style="fill:#008000;fill-rule:evenodd;stroke-width:2.5;stroke:#000000;stroke-opacity:1;stroke-miterlimit:4;stroke-dasharray:none;fill-opacity:1" />
    <g
       transform="matrix(0.08984605,0,0,0.08984605,83.736189,65.151126)"
       id="g2641">
      <path
         id="path2589"
         d="M 369.509,0 H 142.769 C 120.763,0 102.86,17.903 102.86,39.909 v 35.23 c 0,4.142 3.357,7.5 7.5,7.5 4.143,0 7.5,-3.358 7.5,-7.5 V 39.909 C 117.86,26.174 129.034,15 142.769,15 h 226.74 c 13.735,0 24.909,11.174 24.909,24.909 v 149.91 H 117.86 v -79.68 c 0,-4.142 -3.357,-7.5 -7.5,-7.5 -4.143,0 -7.5,3.358 -7.5,7.5 v 362.23 c 0,22.006 17.903,39.909 39.909,39.909 h 226.74 c 22.006,0 39.909,-17.903 39.909,-39.909 V 39.909 C 409.418,17.903 391.515,0 369.509,0 Z m 24.909,472.37 c 0,13.735 -11.174,24.909 -24.909,24.909 h -226.74 c -13.735,0 -24.909,-11.174 -24.909,-24.909 V 204.819 H 394.419 V 472.37 Z" />
      <path
         id="path2591"
         d="m 325.949,102.408 c 0,-38.493 -31.316,-69.81 -69.81,-69.81 -38.494,0 -69.81,31.316 -69.81,69.81 0,38.494 31.316,69.81 69.81,69.81 38.494,0 69.81,-31.317 69.81,-69.81 z m -124.619,0 c 0,-30.222 24.588,-54.81 54.81,-54.81 30.222,0 54.81,24.587 54.81,54.81 0,30.223 -24.588,54.81 -54.81,54.81 -30.222,0 -54.81,-24.588 -54.81,-54.81 z" />
      <path
         id="path2593"
         d="m 293.228,102.408 c 0,-20.451 -16.638,-37.088 -37.089,-37.088 -20.451,0 -37.089,16.638 -37.089,37.088 0,20.45 16.638,37.088 37.089,37.088 20.451,0 37.089,-16.637 37.089,-37.088 z m -59.178,0 c 0,-12.18 9.909,-22.088 22.089,-22.088 12.18,0 22.089,9.909 22.089,22.088 0,12.179 -9.909,22.088 -22.089,22.088 -12.18,0 -22.089,-9.908 -22.089,-22.088 z" />
      <path
         id="path2595"
         d="m 184.482,411.644 h 143.314 c 10.885,0 19.74,-8.855 19.74,-19.74 V 243.172 c 0,-10.885 -8.855,-19.74 -19.74,-19.74 h -19.324 c -4.143,0 -7.5,3.358 -7.5,7.5 0,4.142 3.357,7.5 7.5,7.5 h 19.324 c 2.614,0 4.74,2.126 4.74,4.74 v 148.731 c 0,2.614 -2.126,4.74 -4.74,4.74 H 184.482 c -2.614,0 -4.74,-2.126 -4.74,-4.74 V 243.172 c 0,-2.614 2.126,-4.74 4.74,-4.74 h 88.657 c 4.143,0 7.5,-3.358 7.5,-7.5 0,-4.142 -3.357,-7.5 -7.5,-7.5 h -88.657 c -10.885,0 -19.74,8.855 -19.74,19.74 v 148.731 c 0,10.885 8.855,19.741 19.74,19.741 z" />
      <path
         id="path2597"
         d="m 257.5,250.921 c -13.234,-0.367 -25.743,4.514 -35.22,13.733 -9.479,9.222 -14.699,21.583 -14.699,34.806 v 21.883 l -5.804,16.419 c -1.705,4.824 -0.96,10.198 1.994,14.375 2.954,4.178 7.772,6.672 12.89,6.672 h 8.04 c 3.132,14.48 16.036,25.363 31.438,25.363 15.402,0 28.306,-10.884 31.438,-25.363 h 8.04 c 5.117,0 9.936,-2.494 12.89,-6.672 2.954,-4.177 3.699,-9.551 1.994,-14.375 l -5.804,-16.42 v -21.029 c 10e-4,-26.521 -21.172,-48.679 -47.197,-49.392 z m -1.361,118.253 c -7.051,0 -13.123,-4.271 -15.763,-10.363 h 31.525 c -2.639,6.091 -8.711,10.363 -15.762,10.363 z m 40.121,-25.696 c -0.235,0.333 -0.542,0.333 -0.643,0.333 H 216.66 c -0.101,0 -0.407,0 -0.643,-0.333 -0.234,-0.332 -0.136,-0.61 -0.099,-0.715 l 6.232,-17.633 c 0.284,-0.803 0.429,-1.648 0.429,-2.5 v -23.17 c 0,-9.138 3.608,-17.681 10.159,-24.055 21.356,-20.78 56.958,-4.179 56.958,24.909 v 22.316 c 0,0.852 0.145,1.697 0.429,2.5 l 6.232,17.633 c 0.039,0.105 0.138,0.383 -0.097,0.715 z" />
      <g
         id="g2639">
        <g
           id="g2601">
          <circle
             id="circle2599"
             r="10"
             cy="432.13501"
             cx="184.63499" />
        </g>
        <g
           id="g2605">
          <circle
             id="circle2603"
             r="10"
             cy="432.13501"
             cx="220.38699" />
        </g>
        <g
           id="g2609">
          <circle
             id="circle2607"
             r="10"
             cy="432.13501"
             cx="256.13901" />
        </g>
        <g
           id="g2613">
          <circle
             id="circle2611"
             r="10"
             cy="432.13501"
             cx="291.89099" />
        </g>
        <g
           id="g2617">
          <circle
             id="circle2615"
             r="10"
             cy="432.13501"
             cx="327.64301" />
        </g>
        <g
           id="g2621">
          <circle
             id="circle2619"
             r="10"
             cy="464.40302"
             cx="184.63499" />
        </g>
        <g
           id="g2625">
          <circle
             id="circle2623"
             r="10"
             cy="464.40302"
             cx="220.38699" />
        </g>
        <g
           id="g2629">
          <circle
             id="circle2627"
             r="10"
             cy="464.40302"
             cx="256.13901" />
        </g>
        <g
           id="g2633">
          <circle
             id="circle2631"
             r="10"
             cy="464.40302"
             cx="291.89099" />
        </g>
        <g
           id="g2637">
          <circle
             id="circle2635"
             r="10"
             cy="464.40302"
             cx="327.64301" />
        </g>
      </g>
    </g>
  </g>
</svg>
