<?xml version="1.0" encoding="UTF-8" standalone="no"?>
<svg
   xmlns:dc="http://purl.org/dc/elements/1.1/"
   xmlns:cc="http://creativecommons.org/ns#"
   xmlns:rdf="http://www.w3.org/1999/02/22-rdf-syntax-ns#"
   xmlns:svg="http://www.w3.org/2000/svg"
   xmlns="http://www.w3.org/2000/svg"
   xmlns:sodipodi="http://sodipodi.sourceforge.net/DTD/sodipodi-0.dtd"
   xmlns:inkscape="http://www.inkscape.org/namespaces/inkscape"
   width="210mm"
   height="297mm"
   viewBox="0 0 210 297"
   version="1.1"
   id="svg8"
   inkscape:version="1.0 (4035a4f, 2020-05-01)"
   sodipodi:docname="networker.svg"
   inkscape:export-filename="/Users/adamjenkins/InkSpace/Version3.0/Characters/Network/networker.png"
   inkscape:export-xdpi="300"
   inkscape:export-ydpi="300">
  <defs
     id="defs2" />
  <sodipodi:namedview
     id="base"
     pagecolor="#ffffff"
     bordercolor="#666666"
     borderopacity="1.0"
     inkscape:pageopacity="0.0"
     inkscape:pageshadow="2"
     inkscape:zoom="0.7755542"
     inkscape:cx="333.98974"
     inkscape:cy="325.50529"
     inkscape:document-units="mm"
     inkscape:current-layer="layer2"
     inkscape:document-rotation="0"
     showgrid="false"
     inkscape:window-width="1252"
     inkscape:window-height="855"
     inkscape:window-x="0"
     inkscape:window-y="23"
     inkscape:window-maximized="0" />
  <metadata
     id="metadata5">
    <rdf:RDF>
      <cc:Work
         rdf:about="">
        <dc:format>image/svg+xml</dc:format>
        <dc:type
           rdf:resource="http://purl.org/dc/dcmitype/StillImage" />
        <dc:title />
      </cc:Work>
    </rdf:RDF>
  </metadata>
  <g
     inkscape:label="BG"
     id="layer2"
     inkscape:groupmode="layer">
    <rect
       y="77.777824"
       x="36.015171"
       height="88.616226"
       width="147.95209"
       id="rect1700"
       style="fill:#ffffff;fill-rule:evenodd;stroke-width:4.85184" />
  </g>
  <g
     inkscape:label="Layer 1"
     inkscape:groupmode="layer"
     id="layer1">
    <path
       id="path584"
       d="M 42.041016 78.125 C 38.600142 78.125 35.791016 80.934127 35.791016 84.375 L 35.791016 159.79688 C 35.791016 163.23774 38.600141 166.04688 42.041016 166.04688 L 177.94141 166.04688 C 181.38228 166.04688 184.19141 163.23775 184.19141 159.79688 L 184.19141 84.375 C 184.19141 80.934125 181.38228 78.125 177.94141 78.125 L 42.041016 78.125 z M 42.041016 80.625 L 177.94141 80.625 C 180.04052 80.625 181.69141 82.275885 181.69141 84.375 L 181.69141 159.79688 C 181.69141 161.89598 180.04052 163.54688 177.94141 163.54688 L 42.041016 163.54688 C 39.9419 163.54688 38.291016 161.89599 38.291016 159.79688 L 38.291016 84.375 C 38.291016 82.275883 39.941899 80.625 42.041016 80.625 z "
       style="color:#000000;font-style:normal;font-variant:normal;font-weight:normal;font-stretch:normal;font-size:medium;line-height:normal;font-family:sans-serif;font-variant-ligatures:normal;font-variant-position:normal;font-variant-caps:normal;font-variant-numeric:normal;font-variant-alternates:normal;font-variant-east-asian:normal;font-feature-settings:normal;font-variation-settings:normal;text-indent:0;text-align:start;text-decoration:none;text-decoration-line:none;text-decoration-style:solid;text-decoration-color:#000000;letter-spacing:normal;word-spacing:normal;text-transform:none;writing-mode:lr-tb;direction:ltr;text-orientation:mixed;dominant-baseline:auto;baseline-shift:baseline;text-anchor:start;white-space:normal;shape-padding:0;shape-margin:0;inline-size:0;clip-rule:nonzero;display:inline;overflow:visible;visibility:visible;isolation:auto;mix-blend-mode:normal;color-interpolation:sRGB;color-interpolation-filters:linearRGB;solid-color:#000000;solid-opacity:1;vector-effect:none;fill:#ffffff;fill-opacity:1;fill-rule:evenodd;stroke:#008000;stroke-width:2.4;stroke-linecap:butt;stroke-linejoin:miter;stroke-miterlimit:4;stroke-dasharray:none;stroke-dashoffset:0;stroke-opacity:1;color-rendering:auto;image-rendering:auto;shape-rendering:auto;text-rendering:auto;enable-background:accumulate;stop-color:#000000;stop-opacity:1;opacity:1" />
    <g
       id="Administrator-Worker-Setting-Computer-Laptop"
       transform="matrix(0.83333286,0,0,0.83333286,40.666657,95.419667)">
      <path
         id="path385"
         d="m 34,16 v -3 a 11,11 0 0 0 -22,0 v 3 a 3,3 0 0 0 0,6 v 1 a 11.014,11.014 0 0 0 6,9.79 v 3.47 L 9.72,38.85 A 10.964,10.964 0 0 0 2,49.35 V 61 a 1,1 0 0 0 1,1 H 30 V 60 H 11 V 49 H 9 V 60 H 4 V 49.35 a 8.959,8.959 0 0 1 6.32,-8.59 l 5.28,-1.65 -0.59,4.77 A 0.983,0.983 0 0 0 15.4,44.8 1.029,1.029 0 0 0 16,45 1.046,1.046 0 0 0 16.39,44.92 L 23,42.09 29.61,44.92 A 1.046,1.046 0 0 0 30,45 1.029,1.029 0 0 0 30.6,44.8 0.983,0.983 0 0 0 30.99,43.88 L 30.4,39.11 32.7,39.83 33.3,37.92 28,36.26 V 32.79 A 11.014,11.014 0 0 0 34,23 v -1 a 3,3 0 0 0 0,-6 z m -22,4 a 1,1 0 0 1 0,-2 z m 5.21,22.39 0.49,-3.94 1.02,-0.32 2.53,2.53 z M 20,36.59 v -3.02 a 10.68,10.68 0 0 0 6,0 v 3.02 l -3,3 z m 8.3,1.86 0.49,3.94 -4.04,-1.73 2.53,-2.53 z M 32,23 a 9,9 0 0 1 -18,0 v -4.58 c 0.99,-0.94 4.42,-4.06 7.42,-5.19 a 7.706,7.706 0 0 0 3.13,3.66 1,1 0 0 0 1.34,-0.44 3.144,3.144 0 0 1 1.52,-1.36 8.058,8.058 0 0 0 4.59,3.64 z m 0,-6.39 A 5.591,5.591 0 0 1 28.95,13.68 1.014,1.014 0 0 0 28,13 a 4.268,4.268 0 0 0 -3.25,1.61 8.027,8.027 0 0 1 -1.8,-2.93 1.014,1.014 0 0 0 -1.19,-0.65 c -2.77,0.69 -5.88,3.08 -7.76,4.7 V 13 a 9,9 0 0 1 18,0 z M 34,20 v -2 a 1,1 0 0 1 0,2 z" />
      <path
         id="path393"
         d="M 61.937,56.649 59,48.818 V 36 a 3,3 0 0 0 -3,-3 v 2 a 1,1 0 0 1 1,1 V 48 H 37 V 36 a 1,1 0 0 1 1,-1 v -2 a 3,3 0 0 0 -3,3 v 12.818 l -2.937,7.831 A 1,1 0 0 0 32,57 v 3 a 2,2 0 0 0 2,2 h 26 a 2,2 0 0 0 2,-2 V 57 A 1,1 0 0 0 61.937,56.649 Z M 57.307,50 l 2.25,6 H 52.72 L 51.948,53.684 A 1,1 0 0 0 51,53 h -8 a 1,1 0 0 0 -0.948,0.684 L 41.28,56 h -6.837 l 2.25,-6 z m -6.694,6 h -7.226 l 0.334,-1 h 6.558 z M 34,60 v -2 h 26 v 2 z" />
      <path
         id="path395"
         d="m 46,40 h 2 v 2 h -2 z" />
      <path
         id="path397"
         d="m 50,40 h 2 v 2 h -2 z" />
      <path
         id="path399"
         d="m 42,40 h 2 v 2 h -2 z" />
      <path
         id="path401"
         d="m 38.758,30.97 1.667,0.417 c 0.071,0.2 0.15,0.387 0.237,0.575 l -0.884,1.473 a 1,1 0 0 0 0.151,1.222 l 1.414,1.414 a 1,1 0 0 0 1.221,0.15 l 1.474,-0.884 q 0.282,0.132 0.574,0.238 l 0.418,1.668 A 1,1 0 0 0 46,38 h 2 a 1,1 0 0 0 0.97,-0.757 l 0.418,-1.668 q 0.292,-0.107 0.574,-0.238 l 1.474,0.884 a 1,1 0 0 0 1.221,-0.15 l 1.414,-1.414 a 1,1 0 0 0 0.151,-1.222 l -0.884,-1.473 c 0.087,-0.188 0.166,-0.379 0.237,-0.575 L 55.242,30.97 A 1,1 0 0 0 56,30 v -2 a 1,1 0 0 0 -0.758,-0.97 l -1.667,-0.417 c -0.071,-0.2 -0.15,-0.387 -0.237,-0.575 l 0.884,-1.473 a 1,1 0 0 0 -0.151,-1.222 l -1.414,-1.414 a 1,1 0 0 0 -1.221,-0.15 l -1.474,0.884 Q 49.68,22.531 49.388,22.425 L 48.97,20.757 A 1,1 0 0 0 48,20 h -2 a 1,1 0 0 0 -0.97,0.757 l -0.418,1.668 q -0.292,0.106 -0.574,0.238 l -1.474,-0.884 a 1,1 0 0 0 -1.221,0.15 l -1.414,1.414 a 1,1 0 0 0 -0.151,1.222 l 0.884,1.473 c -0.087,0.188 -0.166,0.379 -0.237,0.575 L 38.758,27.03 A 1,1 0 0 0 38,28 v 2 a 1,1 0 0 0 0.758,0.97 z M 40,28.781 41.452,28.417 a 1,1 0 0 0 0.724,-0.71 4.983,4.983 0 0 1 0.5,-1.2 1,1 0 0 0 -0.008,-1.016 l -0.77,-1.283 0.31,-0.309 1.283,0.769 a 1,1 0 0 0 1.016,0.008 5,5 0 0 1 1.2,-0.5 1,1 0 0 0 0.711,-0.723 L 46.78,22 h 0.44 l 0.363,1.453 a 1,1 0 0 0 0.711,0.723 5,5 0 0 1 1.2,0.5 1,1 0 0 0 1.016,-0.008 l 1.29,-0.768 0.31,0.309 -0.77,1.283 a 1,1 0 0 0 -0.008,1.016 4.983,4.983 0 0 1 0.5,1.2 1,1 0 0 0 0.724,0.71 L 54,28.781 v 0.438 l -1.452,0.364 a 1,1 0 0 0 -0.724,0.71 4.983,4.983 0 0 1 -0.5,1.2 1,1 0 0 0 0.008,1.016 l 0.77,1.283 -0.31,0.309 -1.283,-0.769 a 1,1 0 0 0 -1.016,-0.008 5,5 0 0 1 -1.2,0.5 1,1 0 0 0 -0.711,0.723 L 47.22,36 h -0.44 l -0.363,-1.453 a 1,1 0 0 0 -0.711,-0.723 5,5 0 0 1 -1.2,-0.5 1,1 0 0 0 -1.016,0.008 L 42.207,34.101 41.9,33.8 42.67,32.517 a 1,1 0 0 0 0.008,-1.016 4.983,4.983 0 0 1 -0.5,-1.2 1,1 0 0 0 -0.724,-0.71 L 40,29.219 Z" />
      <path
         id="path403"
         d="m 47,33 a 4,4 0 1 0 -4,-4 4,4 0 0 0 4,4 z m 0,-6 a 2,2 0 1 1 -2,2 2,2 0 0 1 2,-2 z" />
    </g>
    <text
       id="text536"
       y="114.27905"
       x="102.38371"
       style="font-size:6.35px;line-height:1;font-family:sans-serif;text-align:start;text-anchor:start;stroke-width:0.264583"
       xml:space="preserve"><tspan
         id="tspan540"
         style="font-size:6.35px;text-align:start;text-anchor:start;stroke-width:0.264583"
         y="114.27905"
         x="102.38371"
         sodipodi:role="line">One time on your turn,</tspan><tspan
         id="tspan557"
         style="font-size:6.35px;text-align:start;text-anchor:start;stroke-width:0.264583"
         y="120.62904"
         x="102.38371"
         sodipodi:role="line">you may move 1 other </tspan><tspan
         id="tspan559"
         style="font-size:6.35px;text-align:start;text-anchor:start;stroke-width:0.264583"
         y="126.97904"
         x="102.38371"
         sodipodi:role="line">player 1 tile, with their</tspan><tspan
         id="tspan561"
         style="font-size:6.35px;text-align:start;text-anchor:start;stroke-width:0.264583"
         y="133.32904"
         x="102.38371"
         sodipodi:role="line">permission.</tspan></text>
    <text
       id="text1411"
       y="90.333992"
       x="159.45004"
       style="font-size:9.87778px;line-height:0;font-family:sans-serif;text-align:end;text-anchor:end;stroke-width:0.264583"
       xml:space="preserve"><tspan
         style="font-size:9.87778px;stroke-width:0.264583"
         y="90.333992"
         x="159.45004"
         id="tspan1409"
         sodipodi:role="line">Network Know-it-all</tspan></text>
  </g>
</svg>
