<?xml version="1.0" encoding="UTF-8" standalone="no"?>
<svg
   xmlns:dc="http://purl.org/dc/elements/1.1/"
   xmlns:cc="http://creativecommons.org/ns#"
   xmlns:rdf="http://www.w3.org/1999/02/22-rdf-syntax-ns#"
   xmlns:svg="http://www.w3.org/2000/svg"
   xmlns="http://www.w3.org/2000/svg"
   xmlns:sodipodi="http://sodipodi.sourceforge.net/DTD/sodipodi-0.dtd"
   xmlns:inkscape="http://www.inkscape.org/namespaces/inkscape"
   sodipodi:docname="security.svg"
   inkscape:version="1.0 (4035a4f, 2020-05-01)"
   id="svg8"
   version="1.1"
   viewBox="0 0 210 297"
   height="297mm"
   width="210mm"
   inkscape:export-filename="/Users/adamjenkins/InkSpace/Version3.0/Characters/Security/security.png"
   inkscape:export-xdpi="300"
   inkscape:export-ydpi="300">
  <defs
     id="defs2" />
  <sodipodi:namedview
     inkscape:window-maximized="0"
     inkscape:window-y="23"
     inkscape:window-x="0"
     inkscape:window-height="855"
     inkscape:window-width="1252"
     showgrid="false"
     inkscape:document-rotation="0"
     inkscape:current-layer="layer4"
     inkscape:document-units="mm"
     inkscape:cy="462.99045"
     inkscape:cx="360.85832"
     inkscape:zoom="0.753769"
     inkscape:pageshadow="2"
     inkscape:pageopacity="0.0"
     borderopacity="1.0"
     bordercolor="#666666"
     pagecolor="#ffffff"
     id="base" />
  <metadata
     id="metadata5">
    <rdf:RDF>
      <cc:Work
         rdf:about="">
        <dc:format>image/svg+xml</dc:format>
        <dc:type
           rdf:resource="http://purl.org/dc/dcmitype/StillImage" />
        <dc:title />
      </cc:Work>
    </rdf:RDF>
  </metadata>
  <g
     inkscape:label="Layer 2"
     id="layer4"
     inkscape:groupmode="layer">
    <rect
       y="77.777824"
       x="36.015163"
       height="88.616226"
       width="147.9521"
       id="rect1700"
       style="fill:#ffffff;fill-rule:evenodd;stroke-width:4.85185" />
  </g>
  <g
     id="layer1"
     inkscape:groupmode="layer"
     inkscape:label="Layer 1">
    <path
       style="color:#000000;font-style:normal;font-variant:normal;font-weight:normal;font-stretch:normal;font-size:medium;line-height:normal;font-family:sans-serif;font-variant-ligatures:normal;font-variant-position:normal;font-variant-caps:normal;font-variant-numeric:normal;font-variant-alternates:normal;font-variant-east-asian:normal;font-feature-settings:normal;font-variation-settings:normal;text-indent:0;text-align:start;text-decoration:none;text-decoration-line:none;text-decoration-style:solid;text-decoration-color:#000000;letter-spacing:normal;word-spacing:normal;text-transform:none;writing-mode:lr-tb;direction:ltr;text-orientation:mixed;dominant-baseline:auto;baseline-shift:baseline;text-anchor:start;white-space:normal;shape-padding:0;shape-margin:0;inline-size:0;clip-rule:nonzero;display:inline;overflow:visible;visibility:visible;isolation:auto;mix-blend-mode:normal;color-interpolation:sRGB;color-interpolation-filters:linearRGB;solid-color:#000000;solid-opacity:1;vector-effect:none;fill:#ffff00;fill-opacity:1;fill-rule:evenodd;stroke:#ffff00;stroke-width:2.4;stroke-linecap:butt;stroke-linejoin:miter;stroke-miterlimit:4;stroke-dasharray:none;stroke-dashoffset:0;stroke-opacity:1;color-rendering:auto;image-rendering:auto;shape-rendering:auto;text-rendering:auto;enable-background:accumulate;stop-color:#000000;stop-opacity:1;opacity:1"
       d="M 42.041016 78.125 C 38.600142 78.125 35.791016 80.934127 35.791016 84.375 L 35.791016 159.79688 C 35.791016 163.23774 38.600141 166.04688 42.041016 166.04688 L 177.94141 166.04688 C 181.38228 166.04688 184.19141 163.23775 184.19141 159.79688 L 184.19141 84.375 C 184.19141 80.934125 181.38228 78.125 177.94141 78.125 L 42.041016 78.125 z M 42.041016 80.625 L 177.94141 80.625 C 180.04052 80.625 181.69141 82.275885 181.69141 84.375 L 181.69141 159.79688 C 181.69141 161.89598 180.04052 163.54688 177.94141 163.54688 L 42.041016 163.54688 C 39.9419 163.54688 38.291016 161.89599 38.291016 159.79688 L 38.291016 84.375 C 38.291016 82.275883 39.941899 80.625 42.041016 80.625 z "
       id="path584" />
    <text
       xml:space="preserve"
       style="font-size:6.35px;line-height:1;font-family:sans-serif;text-align:start;text-anchor:start;stroke-width:0.264583"
       x="102.38371"
       y="114.27905"
       id="text536"><tspan
         sodipodi:role="line"
         x="102.38371"
         y="114.27905"
         style="font-size:6.35px;text-align:start;text-anchor:start;stroke-width:0.264583"
         id="tspan561">On your turn, you may </tspan><tspan
         sodipodi:role="line"
         x="102.38371"
         y="120.62905"
         style="font-size:6.35px;text-align:start;text-anchor:start;stroke-width:0.264583"
         id="tspan1483">change any Patch rolled</tspan><tspan
         sodipodi:role="line"
         x="102.38371"
         y="126.97905"
         style="font-size:6.35px;text-align:start;text-anchor:start;stroke-width:0.264583"
         id="tspan1485">into Anti-Virus or </tspan><tspan
         sodipodi:role="line"
         x="102.38371"
         y="133.32906"
         style="font-size:6.35px;text-align:start;text-anchor:start;stroke-width:0.264583"
         id="tspan1487">change Anti-Virus into</tspan><tspan
         sodipodi:role="line"
         x="102.38371"
         y="139.67905"
         style="font-size:6.35px;text-align:start;text-anchor:start;stroke-width:0.264583"
         id="tspan1489">Patch.</tspan></text>
    <g
       id="g1463"
       transform="translate(-11.450114)">
      <text
         id="text1411"
         y="90.333992"
         x="159.45004"
         style="font-size:9.87778px;line-height:0;font-family:sans-serif;text-align:end;text-anchor:end;stroke-width:0.264583"
         xml:space="preserve"><tspan
           style="font-size:9.87778px;stroke-width:0.264583"
           y="90.333992"
           x="159.45004"
           id="tspan1409"
           sodipodi:role="line">Security Expert</tspan></text>
    </g>
    <g
       transform="matrix(0.83333333,0,0,0.83333333,42.333295,97.086319)"
       id="g481">
      <path
         d="m 2,60 h 48 a 2,2 0 0 0 2,-2 V 56 A 2,2 0 0 0 50,54 H 42 V 33 a 2,2 0 0 0 2,-2 V 29 A 2,2 0 0 0 42,27 H 34.92 A 7,7 0 0 0 29,21.08 V 20.326 A 6.967,6.967 0 0 0 32.949,14.847 3,3 0 0 0 35,12 V 7 A 4.006,4.006 0 0 0 32.922,3.492 l 0.6,-0.6 A 1.7,1.7 0 0 0 32.32,0 H 24 a 7.009,7.009 0 0 0 -7,7 v 5 A 3.028,3.028 0 0 0 19.052,14.854 6.969,6.969 0 0 0 23,20.326 V 21.08 A 7,7 0 0 0 17.08,27 H 12 v -2.438 a 1,1 0 0 1 0.757,-0.971 l 2.485,-0.621 a 1,1 0 0 0 -0.484,-1.94 l -2.487,0.621 A 3,3 0 0 0 10,24.562 V 27 a 2,2 0 0 0 -2,2 v 2 a 2,2 0 0 0 2,2 V 54 H 2 a 2,2 0 0 0 -2,2 v 2 a 2,2 0 0 0 2,2 z M 19,7 a 5.006,5.006 0 0 1 5,-5 h 7.586 L 30.293,3.293 A 1,1 0 0 0 31,5 2,2 0 0 1 33,7 V 8.051 A 2.491,2.491 0 0 0 31.055,8.461 2.738,2.738 0 0 0 29.816,7.854 7.859,7.859 0 0 1 27.2,6.4 1.985,1.985 0 0 0 24.805,6.4 7.847,7.847 0 0 1 22.187,7.851 2.738,2.738 0 0 0 20.948,8.458 2.491,2.491 0 0 0 19,8.051 Z m 2.026,7.522 A 1.892,1.892 0 0 0 19.684,12.949 1,1 0 0 1 19,12 v -1.5 a 0.5,0.5 0 0 1 1,0 1,1 0 0 0 2,0 A 0.708,0.708 0 0 1 22.586,9.813 9.352,9.352 0 0 0 25.987,8 9.681,9.681 0 0 0 29.414,9.818 0.708,0.708 0 0 1 30,10.5 a 1,1 0 0 0 2,0 0.5,0.5 0 0 1 1,0 V 12 a 1,1 0 0 1 -0.685,0.95 1.889,1.889 0 0 0 -1.341,1.572 v 0 a 5,5 0 0 1 -9.947,0 z M 27,20.922 V 22 a 1,1 0 0 1 -2,0 v -1.078 a 6.449,6.449 0 0 0 2,0 z m -3.791,2.158 a 2.989,2.989 0 0 0 5.582,0 A 5,5 0 0 1 32.9,27 H 19.1 a 5,5 0 0 1 4.109,-3.92 z M 10,29 h 32 v 2 H 10 Z m 30,4 V 54 H 12 V 33 Z M 2,56 h 48 v 2 H 2 Z"
         id="path459" />
      <path
         d="m 26,51 c 5.425,0 9.882,-4.712 11.547,-6.739 a 1.972,1.972 0 0 0 0,-2.522 v 0 c -1.6,-1.947 -5.78,-6.362 -10.918,-6.7 a 5.992,5.992 0 0 0 -1.256,0 c -5.138,0.343 -9.319,4.758 -10.919,6.706 a 1.972,1.972 0 0 0 0,2.523 C 16.118,46.288 20.575,51 26,51 Z m 0,-14 a 4,4 0 1 1 -4,4 4,4 0 0 1 4,-4 z m -5.646,1.989 a 6,6 0 1 0 11.292,0 21.665,21.665 0 0 1 4.348,4.011 c -1.166,1.418 -5.3,6 -9.994,6 -4.694,0 -8.843,-4.6 -10,-5.992 a 21.683,21.683 0 0 1 4.354,-4.019 z"
         id="path461" />
      <path
         d="m 53,6 h -8 a 1,1 0 0 0 0,2 h 8 a 1,1 0 0 0 0,-2 z"
         id="path463" />
      <path
         d="m 50,10 h -5 a 1,1 0 0 0 0,2 h 5 a 1,1 0 0 0 0,-2 z"
         id="path465" />
      <path
         d="M 49,0 C 42.935,0 38,4.037 38,9 a 8.385,8.385 0 0 0 4,6.948 v 2.983 a 2.066,2.066 0 0 0 3.266,1.684 L 48.944,18 H 49 C 55.065,18 60,13.963 60,9 60,4.037 55.065,0 49,0 Z m 0,16 a 2.685,2.685 0 0 1 -0.271,-0.007 0.979,0.979 0 0 0 -0.668,0.182 L 44.036,18.99 A 0.056,0.056 0 0 1 44,18.931 V 15.4 A 1,1 0 0 0 43.515,14.543 6.569,6.569 0 0 1 40,9 c 0,-3.859 4.037,-7 9,-7 4.963,0 9,3.141 9,7 0,3.859 -4.037,7 -9,7 z"
         id="path467" />
    </g>
  </g>
</svg>
