<?xml version="1.0" encoding="UTF-8" standalone="no"?>
<svg
   xmlns:dc="http://purl.org/dc/elements/1.1/"
   xmlns:cc="http://creativecommons.org/ns#"
   xmlns:rdf="http://www.w3.org/1999/02/22-rdf-syntax-ns#"
   xmlns:svg="http://www.w3.org/2000/svg"
   xmlns="http://www.w3.org/2000/svg"
   xmlns:sodipodi="http://sodipodi.sourceforge.net/DTD/sodipodi-0.dtd"
   xmlns:inkscape="http://www.inkscape.org/namespaces/inkscape"
   sodipodi:docname="attacks.svg"
   inkscape:version="1.0 (4035a4f, 2020-05-01)"
   id="svg114919"
   version="1.1"
   viewBox="0 0 210 297"
   height="297mm"
   width="210mm">
  <defs
     id="defs114913" />
  <sodipodi:namedview
     inkscape:window-maximized="0"
     inkscape:window-y="23"
     inkscape:window-x="0"
     inkscape:window-height="855"
     inkscape:window-width="1252"
     showgrid="false"
     inkscape:document-rotation="0"
     inkscape:current-layer="outline"
     inkscape:document-units="mm"
     inkscape:cy="428.57143"
     inkscape:cx="480"
     inkscape:zoom="0.35"
     inkscape:pageshadow="2"
     inkscape:pageopacity="0.0"
     borderopacity="1.0"
     bordercolor="#666666"
     pagecolor="#ffffff"
     id="base" />
  <metadata
     id="metadata114916">
    <rdf:RDF>
      <cc:Work
         rdf:about="">
        <dc:format>image/svg+xml</dc:format>
        <dc:type
           rdf:resource="http://purl.org/dc/dcmitype/StillImage" />
        <dc:title></dc:title>
      </cc:Work>
    </rdf:RDF>
  </metadata>
  <g
     id="layer1"
     inkscape:groupmode="layer"
     inkscape:label="Layer 1">
    <g
       id="g116794"
       transform="matrix(1.0583333,0,0,1.0583333,131.08214,-89.656303)">
      <path
         id="path116770"
         d="M 121.25,7.374 H 6.75 A 6.758,6.758 0 0 0 0,14.124 v 85.528 a 6.233,6.233 0 0 0 6.226,6.226 h 65.49 a 24.246,24.246 0 0 0 44.617,0 h 5.441 A 6.233,6.233 0 0 0 128,99.652 V 14.124 a 6.758,6.758 0 0 0 -6.75,-6.75 z M 3.5,14.124 a 3.254,3.254 0 0 1 3.25,-3.25 h 114.5 a 3.254,3.254 0 0 1 3.25,3.25 V 26.249 H 3.5 Z m 90.524,103 A 20.748,20.748 0 0 1 79.616,81.447 h 28.816 A 20.748,20.748 0 0 1 94.024,117.126 Z M 104.065,74.05 a 3.254,3.254 0 0 1 3.25,3.25 v 0.645 H 80.732 V 77.3 a 3.254,3.254 0 0 1 3.25,-3.25 z m 20.435,25.6 a 2.729,2.729 0 0 1 -2.726,2.726 h -4.253 A 24.235,24.235 0 0 0 110.815,78.892 V 77.3 a 6.758,6.758 0 0 0 -6.75,-6.75 h -8.291 v -1.9 a 6.742,6.742 0 0 1 3.969,-6.137 1.7502738,1.7502738 0 0 0 -1.437,-3.192 10.249,10.249 0 0 0 -6.032,9.329 v 1.9 h -8.292 a 6.758,6.758 0 0 0 -6.75,6.75 v 1.592 a 24.236,24.236 0 0 0 -6.7,23.484 H 6.226 A 2.729,2.729 0 0 1 3.5,99.652 v -69.9 h 121 z" />
      <path
         id="path116772"
         d="M 118.25,16.812 H 49.687 a 1.75,1.75 0 0 0 0,3.5 h 68.563 a 1.75,1.75 0 0 0 0,-3.5 z" />
      <path
         id="path116774"
         d="M 14.377,16.812 H 9.75 a 1.75,1.75 0 0 0 0,3.5 h 4.627 a 1.75,1.75 0 0 0 0,-3.5 z" />
      <path
         id="path116776"
         d="m 27.689,16.812 h -4.627 a 1.75,1.75 0 0 0 0,3.5 h 4.627 a 1.75,1.75 0 0 0 0,-3.5 z" />
      <path
         id="path116778"
         d="m 41,16.812 h -4.625 a 1.75,1.75 0 0 0 0,3.5 H 41 a 1.75,1.75 0 0 0 0,-3.5 z" />
      <path
         id="path116780"
         d="m 99.024,55.421 a 1.749,1.749 0 0 0 1.75,-1.75 v -3.688 a 1.75,1.75 0 0 0 -3.5,0 v 3.688 a 1.75,1.75 0 0 0 1.75,1.75 z" />
      <path
         id="path116782"
         d="m 104.152,57.545 a 1.744,1.744 0 0 0 1.238,-0.513 L 108,54.425 a 1.7500893,1.7500893 0 0 0 -2.475,-2.475 l -2.607,2.608 a 1.75,1.75 0 0 0 1.237,2.987 z" />
      <path
         id="path116784"
         d="m 104.527,60.924 a 1.75,1.75 0 0 0 1.75,1.75 h 3.688 a 1.75,1.75 0 0 0 0,-3.5 h -3.688 a 1.75,1.75 0 0 0 -1.75,1.75 z" />
      <path
         id="path116786"
         d="m 13.5,61.868 h 7.876 a 5.756,5.756 0 0 0 5.75,-5.75 v -10.3 a 5.756,5.756 0 0 0 -5.75,-5.75 H 13.5 a 1.75,1.75 0 0 0 -1.75,1.75 v 18.3 a 1.749,1.749 0 0 0 1.75,1.75 z m 1.75,-18.3 h 6.126 a 2.253,2.253 0 0 1 2.25,2.25 v 10.3 a 2.253,2.253 0 0 1 -2.25,2.25 H 15.25 Z" />
      <path
         id="path116788"
         d="m 32.751,61.868 h 7.876 a 5.756,5.756 0 0 0 5.75,-5.75 v -10.3 a 5.756,5.756 0 0 0 -5.75,-5.75 H 32.751 A 1.75,1.75 0 0 0 31,41.819 v 18.3 a 1.749,1.749 0 0 0 1.751,1.749 z m 1.75,-18.3 h 6.126 a 2.253,2.253 0 0 1 2.25,2.25 v 10.3 a 2.253,2.253 0 0 1 -2.25,2.25 H 34.5 Z" />
      <path
         id="path116790"
         d="m 55,61.868 h 2.25 A 4.756,4.756 0 0 0 62,57.118 v -5.784 a 4.756,4.756 0 0 0 -4.75,-4.75 H 55 a 4.756,4.756 0 0 0 -4.75,4.75 v 5.784 A 4.756,4.756 0 0 0 55,61.868 Z M 53.75,51.334 A 1.252,1.252 0 0 1 55,50.084 h 2.25 a 1.252,1.252 0 0 1 1.25,1.25 v 5.784 a 1.251,1.251 0 0 1 -1.25,1.25 H 55 a 1.251,1.251 0 0 1 -1.25,-1.25 z" />
      <path
         id="path116792"
         d="m 76.328,58.368 h -7.876 a 1.75,1.75 0 0 0 0,3.5 h 7.876 a 5.756,5.756 0 0 0 5.75,-5.75 v -5.149 a 1.749,1.749 0 0 0 -1.75,-1.75 H 70.2 v -3.4 a 2.253,2.253 0 0 1 2.25,-2.25 h 7.876 a 1.75,1.75 0 0 0 0,-3.5 h -7.874 a 5.756,5.756 0 0 0 -5.75,5.75 v 5.15 a 1.749,1.749 0 0 0 1.75,1.75 h 10.126 v 3.4 a 2.253,2.253 0 0 1 -2.25,2.249 z" />
    </g>
    <g
       id="g116753"
       transform="matrix(0.26458333,0,0,0.26458333,-85.117856,-87.385713)">
      <g
         id="g116390">
        <g
           id="g116388">
          <path
             id="path116386"
             d="m 205.006,188.351 c -3.128,-3.128 -8.184,-3.128 -11.312,0 L 7.014,375.023 c -3.128,3.128 -3.128,8.184 0,11.312 1.56,1.56 3.608,2.344 5.656,2.344 2.048,0 4.096,-0.784 5.656,-2.344 l 186.68,-186.672 c 3.128,-3.128 3.128,-8.184 0,-11.312 z" />
        </g>
      </g>
      <g
         id="g116396">
        <g
           id="g116394">
          <path
             id="path116392"
             d="m 227.63,210.975 c -3.128,-3.128 -8.184,-3.128 -11.312,0 L 29.646,397.655 c -3.128,3.128 -3.128,8.184 0,11.312 1.56,1.56 3.608,2.344 5.656,2.344 2.048,0 4.096,-0.784 5.656,-2.344 L 227.63,222.287 c 3.128,-3.128 3.128,-8.184 0,-11.312 z" />
        </g>
      </g>
      <g
         id="g116402">
        <g
           id="g116400">
          <path
             id="path116398"
             d="m 40.966,397.655 c -3.128,-3.128 -8.192,-3.12 -11.32,-0.008 -3.12,3.128 -8.192,3.12 -11.312,0.008 -3.128,-3.128 -3.128,-8.2 -0.008,-11.32 3.128,-3.128 3.128,-8.184 0,-11.312 -3.128,-3.128 -8.184,-3.128 -11.312,0 -9.352,9.352 -9.352,24.576 0,33.952 4.68,4.672 10.824,7.008 16.976,7.008 6.144,0 12.288,-2.336 16.968,-7.008 3.128,-3.128 3.128,-8.184 0.008,-11.32 z" />
        </g>
      </g>
      <g
         id="g116408">
        <g
           id="g116406">
          <path
             id="path116404"
             d="M 318.142,301.487 114.494,97.839 c -3.128,-3.128 -8.184,-3.128 -11.312,0 -3.128,3.128 -3.128,8.184 0,11.312 L 306.83,312.799 c 1.56,1.56 3.608,2.344 5.656,2.344 2.04,0 4.088,-0.784 5.656,-2.344 3.128,-3.128 3.128,-8.184 0,-11.312 z" />
        </g>
      </g>
      <g
         id="g116414">
        <g
           id="g116412">
          <path
             id="path116410"
             d="m 319.95,304.263 c -1.176,-3.056 -29.488,-75.704 -81.008,-127.224 -51.512,-51.52 -124.16,-79.832 -127.224,-81.008 -4.104,-1.576 -8.752,0.464 -10.336,4.592 -1.592,4.12 0.456,8.752 4.584,10.336 0.72,0.272 72.6,28.328 121.664,77.392 49.072,49.064 77.112,120.944 77.384,121.664 1.232,3.184 4.264,5.128 7.472,5.128 0.96,0 1.928,-0.176 2.872,-0.544 4.112,-1.584 6.176,-6.208 4.592,-10.336 z" />
        </g>
      </g>
      <g
         id="g116420">
        <g
           id="g116418">
          <path
             id="path116416"
             d="m 244.606,148.751 c -3.128,-3.128 -8.184,-3.128 -11.312,0 l -17.328,17.328 c -3.128,3.128 -3.128,8.184 0,11.312 1.56,1.56 3.608,2.344 5.656,2.344 2.048,0 4.096,-0.784 5.656,-2.344 l 17.328,-17.328 c 3.128,-3.128 3.128,-8.184 0,-11.312 z" />
        </g>
      </g>
      <g
         id="g116426">
        <g
           id="g116424">
          <path
             id="path116422"
             d="m 267.23,171.383 -22.624,-22.632 c -3.128,-3.128 -8.184,-3.128 -11.312,0 -3.128,3.12 -3.128,8.184 0,11.312 l 22.624,22.632 c 1.56,1.56 3.608,2.344 5.656,2.344 2.048,0 4.096,-0.784 5.656,-2.344 3.128,-3.12 3.128,-8.184 0,-11.312 z" />
        </g>
      </g>
      <g
         id="g116432">
        <g
           id="g116430">
          <path
             id="path116428"
             d="m 267.23,171.383 c -3.128,-3.128 -8.184,-3.128 -11.312,0 l -17.328,17.328 c -3.128,3.128 -3.128,8.184 0,11.312 1.56,1.56 3.608,2.344 5.656,2.344 2.048,0 4.096,-0.784 5.656,-2.344 l 17.328,-17.328 c 3.128,-3.128 3.128,-8.184 0,-11.312 z" />
        </g>
      </g>
      <g
         id="g116438">
        <g
           id="g116436">
          <path
             id="path116434"
             d="m 276.718,369.887 c -3.376,-2.848 -8.416,-2.44 -11.272,0.944 l -88,104 c -2.856,3.368 -2.432,8.416 0.944,11.272 1.504,1.264 3.336,1.888 5.16,1.888 2.272,0 4.536,-0.96 6.112,-2.832 l 88,-104 c 2.856,-3.368 2.432,-8.416 -0.944,-11.272 z" />
        </g>
      </g>
      <g
         id="g116444">
        <g
           id="g116442">
          <path
             id="path116440"
             d="m 299.998,385.335 -24,-16 c -3.696,-2.448 -8.648,-1.456 -11.096,2.216 -2.456,3.68 -1.464,8.64 2.216,11.096 l 24,16 c 1.368,0.904 2.912,1.344 4.432,1.344 2.592,0 5.128,-1.248 6.664,-3.56 2.456,-3.68 1.464,-8.64 -2.216,-11.096 z" />
        </g>
      </g>
      <g
         id="g116450">
        <g
           id="g116448">
          <path
             id="path116446"
             d="m 381.214,306.335 c -3.128,-3.128 -8.184,-3.128 -11.312,0 l -80,80 c -3.128,3.128 -3.128,8.184 0,11.312 1.56,1.56 3.608,2.344 5.656,2.344 2.048,0 4.096,-0.784 5.656,-2.344 l 80,-80 c 3.128,-3.128 3.128,-8.184 0,-11.312 z" />
        </g>
      </g>
      <g
         id="g116456">
        <g
           id="g116454">
          <path
             id="path116452"
             d="m 493.214,418.335 -112,-112 c -3.128,-3.128 -8.184,-3.128 -11.312,0 -3.128,3.128 -3.128,8.184 0,11.312 l 112,112 c 1.56,1.56 3.608,2.344 5.656,2.344 2.048,0 4.096,-0.784 5.656,-2.344 3.128,-3.128 3.128,-8.184 0,-11.312 z" />
        </g>
      </g>
      <g
         id="g116462">
        <g
           id="g116460">
          <path
             id="path116458"
             d="m 511.254,477.799 -16,-56 c -1.216,-4.264 -5.672,-6.664 -9.888,-5.504 -4.256,1.216 -6.712,5.648 -5.504,9.888 l 16,56 c 1.008,3.52 4.208,5.808 7.688,5.808 0.736,0 1.472,-0.104 2.2,-0.304 4.256,-1.216 6.712,-5.648 5.504,-9.888 z" />
        </g>
      </g>
      <g
         id="g116468">
        <g
           id="g116466">
          <path
             id="path116464"
             d="m 343.558,247.991 c -4.424,0 -8,3.584 -8,8 v 48 c 0,4.424 3.576,8 8,8 4.424,0 8,-3.576 8,-8 v -48 c 0,-4.416 -3.576,-8 -8,-8 z" />
        </g>
      </g>
      <g
         id="g116474">
        <g
           id="g116472">
          <path
             id="path116470"
             d="m 303.558,327.991 h -48 c -4.424,0 -8,3.576 -8,8 0,4.424 3.576,8 8,8 h 48 c 4.424,0 8,-3.576 8,-8 0,-4.424 -3.576,-8 -8,-8 z" />
        </g>
      </g>
      <g
         id="g116480">
        <g
           id="g116478">
          <path
             id="path116476"
             d="m 443.558,63.991 c -4.424,0 -8,3.584 -8,8 0,4.416 3.576,8 8,8 2.2,0 4,1.792 4,4 0,2.208 -1.8,4 -4,4 -4.424,0 -8,3.584 -8,8 0,4.416 3.576,8 8,8 11.032,0 20,-8.976 20,-20 0,-11.024 -8.968,-20 -20,-20 z" />
        </g>
      </g>
      <g
         id="g116486">
        <g
           id="g116484">
          <path
             id="path116482"
             d="m 447.558,87.991 c -4.424,0 -8,3.584 -8,8 0,4.416 3.576,8 8,8 4.416,0 8,3.592 8,8 0,4.408 -3.584,8 -8,8 -4.424,0 -8,3.584 -8,8 0,4.416 3.576,8 8,8 13.24,0 24,-10.768 24,-24 0,-13.232 -10.768,-24 -24,-24 z" />
        </g>
      </g>
      <g
         id="g116492">
        <g
           id="g116490">
          <path
             id="path116488"
             d="m 447.558,87.991 h -24 c -4.424,0 -8,3.584 -8,8 0,4.416 3.576,8 8,8 h 24 c 4.424,0 8,-3.584 8,-8 0,-4.416 -3.576,-8 -8,-8 z" />
        </g>
      </g>
      <g
         id="g116498">
        <g
           id="g116496">
          <path
             id="path116494"
             d="m 447.558,119.991 h -32 c -4.424,0 -8,3.584 -8,8 0,4.416 3.576,8 8,8 h 32 c 4.424,0 8,-3.584 8,-8 0,-4.416 -3.576,-8 -8,-8 z" />
        </g>
      </g>
      <g
         id="g116504">
        <g
           id="g116502">
          <path
             id="path116500"
             d="m 443.558,63.991 h -28 c -4.424,0 -8,3.584 -8,8 0,4.416 3.576,8 8,8 h 28 c 4.424,0 8,-3.584 8,-8 0,-4.416 -3.576,-8 -8,-8 z" />
        </g>
      </g>
      <g
         id="g116510">
        <g
           id="g116508">
          <path
             id="path116506"
             d="m 423.558,63.991 c -4.424,0 -8,3.584 -8,8 v 56 c 0,4.416 3.576,8 8,8 4.424,0 8,-3.584 8,-8 v -56 c 0,-4.416 -3.576,-8 -8,-8 z" />
        </g>
      </g>
      <g
         id="g116516">
        <g
           id="g116514">
          <path
             id="path116512"
             d="m 431.558,55.991 c -4.424,0 -8,3.584 -8,8 v 8 c 0,4.416 3.576,8 8,8 4.424,0 8,-3.584 8,-8 v -8 c 0,-4.416 -3.576,-8 -8,-8 z" />
        </g>
      </g>
      <g
         id="g116522">
        <g
           id="g116520">
          <path
             id="path116518"
             d="m 431.558,119.991 c -4.424,0 -8,3.584 -8,8 v 8 c 0,4.416 3.576,8 8,8 4.424,0 8,-3.584 8,-8 v -8 c 0,-4.416 -3.576,-8 -8,-8 z" />
        </g>
      </g>
      <g
         id="g116528">
        <g
           id="g116526">
          <path
             id="path116524"
             d="m 435.558,23.991 c -41.904,0 -76,34.096 -76,76 0,41.904 34.096,76 76,76 41.912,0 76,-34.096 76,-76 0,-41.904 -34.096,-76 -76,-76 z m 0,136 c -33.088,0 -60,-26.912 -60,-60 0,-33.088 26.912,-60 60,-60 33.088,0 60,26.912 60,60 0,33.088 -26.912,60 -60,60 z" />
        </g>
      </g>
      <g
         id="g116534">
        <g
           id="g116532">
          <path
             id="path116530"
             d="m 503.558,123.991 c -4.424,0 -8,3.584 -8,8 0,33.088 -26.912,60 -60,60 -33.088,0 -60,-26.912 -60,-60 0,-4.416 -3.576,-8 -8,-8 -4.424,0 -8,3.584 -8,8 0,41.904 34.096,76 76,76 41.912,0 76,-34.096 76,-76 0,-4.416 -3.576,-8 -8,-8 z" />
        </g>
      </g>
      <g
         id="g116540">
        <g
           id="g116538">
          <path
             id="path116536"
             d="m 367.558,91.991 c -4.424,0 -8,3.584 -8,8 v 32 c 0,4.416 3.576,8 8,8 4.424,0 8,-3.584 8,-8 v -32 c 0,-4.416 -3.576,-8 -8,-8 z" />
        </g>
      </g>
      <g
         id="g116546">
        <g
           id="g116544">
          <path
             id="path116542"
             d="m 503.558,91.991 c -4.424,0 -8,3.584 -8,8 v 32 c 0,4.416 3.576,8 8,8 4.424,0 8,-3.584 8,-8 v -32 c 0,-4.416 -3.576,-8 -8,-8 z" />
        </g>
      </g>
      <g
         id="g116552">
        <g
           id="g116550">
          <path
             id="path116548"
             d="m 463.558,153.967 c -4.424,0 -8,3.584 -8,8 v 32 c 0,4.416 3.576,8 8,8 4.424,0 8,-3.584 8,-8 v -32 c 0,-4.416 -3.576,-8 -8,-8 z" />
        </g>
      </g>
      <g
         id="g116558">
        <g
           id="g116556">
          <path
             id="path116554"
             d="m 407.558,153.975 c -4.424,0 -8,3.584 -8,8 v 31.992 c 0,4.416 3.576,8 8,8 4.424,0 8,-3.584 8,-8 v -31.992 c 0,-4.416 -3.576,-8 -8,-8 z" />
        </g>
      </g>
      <g
         id="g116564">
        <g
           id="g116562">
          <path
             id="path116560"
             d="m 475.982,255.991 c -19.848,0 -36,16.152 -36,36 0,19.848 16.152,36 36,36 19.848,0 36,-16.152 36,-36 0,-19.848 -16.152,-36 -36,-36 z m 0,56 c -11.032,0 -20,-8.968 -20,-20 0,-11.032 8.968,-20 20,-20 11.032,0 20,8.968 20,20 0,11.032 -8.968,20 -20,20 z" />
        </g>
      </g>
      <g
         id="g116570">
        <g
           id="g116568">
          <path
             id="path116566"
             d="m 503.982,307.991 c -4.424,0 -8,3.576 -8,8 0,11.032 -8.968,20 -20,20 -11.032,0 -20,-8.968 -20,-20 0,-4.424 -3.576,-8 -8,-8 -4.424,0 -8,3.576 -8,8 0,19.848 16.152,36 36,36 19.848,0 36,-16.152 36,-36 0,-4.424 -3.576,-8 -8,-8 z" />
        </g>
      </g>
      <g
         id="g116576">
        <g
           id="g116574">
          <path
             id="path116572"
             d="m 447.982,283.991 c -4.424,0 -8,3.576 -8,8 v 24 c 0,4.424 3.576,8 8,8 4.424,0 8,-3.576 8,-8 v -24 c 0,-4.424 -3.576,-8 -8,-8 z" />
        </g>
      </g>
      <g
         id="g116582">
        <g
           id="g116580">
          <path
             id="path116578"
             d="m 503.982,283.991 c -4.424,0 -8,3.576 -8,8 v 24 c 0,4.424 3.576,8 8,8 4.424,0 8,-3.576 8,-8 v -24 c 0,-4.424 -3.576,-8 -8,-8 z" />
        </g>
      </g>
      <g
         id="g116588">
        <g
           id="g116586">
          <path
             id="path116584"
             d="m 403.982,223.991 c -15.44,0 -28,12.56 -28,28 0,15.44 12.56,28 28,28 15.44,0 28,-12.56 28,-28 0,-15.44 -12.56,-28 -28,-28 z m 0,40 c -6.616,0 -12,-5.384 -12,-12 0,-6.616 5.384,-12 12,-12 6.616,0 12,5.384 12,12 0,6.616 -5.384,12 -12,12 z" />
        </g>
      </g>
      <g
         id="g116594">
        <g
           id="g116592">
          <path
             id="path116590"
             d="m 503.558,471.991 h -320 c -4.424,0 -8,3.576 -8,8 0,4.424 3.576,8 8,8 h 320 c 4.424,0 8,-3.576 8,-8 0,-4.424 -3.576,-8 -8,-8 z" />
        </g>
      </g>
      <g
         id="g116596" />
      <g
         id="g116598" />
      <g
         id="g116600" />
      <g
         id="g116602" />
      <g
         id="g116604" />
      <g
         id="g116606" />
      <g
         id="g116608" />
      <g
         id="g116610" />
      <g
         id="g116612" />
      <g
         id="g116614" />
      <g
         id="g116616" />
      <g
         id="g116618" />
      <g
         id="g116620" />
      <g
         id="g116622" />
      <g
         id="g116624" />
    </g>
    <g
       id="g116768"
       transform="matrix(2.1166667,0,0,2.1166667,-91.167858,60.022618)">
      <path
         id="path116755"
         d="M 60,31 H 54 V 28.816 C 55.161,28.402 56,27.302 56,26 56,24.698 55.161,23.598 54,23.184 V 6.95 C 54,3.669 51.331,1 48.05,1 46.461,1 44.967,1.619 43.843,2.743 L 27.5,19.086 26,17.586 21.017,22.569 C 20.194,19.355 18,16.713 15.137,15.249 17.424,14.095 19,11.731 19,9 19,5.141 15.86,2 12,2 8.14,2 5,5.141 5,9 5,11.149 5.976,13.074 7.506,14.359 3.754,15.444 1,18.903 1,23 v 9 c 0,1.913 1.351,3.511 3.147,3.904 L 1.043,57.628 C 1.015,57.829 1,58.031 1,58.233 v 0.483 C 1,61.078 2.921,63 5.283,63 7.337,63 9.106,61.536 9.491,59.519 L 12.474,43.857 C 12.632,43.026 13.231,42.371 14,42.116 V 59 c 0,2.206 1.794,4 4,4 2.206,0 4,-1.794 4,-4 V 36 h 1 c 2.206,0 4,-1.794 4,-4 0,-1.782 -1.179,-3.278 -2.792,-3.793 L 30.414,22 l -1.5,-1.5 0.613,-0.613 C 30.535,20.607 31.736,21 33,21 c 3.309,0 6,-2.691 6,-6 0,-0.375 -0.037,-0.743 -0.104,-1.104 C 39.257,13.963 39.625,14 40,14 43.309,14 46,11.309 46,8 46,6.736 45.607,5.536 44.887,4.528 l 0.37,-0.37 C 46.003,3.411 46.995,3 48.05,3 50.228,3 52,4.772 52,6.95 v 16.234 c -1.161,0.414 -2,1.514 -2,2.816 0,1.302 0.839,2.402 2,2.816 V 31 H 42 c -1.654,0 -3,1.346 -3,3 v 26 c 0,1.654 1.346,3 3,3 h 18 c 1.654,0 3,-1.346 3,-3 V 34 c 0,-1.654 -1.346,-3 -3,-3 z M 7,9 c 0,-2.757 2.243,-5 5,-5 2.757,0 5,2.243 5,5 0,2.757 -2.243,5 -5,5 C 9.243,14 7,11.757 7,9 Z m 13,50 c 0,1.103 -0.897,2 -2,2 -1.103,0 -2,-0.897 -2,-2 V 40 h -1.283 c -2.054,0 -3.823,1.464 -4.208,3.481 L 7.526,59.144 C 7.321,60.22 6.378,61 5.283,61 4.024,61 3,59.976 3,58.717 V 58.234 C 3,58.126 3.008,58.017 3.023,57.911 L 6.153,36 H 20 Z m 5,-27 c 0,1.103 -0.897,2 -2,2 H 5 C 3.897,34 3,33.103 3,32 v -9 c 0,-3.859 3.14,-7 7,-7 4.636,0 8.627,3.461 9.283,8.051 L 19.847,28 H 9 V 24 H 7 v 6 h 16 c 1.103,0 2,0.897 2,2 z M 21.832,27.754 21.436,24.979 26,20.414 27.586,22 Z M 33,19 c -0.725,0 -1.413,-0.206 -2.021,-0.565 l 5.457,-5.457 C 36.795,13.587 37,14.275 37,15 c 0,2.206 -1.794,4 -4,4 z M 44,8 c 0,2.206 -1.794,4 -4,4 -0.725,0 -1.413,-0.205 -2.021,-0.564 L 43.436,5.98 C 43.795,6.587 44,7.275 44,8 Z m 9,17 c 0.551,0 1,0.448 1,1 0,0.552 -0.449,1 -1,1 -0.551,0 -1,-0.448 -1,-1 0,-0.552 0.449,-1 1,-1 z m -6,8 V 61 H 45 V 33 Z M 41,60 V 34 c 0,-0.552 0.449,-1 1,-1 h 1 v 28 h -1 c -0.551,0 -1,-0.448 -1,-1 z m 20,0 c 0,0.552 -0.449,1 -1,1 H 49 V 33 h 3 v 3 c 0,1.654 1.346,3 3,3 1.654,0 3,-1.346 3,-3 v -1 h -2 v 1 c 0,0.552 -0.449,1 -1,1 -0.551,0 -1,-0.448 -1,-1 v -3 h 6 c 0.551,0 1,0.448 1,1 z" />
      <path
         id="path116757"
         d="m 55,47 c -2.206,0 -4,1.794 -4,4 0,0.707 0.198,1.395 0.555,2.003 C 51.211,53.593 51,54.269 51,55 c 0,2.206 1.794,4 4,4 2.206,0 4,-1.794 4,-4 0,-0.731 -0.211,-1.407 -0.555,-1.997 C 58.802,52.395 59,51.707 59,51 59,48.794 57.206,47 55,47 Z m 0,2 c 1.103,0 2,0.897 2,2 0,0.175 -0.032,0.346 -0.079,0.514 C 56.349,51.196 55.7,51 55,51 54.3,51 53.651,51.196 53.079,51.514 53.032,51.346 53,51.175 53,51 c 0,-1.103 0.897,-2 2,-2 z m 0,8 c -1.103,0 -2,-0.897 -2,-2 0,-1.103 0.897,-2 2,-2 1.103,0 2,0.897 2,2 0,1.103 -0.897,2 -2,2 z" />
    </g>
    <g
       id="g116365"
       transform="matrix(0.26458333,0,0,0.26458333,187.77862,32.808334)">
      <path
         d="m 234.786,348.354 h 36.366 c 4.143,0 7.5,-3.358 7.5,-7.5 v -36.366 c 0,-4.142 -3.357,-7.5 -7.5,-7.5 h -36.366 c -4.142,0 -7.5,3.358 -7.5,7.5 v 36.366 c 0,4.142 3.358,7.5 7.5,7.5 z m 7.5,-36.366 h 21.366 v 21.366 h -21.366 z"
         id="path116357" />
      <path
         d="m 394.409,437.193 c -3.108,-2.738 -7.846,-2.439 -10.586,0.668 C 350.702,475.445 303.007,497 252.97,497 156.844,497 78.64,418.796 78.64,322.67 c 0,-33.799 9.682,-66.575 28,-94.786 2.256,-3.474 1.269,-8.119 -2.206,-10.375 -3.474,-2.255 -8.118,-1.269 -10.375,2.206 C 74.158,250.363 63.639,285.964 63.639,322.67 63.64,427.067 148.573,512 252.97,512 c 54.343,0 106.139,-23.408 142.107,-64.222 2.738,-3.107 2.439,-7.846 -0.668,-10.585 z"
         id="path116359" />
      <path
         d="m 142.064,315.171 c -3.144,-9.381 -12.011,-16.163 -22.437,-16.163 -13.047,0 -23.663,10.615 -23.663,23.663 0,13.048 10.615,23.663 23.663,23.663 10.426,0 19.293,-6.781 22.437,-16.163 h 52.896 v 19.345 h -10.683 c -3.187,0 -6.026,2.014 -7.079,5.022 l -4.176,11.933 c -3.922,-7.658 -11.891,-12.914 -21.07,-12.914 -13.047,0 -23.663,10.615 -23.663,23.663 0,13.048 10.615,23.663 23.663,23.663 10.426,0 19.293,-6.781 22.437,-16.163 h 2.817 c 3.187,0 6.026,-2.014 7.079,-5.022 l 5.313,-15.181 h 6.587 c 3.144,9.381 12.011,16.163 22.437,16.163 h 68.691 c 10.426,0 19.292,-6.781 22.437,-16.163 h 6.587 l 5.313,15.181 c 1.053,3.008 3.892,5.022 7.079,5.022 h 2.817 c 3.144,9.381 12.011,16.163 22.437,16.163 13.048,0 23.663,-10.615 23.663,-23.663 0,-13.048 -10.615,-23.663 -23.663,-23.663 -9.178,0 -17.147,5.257 -21.069,12.915 l -4.177,-11.933 c -1.053,-3.008 -3.892,-5.022 -7.079,-5.022 h -10.683 v -19.345 h 52.896 c 3.144,9.381 12.011,16.163 22.437,16.163 13.048,0 23.663,-10.615 23.663,-23.663 0,-13.048 -10.615,-23.663 -23.663,-23.663 -10.426,0 -19.292,6.781 -22.437,16.163 h -52.896 v -19.346 h 10.683 c 3.188,0 6.026,-2.014 7.079,-5.022 l 4.177,-11.933 c 3.922,7.658 11.891,12.915 21.069,12.915 13.048,0 23.663,-10.615 23.663,-23.663 0,-13.048 -10.615,-23.663 -23.663,-23.663 -10.426,0 -19.292,6.781 -22.437,16.163 h -2.817 c -3.188,0 -6.026,2.014 -7.079,5.022 l -5.313,15.181 h -6.587 c -3.144,-9.381 -12.011,-16.163 -22.437,-16.163 h -68.691 c -10.427,0 -19.293,6.781 -22.437,16.163 h -6.587 l -5.313,-15.181 c -1.053,-3.008 -3.892,-5.022 -7.079,-5.022 h -2.817 c -3.144,-9.381 -12.011,-16.163 -22.437,-16.163 -13.047,0 -23.663,10.615 -23.663,23.663 0,13.048 10.615,23.663 23.663,23.663 9.179,0 17.147,-5.257 21.07,-12.915 l 4.176,11.933 c 1.053,3.008 3.892,5.022 7.079,5.022 h 10.683 v 19.346 h -52.896 z m -22.437,16.162 c -4.776,0 -8.663,-3.886 -8.663,-8.663 0,-4.777 3.886,-8.663 8.663,-8.663 4.777,0 8.663,3.886 8.663,8.663 0,4.777 -3.886,8.663 -8.663,8.663 z m 32.326,54.549 c -4.776,0 -8.663,-3.886 -8.663,-8.663 0,-4.777 3.886,-8.663 8.663,-8.663 4.777,0 8.663,3.886 8.663,8.663 0,4.777 -3.887,8.663 -8.663,8.663 z m 202.032,-17.325 c 4.776,0 8.663,3.886 8.663,8.663 0,4.777 -3.887,8.663 -8.663,8.663 -4.776,0 -8.662,-3.886 -8.662,-8.663 0,-4.777 3.885,-8.663 8.662,-8.663 z m 32.325,-54.549 c 4.776,0 8.663,3.886 8.663,8.663 0,4.777 -3.887,8.663 -8.663,8.663 -4.776,0 -8.662,-3.886 -8.662,-8.663 0,-4.777 3.886,-8.663 8.662,-8.663 z m -32.325,-54.549 c 4.776,0 8.663,3.886 8.663,8.663 0,4.777 -3.887,8.663 -8.663,8.663 -4.776,0 -8.662,-3.886 -8.662,-8.663 0,-4.777 3.885,-8.663 8.662,-8.663 z m -202.032,17.326 c -4.776,0 -8.663,-3.886 -8.663,-8.663 0,-4.777 3.886,-8.663 8.663,-8.663 4.777,0 8.663,3.886 8.663,8.663 0,4.777 -3.887,8.663 -8.663,8.663 z m 58.008,11.54 c 0,-4.776 3.886,-8.663 8.663,-8.663 h 68.691 c 4.776,0 8.662,3.886 8.662,8.663 v 68.691 c 0,4.776 -3.886,8.663 -8.662,8.663 h -68.691 c -4.776,0 -8.663,-3.886 -8.663,-8.663 z"
         id="path116361" />
      <path
         d="m 354.36,81.14 c -0.098,25.816 21.943,47.927 48.372,46.963 25.28,-0.731 45.624,-21.509 45.624,-46.963 0.32,-19.027 -16.041,-35.378 -16.645,-35.84 -2.292,-2.199 -5.723,-2.714 -8.56,-1.289 l -2.029,1.02 -13.194,-23.975 c -1.318,-2.396 -3.836,-3.884 -6.57,-3.884 -2.734,0 -5.252,1.488 -6.57,3.884 l -3.407,6.191 C 373.618,9.816 349.853,0 324.69,0 c -50.461,0 -91.889,39.391 -95.164,89.038 -5.494,0.533 -10.964,1.245 -16.387,2.155 -37.719,6.331 -65.742,37.87 -68.017,75.795 -10.11,7.046 -19.62,15.134 -28.39,24.225 -2.875,2.981 -2.79,7.729 0.191,10.605 2.98,2.875 7.729,2.79 10.605,-0.191 33.149,-34.363 77.699,-53.287 125.442,-53.287 96.125,0 174.33,78.204 174.33,174.33 0,31.009 -8.243,61.451 -23.839,88.035 -2.096,3.573 -0.899,8.168 2.674,10.264 1.192,0.7 2.498,1.033 3.788,1.032 2.573,0 5.079,-1.326 6.476,-3.706 16.945,-28.883 25.901,-61.95 25.901,-95.625 0,-63.888 -31.813,-120.481 -80.424,-154.785 -1.133,-21.656 -10.878,-42.151 -27.104,-56.725 -3.084,-2.768 -7.823,-2.513 -10.592,0.569 -2.768,3.082 -2.513,7.824 0.568,10.591 10.417,9.355 17.557,21.697 20.593,35.135 C 318,142.108 286.493,133.34 252.971,133.34 c -32.511,0 -63.657,8.083 -91.244,23.31 6.016,-25.801 26.918,-46.135 53.895,-50.663 24.908,-4.18 50.813,-4.123 75.812,0.184 1.897,0.328 3.869,0.76 5.86,1.284 4.004,1.052 8.107,-1.34 9.161,-5.346 1.053,-4.006 -1.341,-8.107 -5.347,-9.161 -2.405,-0.632 -4.801,-1.156 -7.124,-1.558 -5.606,-0.966 -11.256,-1.719 -16.928,-2.284 3.088,-23.542 23.266,-41.779 47.636,-41.779 13.109,0 25.407,5.269 34.439,14.588 -2.16,4.298 -4.787,11.984 -4.771,19.225 z m 47.209,31.993 c -4.488,0.131 -8.757,-3.87 -8.769,-8.657 0.017,-2.288 3.739,-8.177 8.663,-14.089 4.924,5.913 8.646,11.801 8.662,14.088 0,4.741 -3.829,8.6 -8.556,8.658 z m 9.896,-54.539 c 1.944,3.533 6.333,4.896 9.938,3.085 l 3.322,-1.67 c 3.562,4.519 8.63,12.429 8.63,20.839 v 0.292 c 0,8.286 -3.167,15.846 -8.353,21.535 -1.342,-10.907 -14.136,-24.615 -18.21,-28.73 -1.408,-1.423 -3.327,-2.224 -5.33,-2.224 -2.002,0 -3.922,0.801 -5.33,2.224 -4.098,4.14 -17.022,17.989 -18.232,28.927 -5.295,-5.711 -8.541,-13.349 -8.541,-21.733 v -0.292 c 0,-8.413 5.072,-16.326 8.63,-20.84 l 3.323,1.671 c 3.603,1.812 7.996,0.448 9.938,-3.085 L 401.356,40.228 Z M 324.691,32.325 c -32.299,0 -58.988,24.413 -62.623,55.753 -5.803,-0.217 -11.612,-0.229 -17.409,-0.031 C 248.376,47.151 282.841,15 324.69,15 c 22.614,0 43.891,9.418 59.124,25.999 l -2.219,4.033 -2.029,-1.02 c -2.835,-1.426 -6.268,-0.91 -8.56,1.289 -0.191,0.183 -1.59,1.543 -3.503,3.833 -11.584,-10.767 -26.73,-16.809 -42.812,-16.809 z"
         id="path116363" />
    </g>
    <g
       id="outline"
       transform="matrix(0.26458333,0,0,0.26458333,69.094048,203.65357)">
      <g
         id="g118153">
        <circle
           cx="240"
           cy="368"
           r="8"
           id="circle116272" />
        <circle
           cx="232"
           cy="264"
           r="8"
           id="circle116274" />
        <circle
           cx="280"
           cy="264"
           r="8"
           id="circle116276" />
        <circle
           cx="272"
           cy="368"
           r="8"
           id="circle116278" />
        <path
           d="m 312,368 h -8 v -32 a 8,8 0 0 0 -8,-8 h -80 a 8,8 0 0 0 -8,8 v 32 h -8 v -8 h -16 v 32 h 16 v -8 h 8 v 24 a 8,8 0 0 0 5.029,7.428 l 40,16 a 8,8 0 0 0 5.942,0 l 40,-16 A 8,8 0 0 0 304,408 v -24 h 8 v 8 h 16 v -32 h -16 z m -24,34.584 -32,12.8 -32,-12.8 V 344 h 64 z"
           id="path116280" />
        <path
           d="m 242.343,405.657 a 8,8 0 0 0 11.314,0 l 2.343,-2.344 2.343,2.344 a 8,8 0 0 0 11.314,0 l 8,-8 a 8.0002061,8.0002061 0 0 0 -11.314,-11.314 l -2.343,2.344 -2.343,-2.344 a 8,8 0 0 0 -11.314,0 l -2.343,2.344 -2.343,-2.344 a 8.0002061,8.0002061 0 0 0 -11.314,11.314 z"
           id="path116282" />
        <path
           d="M 153.14,268.116 169.87,296 H 160 a 8,8 0 0 0 -8,8 v 32 h -24 v 16 h 19.5 l -40.626,33.854 a 8.018,8.018 0 0 0 -2.033,2.568 l -24,48 a 8,8 0 0 0 -0.434,6.108 l 16,48 A 8,8 0 0 0 104,496 h 296 a 8,8 0 0 0 7.589,-5.47 l 16,-48 a 8,8 0 0 0 -0.434,-6.108 l -24,-48 a 8.018,8.018 0 0 0 -2.033,-2.568 L 356.5,352 H 384 v -16 h -32 v -32 a 8,8 0 0 0 -8,-8 h -1.87 l 16.73,-27.884 A 8,8 0 0 0 358.4,259.2 l -48,-64 a 8,8 0 0 0 -2.822,-2.355 l -48,-24 a 8,8 0 0 0 -7.156,0 l -48,24 A 8,8 0 0 0 201.6,195.2 l -48,64 a 8,8 0 0 0 -0.46,8.916 z M 152,420 123.2,441.6 a 8,8 0 1 0 9.6,12.8 L 152,440 v 8 a 8,8 0 0 0 -8,8 v 12 a 27.838,27.838 0 0 0 2.707,12 H 109.766 L 96.637,440.614 118.407,397.074 152,369.08 Z m 200,20 19.2,14.4 a 8,8 0 0 0 9.6,-12.8 L 352,420 v -50.92 l 33.593,27.994 21.77,43.54 L 394.234,480 H 357.293 A 27.838,27.838 0 0 0 360,468 v -12 a 8,8 0 0 0 -8,-8 z M 168,312 H 336 V 448 H 168 Z m 109.657,-29.657 a 8,8 0 0 0 -11.314,0 L 256,292.687 245.657,282.343 a 8.0002061,8.0002061 0 0 0 -11.314,11.314 L 236.686,296 H 220.529 L 202.074,265.24 227.313,240 h 57.374 l 25.239,25.24 -18.455,30.76 h -16.157 l 2.343,-2.343 a 8,8 0 0 0 0,-11.314 z M 344,464 v 4 a 12.013,12.013 0 0 1 -12,12 H 172 a 12.013,12.013 0 0 1 -12,-12 v -4 z M 213.267,206.311 256,184.944 l 42.733,21.367 43.64,58.186 -18.9,31.5 H 310.13 l 16.73,-27.884 a 8,8 0 0 0 -1.2,-9.773 l -32,-32 A 8,8 0 0 0 288,224 h -64 a 8,8 0 0 0 -5.657,2.343 l -32,32 a 8,8 0 0 0 -1.2,9.773 L 201.87,296 h -13.341 l -18.9,-31.5 z"
           id="path116284" />
        <path
           d="M 328,100 V 36 A 20.023,20.023 0 0 0 308,16 H 204 a 20.023,20.023 0 0 0 -20,20 v 64 a 20.023,20.023 0 0 0 20,20 h 24.9 l -4.49,13.47 A 8,8 0 0 0 232,144 h 48 a 8,8 0 0 0 7.589,-10.53 L 283.1,120 H 308 a 20.023,20.023 0 0 0 20,-20 z m -84.9,28 2.666,-8 h 20.468 l 2.666,8 z M 204,104 a 4,4 0 0 1 -4,-4 V 36 a 4,4 0 0 1 4,-4 h 104 a 4,4 0 0 1 4,4 v 64 a 4,4 0 0 1 -4,4 z"
           id="path116286" />
        <path
           d="m 288,56 h -8 v -8 a 8,8 0 0 0 -8,-8 h -32 a 8,8 0 0 0 -8,8 v 8 h -8 v -8 h -16 v 32 h 16 v -8 h 8 v 8 a 8,8 0 0 0 4.422,7.155 l 16,8 a 8,8 0 0 0 7.156,0 l 16,-8 A 8,8 0 0 0 280,80 v -8 h 8 v 8 h 16 V 48 h -16 z m -24,19.056 -8,4 -8,-4 V 56 h 16 z"
           id="path116288" />
        <rect
           x="344"
           y="56"
           width="16"
           height="16"
           id="rect116290" />
        <path
           d="M 476,112 H 372 a 20.023,20.023 0 0 0 -20,20 v 64 a 20.023,20.023 0 0 0 20,20 h 24.9 l -4.49,13.47 A 8,8 0 0 0 400,240 h 48 a 8,8 0 0 0 7.589,-10.53 L 451.1,216 H 476 a 20.023,20.023 0 0 0 20,-20 v -64 a 20.023,20.023 0 0 0 -20,-20 z m -64.9,112 2.666,-8 h 20.468 l 2.666,8 z M 480,196 a 4,4 0 0 1 -4,4 H 372 a 4,4 0 0 1 -4,-4 v -64 a 4,4 0 0 1 4,-4 h 104 a 4,4 0 0 1 4,4 z"
           id="path116292" />
        <path
           d="m 456,152 h -8 v -8 a 8,8 0 0 0 -8,-8 h -32 a 8,8 0 0 0 -8,8 v 8 h -8 v -8 h -16 v 32 h 16 v -8 h 8 v 8 a 8,8 0 0 0 4.422,7.155 l 16,8 a 8,8 0 0 0 7.156,0 l 16,-8 A 8,8 0 0 0 448,176 v -8 h 8 v 8 h 16 v -32 h -16 z m -24,19.056 -8,4 -8,-4 V 152 h 16 z"
           id="path116294" />
        <path
           d="m 16,132 v 64 a 20.023,20.023 0 0 0 20,20 h 24.9 l -4.49,13.47 A 8,8 0 0 0 64,240 h 48 a 8,8 0 0 0 7.589,-10.53 L 115.1,216 H 140 a 20.023,20.023 0 0 0 20,-20 V 132 A 20.023,20.023 0 0 0 140,112 H 36 a 20.023,20.023 0 0 0 -20,20 z m 59.1,92 2.666,-8 h 20.468 l 2.666,8 z M 144,132 v 64 a 4,4 0 0 1 -4,4 H 36 a 4,4 0 0 1 -4,-4 v -64 a 4,4 0 0 1 4,-4 h 104 a 4,4 0 0 1 4,4 z"
           id="path116296" />
        <path
           d="m 56,168 h 8 v 8 a 8,8 0 0 0 4.422,7.155 l 16,8 a 8,8 0 0 0 7.156,0 l 16,-8 A 8,8 0 0 0 112,176 v -8 h 8 v 8 h 16 v -32 h -16 v 8 h -8 v -8 a 8,8 0 0 0 -8,-8 H 72 a 8,8 0 0 0 -8,8 v 8 h -8 v -8 H 40 v 32 h 16 z m 24,-16 h 16 v 19.056 l -8,4 -8,-4 z"
           id="path116298" />
        <path
           d="M 432,96 V 64 a 8,8 0 0 0 -8,-8 h -16 v 16 h 8 v 24 z"
           id="path116300" />
        <rect
           x="376"
           y="56"
           width="16"
           height="16"
           id="rect116302" />
        <rect
           x="152"
           y="56"
           width="16"
           height="16"
           id="rect116304" />
        <path
           d="M 104,72 V 56 H 88 a 8,8 0 0 0 -8,8 V 96 H 96 V 72 Z"
           id="path116306" />
        <rect
           x="120"
           y="56"
           width="16"
           height="16"
           id="rect116308" />
        <rect
           x="80"
           y="256"
           width="16"
           height="16"
           id="rect116310" />
        <rect
           x="80"
           y="288"
           width="16"
           height="16"
           id="rect116312" />
        <path
           d="m 80,344 a 8,8 0 0 0 8,8 h 24 V 336 H 96 V 320 H 80 Z"
           id="path116314" />
        <rect
           x="416"
           y="256"
           width="16"
           height="16"
           id="rect116316" />
        <rect
           x="416"
           y="288"
           width="16"
           height="16"
           id="rect116318" />
        <path
           d="m 416,336 h -16 v 16 h 24 a 8,8 0 0 0 8,-8 v -24 h -16 z"
           id="path116320" />
      </g>
    </g>
  </g>
</svg>
